Khula-wt937.36.ufo
<glyph name="plus.deva" format="1">
  <advance width="1044"/>
  <unicode hex="002B"/>
  <outline>
    <contour>
      <point x="415" y="544" type="line"/>
      <point x="138" y="544" type="line"/>
      <point x="138" y="755" type="line"/>
      <point x="415" y="755" type="line"/>
      <point x="415" y="1028" type="line"/>
      <point x="627" y="1028" type="line"/>
      <point x="627" y="755" type="line"/>
      <point x="904" y="755" type="line"/>
      <point x="904" y="544" type="line"/>
      <point x="627" y="544" type="line"/>
      <point x="627" y="277" type="line"/>
      <point x="415" y="277" type="line"/>
    </contour>
  </outline>
</glyph>
<glyph name="hyphen.deva" format="1">
  <advance width="745"/>
  <unicode hex="002D"/>
  <outline>
    <contour>
      <point x="98" y="360" type="line"/>
      <point x="98" y="628" type="line"/>
      <point x="601" y="628" type="line"/>
      <point x="601" y="360" type="line"/>
    </contour>
  </outline>
</glyph>
<glyph name="period.deva" format="1">
  <advance width="588"/>
  <unicode hex="002E"/>
  <outline>
    <contour>
      <point x="94" y="145" type="curve" smooth="yes"/>
      <point x="94" y="253"/>
      <point x="158" y="314"/>
      <point x="279" y="314" type="curve" smooth="yes"/>
      <point x="394" y="314"/>
      <point x="458" y="253"/>
      <point x="458" y="145" type="curve" smooth="yes"/>
      <point x="458" y="39"/>
      <point x="390" y="-23"/>
      <point x="279" y="-23" type="curve" smooth="yes"/>
      <point x="165" y="-23"/>
      <point x="94" y="38"/>
    </contour>
  </outline>
</glyph>
<glyph name="zero.deva" format="1">
  <advance width="1080"/>
  <unicode hex="0030"/>
  <outline>
    <contour>
      <point x="1015" y="656" type="curve" smooth="yes"/>
      <point x="1015" y="191"/>
      <point x="861" y="-18"/>
      <point x="540" y="-18" type="curve" smooth="yes"/>
      <point x="225" y="-18"/>
      <point x="65" y="209"/>
      <point x="65" y="656" type="curve" smooth="yes"/>
      <point x="65" y="1124"/>
      <point x="219" y="1335"/>
      <point x="540" y="1335" type="curve" smooth="yes"/>
      <point x="853" y="1335"/>
      <point x="1015" y="1107"/>
    </contour>
    <contour>
      <point x="418" y="656" type="curve" smooth="yes"/>
      <point x="418" y="507"/>
      <point x="427" y="405"/>
      <point x="446" y="349" type="curve" smooth="yes"/>
      <point x="465" y="293"/>
      <point x="496" y="265"/>
      <point x="540" y="265" type="curve" smooth="yes"/>
      <point x="585" y="265"/>
      <point x="616" y="294"/>
      <point x="634" y="351" type="curve" smooth="yes"/>
      <point x="652" y="409"/>
      <point x="661" y="511"/>
      <point x="661" y="656" type="curve" smooth="yes"/>
      <point x="661" y="802"/>
      <point x="652" y="904"/>
      <point x="633" y="962" type="curve"/>
      <point x="615" y="1021"/>
      <point x="584" y="1050"/>
      <point x="540" y="1050" type="curve" smooth="yes"/>
      <point x="496" y="1050"/>
      <point x="465" y="1022"/>
      <point x="446" y="965" type="curve" smooth="yes"/>
      <point x="427" y="909"/>
      <point x="418" y="806"/>
    </contour>
  </outline>
</glyph>
<glyph name="one.deva" format="1">
  <advance width="1078"/>
  <unicode hex="0031"/>
  <outline>
    <contour>
      <point x="831" y="0" type="line"/>
      <point x="488" y="0" type="line"/>
      <point x="488" y="717" type="line"/>
      <point x="488" y="800"/>
      <point x="490" y="877"/>
      <point x="493" y="948" type="curve"/>
      <point x="472" y="922"/>
      <point x="445" y="894"/>
      <point x="413" y="866" type="curve" smooth="yes"/>
      <point x="412" y="865"/>
      <point x="269" y="748"/>
      <point x="259" y="739" type="curve"/>
      <point x="84" y="956" type="line"/>
      <point x="526" y="1316" type="line"/>
      <point x="831" y="1316" type="line"/>
    </contour>
  </outline>
</glyph>
<glyph name="four.deva" format="1">
  <advance width="1060"/>
  <unicode hex="0034"/>
  <outline>
    <contour>
      <point x="987" y="199" type="line"/>
      <point x="889" y="199" type="line"/>
      <point x="889" y="0" type="line"/>
      <point x="570" y="0" type="line"/>
      <point x="570" y="199" type="line"/>
      <point x="39" y="199" type="line"/>
      <point x="39" y="545" type="line"/>
      <point x="578" y="1323" type="line"/>
      <point x="889" y="1323" type="line"/>
      <point x="889" y="514" type="line"/>
      <point x="987" y="514" type="line"/>
    </contour>
    <contour>
      <point x="570" y="514" type="line"/>
      <point x="570" y="1139" type="line"/>
      <point x="570" y="934"/>
      <point x="570" y="861"/>
      <point x="567" y="924" type="curve"/>
      <point x="556" y="924" type="line"/>
      <point x="475" y="764"/>
      <point x="479" y="740"/>
      <point x="566" y="863" type="curve"/>
      <point x="315" y="514" type="line"/>
    </contour>
  </outline>
</glyph>
<glyph name="nine.deva" format="1">
  <advance width="1078"/>
  <unicode hex="0039"/>
  <outline>
    <contour>
      <point x="0" y="0" type="line"/>
      <point x="1078" y="0" type="line"/>
      <point x="1078" y="20" type="line"/>
      <point x="0" y="20" type="line"/>
    </contour>
  </outline>
</glyph>
<glyph name="colon.deva" format="1">
  <advance width="588"/>
  <unicode hex="003A"/>
  <outline>
    <contour>
      <point x="131" y="145" type="curve" smooth="yes"/>
      <point x="131" y="253"/>
      <point x="195" y="314"/>
      <point x="316" y="314" type="curve" smooth="yes"/>
      <point x="430" y="314"/>
      <point x="495" y="253"/>
      <point x="495" y="145" type="curve" smooth="yes"/>
      <point x="495" y="39"/>
      <point x="427" y="-23"/>
      <point x="316" y="-23" type="curve" smooth="yes"/>
      <point x="201" y="-23"/>
      <point x="131" y="38"/>
    </contour>
    <contour>
      <point x="131" y="862" type="curve" smooth="yes"/>
      <point x="131" y="969"/>
      <point x="196" y="1030"/>
      <point x="316" y="1030" type="curve" smooth="yes"/>
      <point x="431" y="1030"/>
      <point x="495" y="969"/>
      <point x="495" y="862" type="curve" smooth="yes"/>
      <point x="495" y="757"/>
      <point x="428" y="695"/>
      <point x="316" y="695" type="curve" smooth="yes"/>
      <point x="198" y="695"/>
      <point x="131" y="756"/>
    </contour>
  </outline>
</glyph>
<glyph name="semicolon.deva" format="1">
  <advance width="670"/>
  <unicode hex="003B"/>
  <outline>
    <contour>
      <point x="505" y="266" type="line"/>
      <point x="518" y="245" type="line"/>
      <point x="460" y="20"/>
      <point x="407" y="-146"/>
      <point x="359" y="-256" type="curve"/>
      <point x="121" y="-256" type="line"/>
      <point x="138" y="-174"/>
      <point x="156" y="-83"/>
      <point x="173" y="20" type="curve" smooth="yes"/>
      <point x="191" y="122"/>
      <point x="203" y="203"/>
      <point x="210" y="266" type="curve"/>
    </contour>
    <contour>
      <point x="155" y="861" type="curve" smooth="yes"/>
      <point x="155" y="967"/>
      <point x="218" y="1028"/>
      <point x="338" y="1028" type="curve" smooth="yes"/>
      <point x="454" y="1028"/>
      <point x="517" y="966"/>
      <point x="517" y="861" type="curve" smooth="yes"/>
      <point x="517" y="756"/>
      <point x="452" y="694"/>
      <point x="338" y="694" type="curve" smooth="yes"/>
      <point x="220" y="694"/>
      <point x="155" y="755"/>
    </contour>
  </outline>
</glyph>
<glyph name="less.deva" format="1">
  <advance width="1043"/>
  <unicode hex="003C"/>
  <outline>
    <contour>
      <point x="975" y="160" type="line"/>
      <point x="65" y="564" type="line"/>
      <point x="65" y="719" type="line"/>
      <point x="975" y="1174" type="line"/>
      <point x="975" y="907" type="line"/>
      <point x="417" y="652" type="line"/>
      <point x="975" y="426" type="line"/>
    </contour>
  </outline>
</glyph>
<glyph name="C" format="1">
  <advance width="1217"/>
  <unicode hex="0043"/>
  <outline>
    <contour>
      <point x="732" y="1035" type="curve" smooth="yes"/>
      <point x="647" y="1035"/>
      <point x="582" y="1002"/>
      <point x="531" y="932" type="curve" smooth="yes"/>
      <point x="484" y="863"/>
      <point x="458" y="771"/>
      <point x="458" y="652" type="curve" smooth="yes"/>
      <point x="458" y="528"/>
      <point x="482" y="435"/>
      <point x="539" y="371" type="curve" smooth="yes"/>
      <point x="596" y="304"/>
      <point x="672" y="272"/>
      <point x="769" y="272" type="curve" smooth="yes"/>
      <point x="804" y="272"/>
      <point x="921" y="294"/>
      <point x="1114" y="343" type="curve"/>
      <point x="1114" y="48" type="line"/>
      <point x="1011" y="5"/>
      <point x="886" y="-18"/>
      <point x="740" y="-18" type="curve" smooth="yes"/>
      <point x="519" y="-18"/>
      <point x="354" y="38"/>
      <point x="255" y="149" type="curve" smooth="yes"/>
      <point x="153" y="264"/>
      <point x="100" y="431"/>
      <point x="100" y="657" type="curve"/>
      <point x="99" y="1074"/>
      <point x="340" y="1336"/>
      <point x="758" y="1335" type="curve"/>
      <point x="923" y="1335"/>
      <point x="1062" y="1307"/>
      <point x="1172" y="1247" type="curve"/>
      <point x="1022" y="971" type="line"/>
      <point x="914" y="1015"/>
      <point x="817" y="1035"/>
    </contour>
  </outline>
</glyph>
<glyph name="L" format="1">
  <advance width="1064"/>
  <unicode hex="004C"/>
  <outline>
    <contour>
      <point x="145" y="0" type="line"/>
      <point x="145" y="1316" type="line"/>
      <point x="485" y="1316" type="line"/>
      <point x="485" y="275" type="line"/>
      <point x="997" y="275" type="line"/>
      <point x="997" y="0" type="line"/>
    </contour>
  </outline>
</glyph>
<glyph name="M" format="1">
  <advance width="1888"/>
  <unicode hex="004D"/>
  <outline>
    <contour>
      <point x="757" y="0" type="line"/>
      <point x="447" y="1018" type="line"/>
      <point x="440" y="1018" type="line"/>
      <point x="457" y="874"/>
      <point x="467" y="661"/>
      <point x="467" y="386" type="curve" smooth="yes"/>
      <point x="467" y="0" type="line"/>
      <point x="166" y="0" type="line"/>
      <point x="166" y="1316" type="line"/>
      <point x="662" y="1316" type="line"/>
      <point x="928" y="448" type="line"/>
      <point x="941" y="448" type="line"/>
      <point x="1222" y="1316" type="line"/>
      <point x="1723" y="1316" type="line"/>
      <point x="1723" y="0" type="line"/>
      <point x="1388" y="0" type="line"/>
      <point x="1388" y="397" type="line"/>
      <point x="1388" y="576"/>
      <point x="1392" y="785"/>
      <point x="1408" y="1020" type="curve"/>
      <point x="1397" y="1020" type="line"/>
      <point x="1077" y="0" type="line"/>
    </contour>
  </outline>
</glyph>
<glyph name="N" format="1">
  <advance width="1537"/>
  <unicode hex="004E"/>
  <outline>
    <contour>
      <point x="1395" y="0" type="line"/>
      <point x="929" y="0" type="line"/>
      <point x="448" y="927" type="line"/>
      <point x="440" y="927" type="line"/>
      <point x="451" y="781"/>
      <point x="457" y="670"/>
      <point x="457" y="593" type="curve" smooth="yes"/>
      <point x="457" y="0" type="line"/>
      <point x="142" y="0" type="line"/>
      <point x="142" y="1316" type="line"/>
      <point x="607" y="1316" type="line"/>
      <point x="1085" y="401" type="line"/>
      <point x="1091" y="401" type="line"/>
      <point x="1082" y="534"/>
      <point x="1078" y="640"/>
      <point x="1078" y="721" type="curve" smooth="yes"/>
      <point x="1078" y="1316" type="line"/>
      <point x="1395" y="1316" type="line"/>
    </contour>
  </outline>
</glyph>
<glyph name="U" format="1">
  <advance width="1391"/>
  <unicode hex="0055"/>
  <outline>
    <contour>
      <point x="1254" y="1316" type="line"/>
      <point x="1254" y="519" type="line"/>
      <point x="1254" y="348"/>
      <point x="1205" y="216"/>
      <point x="1108" y="122" type="curve" smooth="yes"/>
      <point x="1011" y="29"/>
      <point x="872" y="-18"/>
      <point x="691" y="-18" type="curve" smooth="yes"/>
      <point x="513" y="-18"/>
      <point x="377" y="28"/>
      <point x="280" y="118" type="curve"/>
      <point x="185" y="210"/>
      <point x="138" y="341"/>
      <point x="138" y="512" type="curve" smooth="yes"/>
      <point x="138" y="1316" type="line"/>
      <point x="478" y="1316" type="line"/>
      <point x="478" y="537" type="line"/>
      <point x="478" y="347"/>
      <point x="553" y="265"/>
      <point x="696" y="265" type="curve" smooth="yes"/>
      <point x="847" y="265"/>
      <point x="914" y="346"/>
      <point x="914" y="538" type="curve" smooth="yes"/>
      <point x="914" y="1316" type="line"/>
    </contour>
  </outline>
</glyph>
<glyph name="V" format="1">
  <advance width="1197"/>
  <unicode hex="0056"/>
  <outline>
    <contour>
      <point x="835" y="1316" type="line"/>
      <point x="1197" y="1316" type="line"/>
      <point x="780" y="0" type="line"/>
      <point x="418" y="0" type="line"/>
      <point x="0" y="1316" type="line"/>
      <point x="356" y="1316" type="line"/>
      <point x="570" y="597" type="line"/>
      <point x="556" y="615"/>
      <point x="566" y="538"/>
      <point x="595" y="370" type="curve"/>
      <point x="648" y="624"/>
      <point x="688" y="803"/>
      <point x="723" y="906" type="curve" smooth="yes"/>
    </contour>
  </outline>
</glyph>
<glyph name="Z" format="1">
  <advance width="1126"/>
  <unicode hex="005A"/>
  <outline>
    <contour>
      <point x="1080" y="0" type="line"/>
      <point x="55" y="0" type="line"/>
      <point x="55" y="220" type="line"/>
      <point x="625" y="1029" type="line"/>
      <point x="68" y="1029" type="line"/>
      <point x="68" y="1316" type="line"/>
      <point x="1066" y="1316" type="line"/>
      <point x="1066" y="1097" type="line"/>
      <point x="496" y="287" type="line"/>
      <point x="1080" y="287" type="line"/>
    </contour>
  </outline>
</glyph>
<glyph name="backslash.deva" format="1">
  <advance width="803"/>
  <unicode hex="005C"/>
  <outline>
    <contour>
      <point x="305" y="1333" type="line"/>
      <point x="795" y="-17" type="line"/>
      <point x="497" y="-17" type="line"/>
      <point x="6" y="1333" type="line"/>
    </contour>
  </outline>
</glyph>
<glyph name="grave" format="1">
  <advance width="1101"/>
  <unicode hex="0060"/>
  <outline>
    <contour>
      <point x="630" y="1241" type="line"/>
      <point x="592" y="1265"/>
      <point x="531" y="1305"/>
      <point x="455" y="1357" type="curve" smooth="yes"/>
      <point x="377" y="1414"/>
      <point x="308" y="1465"/>
      <point x="252" y="1509" type="curve"/>
      <point x="249" y="1513"/>
      <point x="246" y="1533"/>
      <point x="245" y="1535" type="curve"/>
      <point x="608" y="1536" type="line"/>
      <point x="637" y="1497"/>
      <point x="701" y="1432"/>
      <point x="787" y="1340" type="curve"/>
      <point x="788" y="1338"/>
      <point x="839" y="1279"/>
      <point x="842" y="1276" type="curve"/>
      <point x="845" y="1272"/>
      <point x="847" y="1245"/>
      <point x="850" y="1242" type="curve"/>
    </contour>
  </outline>
</glyph>
<glyph name="c" format="1">
  <advance width="994"/>
  <unicode hex="0063"/>
  <outline>
    <contour>
      <point x="586" y="-18" type="curve" smooth="yes"/>
      <point x="253" y="-18"/>
      <point x="77" y="168"/>
      <point x="77" y="505" type="curve" smooth="yes"/>
      <point x="77" y="674"/>
      <point x="123" y="805"/>
      <point x="216" y="898" type="curve" smooth="yes"/>
      <point x="309" y="991"/>
      <point x="442" y="1038"/>
      <point x="614" y="1038" type="curve" smooth="yes"/>
      <point x="732" y="1038"/>
      <point x="843" y="1012"/>
      <point x="948" y="960" type="curve"/>
      <point x="844" y="700" type="line"/>
      <point x="759" y="737"/>
      <point x="691" y="761"/>
      <point x="614" y="761" type="curve" smooth="yes"/>
      <point x="499" y="761"/>
      <point x="435" y="668"/>
      <point x="435" y="507" type="curve" smooth="yes"/>
      <point x="435" y="344"/>
      <point x="495" y="262"/>
      <point x="616" y="262" type="curve" smooth="yes"/>
      <point x="719" y="262"/>
      <point x="818" y="292"/>
      <point x="913" y="352" type="curve"/>
      <point x="913" y="72" type="line"/>
      <point x="822" y="12"/>
      <point x="713" y="-18"/>
    </contour>
  </outline>
</glyph>
<glyph name="f" format="1">
  <advance width="843"/>
  <unicode hex="0066"/>
  <outline>
    <contour>
      <point x="833" y="776" type="line"/>
      <point x="518" y="776" type="line"/>
      <point x="518" y="0" type="line"/>
      <point x="184" y="0" type="line"/>
      <point x="184" y="776" type="line"/>
      <point x="26" y="776" type="line"/>
      <point x="26" y="893" type="line"/>
      <point x="184" y="1010" type="line"/>
      <point x="184" y="1002" type="line"/>
      <point x="184" y="1250"/>
      <point x="362" y="1410"/>
      <point x="611" y="1410" type="curve" smooth="yes"/>
      <point x="657" y="1410"/>
      <point x="739" y="1394"/>
      <point x="861" y="1358" type="curve"/>
      <point x="765" y="1108" type="line"/>
      <point x="681" y="1139"/>
      <point x="625" y="1154"/>
      <point x="602" y="1154" type="curve" smooth="yes"/>
      <point x="574" y="1154"/>
      <point x="518" y="1097"/>
      <point x="518" y="993" type="curve" smooth="yes"/>
      <point x="518" y="1010" type="line"/>
      <point x="833" y="1010" type="line"/>
    </contour>
  </outline>
</glyph>
<glyph name="p" format="1">
  <advance width="1226"/>
  <unicode hex="0070"/>
  <outline>
    <contour>
      <point x="723" y="-18" type="curve" smooth="yes"/>
      <point x="665" y="-18"/>
      <point x="556" y="-2"/>
      <point x="474" y="54" type="curve"/>
      <point x="448" y="54" type="line"/>
      <point x="476" y="-179"/>
      <point x="487" y="-174"/>
      <point x="487" y="-379" type="curve" smooth="yes"/>
      <point x="477" y="-243"/>
      <point x="474" y="-1732"/>
      <point x="474" y="-1572" type="curve"/>
      <point x="-129" y="-443" type="line"/>
      <point x="140" y="5310" type="line"/>
      <point x="631" y="1010" type="line"/>
      <point x="489" y="467" type="line"/>
      <point x="465" y="887" type="line"/>
      <point x="771" y="1322"/>
      <point x="1160" y="1503"/>
      <point x="1691" y="1503" type="curve" smooth="yes"/>
      <point x="2016" y="1186"/>
      <point x="2096" y="844"/>
      <point x="1937" y="486" type="curve" smooth="yes"/>
      <point x="1424" y="127"/>
      <point x="1139" y="156"/>
      <point x="1139" y="509" type="curve" smooth="yes"/>
      <point x="1139" y="344"/>
      <point x="1106" y="215"/>
      <point x="1033" y="122" type="curve" smooth="yes"/>
      <point x="964" y="30"/>
      <point x="861" y="-18"/>
    </contour>
    <contour>
      <point x="644" y="3346" type="curve" smooth="yes"/>
      <point x="-773" y="3346"/>
      <point x="-1456" y="2447"/>
      <point x="-1468" y="654" type="curve" smooth="yes"/>
      <point x="-1468" y="-214"/>
      <point x="-1154" y="-783"/>
      <point x="-527" y="-783" type="curve"/>
      <point x="-182" y="-1343"/>
      <point x="165" y="-1647"/>
      <point x="510" y="-1698" type="curve" smooth="yes"/>
      <point x="856" y="-1745"/>
      <point x="1235" y="-1557"/>
      <point x="1646" y="-1131" type="curve" smooth="yes"/>
      <point x="1988" y="-1131"/>
      <point x="2258" y="-906"/>
      <point x="2451" y="-628" type="curve" smooth="yes"/>
      <point x="2648" y="113"/>
      <point x="2666" y="832"/>
      <point x="2512" y="1516" type="curve" smooth="yes"/>
      <point x="2358" y="2699"/>
      <point x="1697" y="3346"/>
    </contour>
  </outline>
</glyph>
<glyph name="u" format="1">
  <advance width="1264"/>
  <unicode hex="0075"/>
  <outline>
    <contour>
      <point x="475" y="1010" type="line"/>
      <point x="475" y="349" type="line"/>
      <point x="475" y="301"/>
      <point x="518" y="240"/>
      <point x="617" y="240" type="curve" smooth="yes"/>
      <point x="740" y="240"/>
      <point x="787" y="330"/>
      <point x="787" y="559" type="curve" smooth="yes"/>
      <point x="787" y="1010" type="line"/>
      <point x="1124" y="1010" type="line"/>
      <point x="1124" y="0" type="line"/>
      <point x="856" y="0" type="line"/>
      <point x="816" y="123" type="line"/>
      <point x="802" y="123" type="line"/>
      <point x="747" y="41"/>
      <point x="634" y="-18"/>
      <point x="568" y="-18" type="curve" smooth="yes"/>
      <point x="276" y="-18"/>
      <point x="133" y="57"/>
      <point x="133" y="347" type="curve" smooth="yes"/>
      <point x="133" y="1010" type="line"/>
    </contour>
  </outline>
</glyph>
<glyph name="v" format="1">
  <advance width="1109"/>
  <unicode hex="0076"/>
  <outline>
    <contour>
      <point x="388" y="0" type="line"/>
      <point x="0" y="1017" type="line"/>
      <point x="350" y="1017" type="line"/>
      <point x="526" y="416" type="line"/>
      <point x="532" y="394"/>
      <point x="547" y="339"/>
      <point x="548" y="298" type="curve"/>
      <point x="554" y="298" type="line"/>
      <point x="555" y="330"/>
      <point x="562" y="366"/>
      <point x="575" y="408" type="curve" smooth="yes"/>
      <point x="578" y="416"/>
      <point x="750" y="990"/>
      <point x="760" y="1017" type="curve"/>
      <point x="1109" y="1017" type="line"/>
      <point x="722" y="0" type="line"/>
    </contour>
  </outline>
</glyph>
<glyph name="z" format="1">
  <advance width="928"/>
  <unicode hex="007A"/>
  <outline>
    <contour>
      <point x="880" y="0" type="line"/>
      <point x="46" y="0" type="line"/>
      <point x="46" y="193" type="line"/>
      <point x="478" y="761" type="line"/>
      <point x="71" y="761" type="line"/>
      <point x="71" y="1017" type="line"/>
      <point x="860" y="1017" type="line"/>
      <point x="860" y="808" type="line"/>
      <point x="446" y="257" type="line"/>
      <point x="880" y="257" type="line"/>
    </contour>
  </outline>
</glyph>
<glyph name="braceright.deva" format="1">
  <advance width="235"/>
  <unicode hex="007D"/>
  <outline>
    <contour>
      <point x="679" y="977" type="line"/>
      <point x="139" y="626"/>
      <point x="-285" y="717"/>
      <point x="-636" y="1164" type="curve" smooth="yes"/>
      <point x="-636" y="2210" type="line"/>
      <point x="-285" y="2601"/>
      <point x="-404" y="2630"/>
      <point x="-952" y="2171" type="curve"/>
      <point x="-952" y="1846" type="line"/>
      <point x="-509" y="1470"/>
      <point x="50" y="1175"/>
      <point x="809" y="940" type="curve" smooth="yes"/>
      <point x="1063" y="731"/>
      <point x="1192" y="196"/>
      <point x="1192" y="-174" type="curve" smooth="yes"/>
      <point x="562" y="-174"/>
      <point x="211" y="-994"/>
      <point x="211" y="-449" type="curve"/>
      <point x="211" y="-916"/>
      <point x="481" y="-172"/>
      <point x="1109" y="-185" type="curve"/>
      <point x="1109" y="179"/>
      <point x="921" y="-163"/>
      <point x="483" y="-154" type="curve"/>
      <point x="-101" y="-154"/>
      <point x="-415" y="-134"/>
      <point x="-415" y="-637" type="curve" smooth="yes"/>
      <point x="2" y="-631"/>
      <point x="211" y="-1535"/>
      <point x="211" y="-1163" type="curve"/>
      <point x="211" y="-1904"/>
      <point x="-300" y="-1418"/>
      <point x="-1218" y="-1430" type="curve"/>
      <point x="-1218" y="-1148"/>
      <point x="-1142" y="-429"/>
      <point x="-991" y="-293" type="curve"/>
      <point x="-307" y="-145"/>
      <point x="230" y="130"/>
      <point x="584" y="625" type="curve" smooth="yes"/>
      <point x="584" y="1452" type="line"/>
      <point x="72" y="1995"/>
      <point x="131" y="2090"/>
      <point x="679" y="1811" type="curve"/>
    </contour>
  </outline>
</glyph>
<glyph name="anusvaradeva" format="1">
  <advance width="0"/>
  <unicode hex="0902"/>
  <outline>
    <contour>
      <point x="-358" y="1690" type="curve" smooth="yes"/>
      <point x="-244" y="1690"/>
      <point x="-195" y="1613"/>
      <point x="-195" y="1546" type="curve" smooth="yes"/>
      <point x="-195" y="1478"/>
      <point x="-244" y="1399"/>
      <point x="-358" y="1399" type="curve" smooth="yes"/>
      <point x="-466" y="1399"/>
      <point x="-522" y="1474"/>
      <point x="-522" y="1546" type="curve" smooth="yes"/>
      <point x="-522" y="1614"/>
      <point x="-468" y="1690"/>
    </contour>
    <contour>
      <point x="49" y="8" type="move" name="x12"/>
    </contour>
    <contour>
      <point x="-424" y="1282" type="move" name="_mark0"/>
    </contour>
  </outline>
</glyph>
<glyph name="adeva" format="1">
  <advance width="1744"/>
  <unicode hex="0905"/>
  <outline>
    <contour>
      <point x="363" y="564" type="line"/>
      <point x="302" y="821" type="line"/>
      <point x="315" y="822" type="line"/>
      <point x="595" y="842"/>
      <point x="648" y="893"/>
      <point x="648" y="971" type="curve" smooth="yes"/>
      <point x="648" y="1016"/>
      <point x="615" y="1049"/>
      <point x="536" y="1049" type="curve" smooth="yes"/>
      <point x="450" y="1049"/>
      <point x="363" y="1022"/>
      <point x="242" y="962" type="curve"/>
      <point x="165" y="1223" type="line"/>
      <point x="289" y="1277"/>
      <point x="405" y="1302"/>
      <point x="549" y="1302" type="curve" smooth="yes"/>
      <point x="827" y="1302"/>
      <point x="960" y="1143"/>
      <point x="960" y="939" type="curve" smooth="yes"/>
      <point x="960" y="716"/>
      <point x="760" y="593"/>
      <point x="388" y="566" type="curve" smooth="yes"/>
    </contour>
    <contour>
      <point x="750" y="772" type="line"/>
      <point x="889" y="718"/>
      <point x="1014" y="587"/>
      <point x="1014" y="419" type="curve" smooth="yes"/>
      <point x="1014" y="229"/>
      <point x="869" y="77"/>
      <point x="616" y="77" type="curve" smooth="yes"/>
      <point x="454" y="77"/>
      <point x="316" y="122"/>
      <point x="122" y="231" type="curve"/>
      <point x="187" y="482" type="line"/>
      <point x="341" y="381"/>
      <point x="420" y="353"/>
      <point x="521" y="353" type="curve" smooth="yes"/>
      <point x="629" y="353"/>
      <point x="694" y="408"/>
      <point x="694" y="489" type="curve" smooth="yes"/>
      <point x="694" y="551"/>
      <point x="644" y="614"/>
      <point x="570" y="637" type="curve"/>
    </contour>
    <contour>
      <point x="781" y="700" type="line"/>
      <point x="816" y="676"/>
      <point x="971" y="664"/>
      <point x="1017" y="664" type="curve" smooth="yes"/>
      <point x="1089" y="664"/>
      <point x="1187" y="695"/>
      <point x="1252" y="756" type="curve"/>
      <point x="1252" y="435" type="line"/>
      <point x="1222" y="428"/>
      <point x="1153" y="417"/>
      <point x="1117" y="417" type="curve" smooth="yes"/>
      <point x="1063" y="417"/>
      <point x="878" y="431"/>
      <point x="836" y="457" type="curve"/>
    </contour>
    <contour>
      <point x="1208" y="1104" type="line"/>
      <point x="1556" y="1104" type="line"/>
      <point x="1556" y="0" type="line"/>
      <point x="1208" y="0" type="line"/>
    </contour>
    <contour>
      <point x="1769" y="1065" type="line"/>
      <point x="1041" y="1065" type="line"/>
      <point x="1041" y="1293" type="line"/>
      <point x="1769" y="1293" type="line"/>
    </contour>
  </outline>
</glyph>
<glyph name="ideva" format="1">
  <advance width="1149"/>
  <unicode hex="0907"/>
  <outline>
    <contour>
      <point x="557" y="142" type="line"/>
      <point x="868" y="-187" type="line"/>
      <point x="655" y="-320" type="line"/>
      <point x="309" y="59" type="line"/>
      <point x="443" y="-33" type="line"/>
      <point x="177" y="-33"/>
      <point x="80" y="83"/>
      <point x="80" y="167" type="curve" smooth="yes"/>
      <point x="80" y="244"/>
      <point x="147" y="317"/>
      <point x="248" y="317" type="curve" smooth="yes"/>
      <point x="339" y="317"/>
      <point x="423" y="277"/>
      <point x="530" y="170" type="curve"/>
    </contour>
    <contour>
      <point x="599" y="1086" type="line"/>
      <point x="947" y="1086" type="line"/>
      <point x="947" y="723" type="line"/>
      <point x="478" y="723" type="line"/>
      <point x="402" y="723"/>
      <point x="373" y="690"/>
      <point x="373" y="648" type="curve" smooth="yes"/>
      <point x="373" y="611"/>
      <point x="398" y="588"/>
      <point x="461" y="558" type="curve"/>
      <point x="347" y="574" type="line"/>
      <point x="442" y="608"/>
      <point x="553" y="631"/>
      <point x="688" y="631" type="curve" smooth="yes"/>
      <point x="897" y="631"/>
      <point x="1050" y="510"/>
      <point x="1050" y="332" type="curve" smooth="yes"/>
      <point x="1050" y="132"/>
      <point x="882" y="-21"/>
      <point x="508" y="-21" type="curve"/>
      <point x="457" y="218" type="line"/>
      <point x="675" y="218"/>
      <point x="742" y="275"/>
      <point x="742" y="326" type="curve" smooth="yes"/>
      <point x="742" y="367"/>
      <point x="704" y="388"/>
      <point x="640" y="388" type="curve" smooth="yes"/>
      <point x="579" y="388"/>
      <point x="490" y="368"/>
      <point x="412" y="335" type="curve"/>
      <point x="403" y="335" type="line"/>
      <point x="156" y="447"/>
      <point x="70" y="565"/>
      <point x="70" y="700" type="curve" smooth="yes"/>
      <point x="70" y="828"/>
      <point x="165" y="946"/>
      <point x="400" y="946" type="curve" smooth="yes"/>
      <point x="666" y="946" type="line"/>
      <point x="599" y="880" type="line"/>
    </contour>
    <contour>
      <point x="1179" y="1065" type="line"/>
      <point x="-30" y="1065" type="line"/>
      <point x="-30" y="1293" type="line"/>
      <point x="1179" y="1293" type="line"/>
    </contour>
  </outline>
</glyph>
<glyph name="udeva" format="1">
  <advance width="1143"/>
  <unicode hex="0909"/>
  <outline>
    <contour>
      <point x="339" y="541" type="line"/>
      <point x="280" y="818" type="line"/>
      <point x="306" y="820" type="line"/>
      <point x="568" y="838"/>
      <point x="624" y="895"/>
      <point x="624" y="972" type="curve" smooth="yes"/>
      <point x="624" y="1033"/>
      <point x="582" y="1073"/>
      <point x="477" y="1073" type="curve"/>
      <point x="537" y="1261" type="line"/>
      <point x="784" y="1261"/>
      <point x="943" y="1103"/>
      <point x="943" y="920" type="curve" smooth="yes"/>
      <point x="943" y="720"/>
      <point x="769" y="563"/>
      <point x="373" y="543" type="curve"/>
    </contour>
    <contour>
      <point x="717" y="735" type="line"/>
      <point x="903" y="672"/>
      <point x="1025" y="535"/>
      <point x="1025" y="365" type="curve" smooth="yes"/>
      <point x="1025" y="138"/>
      <point x="864" y="6"/>
      <point x="620" y="6" type="curve" smooth="yes"/>
      <point x="437" y="6"/>
      <point x="245" y="65"/>
      <point x="60" y="183" type="curve"/>
      <point x="128" y="442" type="line"/>
      <point x="291" y="332"/>
      <point x="426" y="289"/>
      <point x="513" y="289" type="curve" smooth="yes"/>
      <point x="621" y="289"/>
      <point x="689" y="346"/>
      <point x="689" y="425" type="curve" smooth="yes"/>
      <point x="689" y="492"/>
      <point x="624" y="570"/>
      <point x="511" y="575" type="curve"/>
    </contour>
    <contour>
      <point x="-58" y="1065" type="line"/>
      <point x="-58" y="1293" type="line"/>
      <point x="1187" y="1293" type="line"/>
      <point x="1187" y="1065" type="line"/>
    </contour>
    <contour>
      <point x="719" y="1282" type="move" name="mark0"/>
    </contour>
    <contour>
      <point x="-113" y="8" type="move" name="x36"/>
    </contour>
  </outline>
</glyph>
<glyph name="uudeva" format="1">
  <advance width="1565"/>
  <unicode hex="090A"/>
  <outline>
    <contour>
      <point x="897" y="313" type="curve"/>
      <point x="737" y="660" type="line"/>
      <point x="848" y="713"/>
      <point x="944" y="744"/>
      <point x="1109" y="744" type="curve" smooth="yes"/>
      <point x="1374" y="744"/>
      <point x="1555" y="568"/>
      <point x="1555" y="345" type="curve" smooth="yes"/>
      <point x="1555" y="206"/>
      <point x="1504" y="86"/>
      <point x="1415" y="-17" type="curve"/>
      <point x="1110" y="102" type="line"/>
      <point x="1189" y="206"/>
      <point x="1234" y="294"/>
      <point x="1234" y="379" type="curve" smooth="yes"/>
      <point x="1234" y="440"/>
      <point x="1191" y="467"/>
      <point x="1139" y="467" type="curve" smooth="yes"/>
      <point x="1060" y="467"/>
      <point x="977" y="417"/>
    </contour>
    <contour>
      <point x="1107" y="1065" type="line"/>
      <point x="1107" y="1293" type="line"/>
      <point x="1585" y="1293" type="line"/>
      <point x="1585" y="1065" type="line"/>
    </contour>
    <component base="udeva"/>
    <contour>
      <point x="880" y="1282" type="move" name="mark0"/>
    </contour>
    <contour>
      <point x="48" y="8" type="move" name="x53"/>
    </contour>
  </outline>
</glyph>
<glyph name="edeva" format="1">
  <advance width="1330"/>
  <unicode hex="090F"/>
  <outline>
    <contour>
      <point x="1151" y="1106" type="line"/>
      <point x="1151" y="735" type="line"/>
      <point x="1151" y="598"/>
      <point x="1114" y="509"/>
      <point x="1023" y="412" type="curve"/>
      <point x="750" y="546" type="line"/>
      <point x="788" y="630"/>
      <point x="802" y="694"/>
      <point x="802" y="809" type="curve" smooth="yes"/>
      <point x="802" y="1106" type="line"/>
    </contour>
    <contour>
      <point x="-6" y="1065" type="line"/>
      <point x="-6" y="1293" type="line"/>
      <point x="1362" y="1293" type="line"/>
      <point x="1362" y="1065" type="line"/>
    </contour>
    <contour>
      <point x="124" y="1106" type="line"/>
      <point x="472" y="1106" type="line"/>
      <point x="472" y="689" type="line"/>
      <point x="472" y="588"/>
      <point x="507" y="527"/>
      <point x="598" y="469" type="curve" smooth="yes"/>
      <point x="983" y="224" type="line"/>
      <point x="1112" y="142"/>
      <point x="1145" y="72"/>
      <point x="1145" y="-1" type="curve" smooth="yes"/>
      <point x="1145" y="-83"/>
      <point x="1135" y="-129"/>
      <point x="1097" y="-211" type="curve"/>
      <point x="730" y="-133" type="line"/>
      <point x="747" y="-100"/>
      <point x="763" y="-73"/>
      <point x="763" y="-36" type="curve" smooth="yes"/>
      <point x="763" y="-5"/>
      <point x="740" y="30"/>
      <point x="698" y="58" type="curve" smooth="yes"/>
      <point x="310" y="327" type="line"/>
      <point x="183" y="415"/>
      <point x="124" y="533"/>
      <point x="124" y="684" type="curve" smooth="yes"/>
    </contour>
    <contour>
      <point x="-37" y="8" type="move" name="x44"/>
    </contour>
    <contour>
      <point x="860" y="1282" type="move" name="mark0"/>
    </contour>
  </outline>
</glyph>
<glyph name="kadeva" format="1">
  <advance width="1732"/>
  <unicode hex="0915"/>
  <outline>
    <contour>
      <point x="961" y="354" type="curve"/>
      <point x="953" y="824" type="line"/>
      <point x="996" y="833"/>
      <point x="1073" y="843"/>
      <point x="1150" y="843" type="curve" smooth="yes"/>
      <point x="1424" y="843"/>
      <point x="1622" y="684"/>
      <point x="1622" y="445" type="curve" smooth="yes"/>
      <point x="1622" y="325"/>
      <point x="1574" y="205"/>
      <point x="1499" y="108" type="curve"/>
      <point x="1202" y="211" type="line"/>
      <point x="1267" y="305"/>
      <point x="1304" y="386"/>
      <point x="1304" y="466" type="curve" smooth="yes"/>
      <point x="1304" y="525"/>
      <point x="1266" y="564"/>
      <point x="1200" y="564" type="curve" smooth="yes"/>
      <point x="1122" y="564"/>
      <point x="1042" y="497"/>
    </contour>
    <contour>
      <point x="-30" y="1065" type="line"/>
      <point x="-30" y="1293" type="line"/>
      <point x="1762" y="1293" type="line"/>
      <point x="1762" y="1065" type="line"/>
    </contour>
    <contour>
      <point x="705" y="613" type="curve"/>
      <point x="705" y="247" type="line"/>
      <point x="638" y="212"/>
      <point x="574" y="194"/>
      <point x="487" y="194" type="curve" smooth="yes"/>
      <point x="229" y="194"/>
      <point x="51" y="384"/>
      <point x="51" y="596" type="curve" smooth="yes"/>
      <point x="51" y="782"/>
      <point x="178" y="925"/>
      <point x="410" y="928" type="curve" smooth="yes"/>
      <point x="539" y="930"/>
      <point x="630" y="907"/>
      <point x="724" y="864" type="curve"/>
      <point x="724" y="626" type="line"/>
      <point x="640" y="666"/>
      <point x="586" y="680"/>
      <point x="494" y="680" type="curve" smooth="yes"/>
      <point x="398" y="680"/>
      <point x="343" y="626"/>
      <point x="343" y="556" type="curve" smooth="yes"/>
      <point x="343" y="488"/>
      <point x="389" y="451"/>
      <point x="466" y="451" type="curve" smooth="yes"/>
      <point x="545" y="451"/>
      <point x="639" y="503"/>
    </contour>
    <contour>
      <point x="683" y="1104" type="line"/>
      <point x="1031" y="1104" type="line"/>
      <point x="1031" y="0" type="line"/>
      <point x="683" y="0" type="line"/>
    </contour>
    <contour>
      <point x="683" y="0" type="move" name="btm"/>
    </contour>
    <contour>
      <point x="683" y="1293" type="move" name="top"/>
    </contour>
  </outline>
</glyph>
<glyph name="khadeva" format="1">
  <advance width="1885"/>
  <unicode hex="0916"/>
  <outline>
    <contour>
      <point x="1390" y="685" type="curve"/>
      <point x="1390" y="344" type="line"/>
      <point x="1320" y="313"/>
      <point x="1272" y="296"/>
      <point x="1185" y="296" type="curve" smooth="yes"/>
      <point x="969" y="296"/>
      <point x="757" y="449"/>
      <point x="757" y="658" type="curve" smooth="yes"/>
      <point x="757" y="823"/>
      <point x="878" y="955"/>
      <point x="1105" y="955" type="curve" smooth="yes"/>
      <point x="1231" y="955"/>
      <point x="1310" y="929"/>
      <point x="1392" y="891" type="curve"/>
      <point x="1392" y="664" type="line"/>
      <point x="1323" y="708"/>
      <point x="1243" y="726"/>
      <point x="1167" y="726" type="curve" smooth="yes"/>
      <point x="1074" y="726"/>
      <point x="1037" y="670"/>
      <point x="1037" y="614" type="curve" smooth="yes"/>
      <point x="1037" y="566"/>
      <point x="1071" y="532"/>
      <point x="1128" y="532" type="curve" smooth="yes"/>
      <point x="1232" y="532"/>
      <point x="1324" y="577"/>
    </contour>
    <contour>
      <point x="279" y="723" type="line"/>
      <point x="415" y="763"/>
      <point x="447" y="836"/>
      <point x="447" y="950" type="curve" smooth="yes"/>
      <point x="447" y="1151" type="line"/>
      <point x="796" y="1151" type="line"/>
      <point x="796" y="933" type="line"/>
      <point x="796" y="723"/>
      <point x="744" y="539"/>
      <point x="485" y="415" type="curve"/>
    </contour>
    <contour>
      <point x="-27" y="1065" type="line"/>
      <point x="-27" y="1293" type="line"/>
      <point x="1910" y="1293" type="line"/>
      <point x="1910" y="1065" type="line"/>
    </contour>
    <contour>
      <point x="410" y="642" type="line"/>
      <point x="562" y="336"/>
      <point x="819" y="189"/>
      <point x="1102" y="189" type="curve" smooth="yes"/>
      <point x="1271" y="189"/>
      <point x="1372" y="224"/>
      <point x="1531" y="330" type="curve"/>
      <point x="1632" y="100" type="line"/>
      <point x="1468" y="27"/>
      <point x="1291" y="-25"/>
      <point x="1071" y="-25" type="curve" smooth="yes"/>
      <point x="808" y="-25"/>
      <point x="536" y="54"/>
      <point x="320" y="270" type="curve" smooth="yes"/>
      <point x="150" y="439"/>
      <point x="47" y="610"/>
      <point x="47" y="708" type="curve" smooth="yes"/>
      <point x="47" y="790"/>
      <point x="108" y="851"/>
      <point x="200" y="851" type="curve" smooth="yes"/>
      <point x="277" y="851"/>
      <point x="335" y="813"/>
      <point x="407" y="727" type="curve" smooth="yes"/>
      <point x="451" y="673" type="line"/>
    </contour>
    <contour>
      <point x="1348" y="1104" type="line"/>
      <point x="1696" y="1104" type="line"/>
      <point x="1696" y="0" type="line"/>
      <point x="1348" y="0" type="line"/>
    </contour>
  </outline>
</glyph>
<glyph name="gadeva" format="1">
  <advance width="1497"/>
  <unicode hex="0917"/>
  <outline>
    <contour>
      <point x="642" y="1096" type="line"/>
      <point x="642" y="416" type="line"/>
      <point x="642" y="314"/>
      <point x="604" y="256"/>
      <point x="507" y="256" type="curve" smooth="yes"/>
      <point x="298" y="256"/>
      <point x="68" y="474"/>
      <point x="68" y="605" type="curve" smooth="yes"/>
      <point x="68" y="668"/>
      <point x="106" y="715"/>
      <point x="195" y="715" type="curve" smooth="yes"/>
      <point x="340" y="715" type="line"/>
      <point x="294" y="673" type="line"/>
      <point x="294" y="1096" type="line"/>
    </contour>
    <contour>
      <point x="960" y="1104" type="line"/>
      <point x="1308" y="1104" type="line"/>
      <point x="1308" y="0" type="line"/>
      <point x="960" y="0" type="line"/>
    </contour>
    <contour>
      <point x="1527" y="1065" type="line"/>
      <point x="-30" y="1065" type="line"/>
      <point x="-30" y="1293" type="line"/>
      <point x="1527" y="1293" type="line"/>
    </contour>
    <contour>
      <point x="960" y="1293" type="move" name="top"/>
    </contour>
  </outline>
</glyph>
<glyph name="ghadeva" format="1">
  <advance width="1499"/>
  <unicode hex="0918"/>
  <outline>
    <contour>
      <point x="378" y="691" type="line"/>
      <point x="173" y="751"/>
      <point x="64" y="886"/>
      <point x="64" y="1024" type="curve" smooth="yes"/>
      <point x="64" y="1095"/>
      <point x="83" y="1161"/>
      <point x="138" y="1211" type="curve"/>
      <point x="473" y="1127" type="line"/>
      <point x="433" y="1086"/>
      <point x="419" y="1049"/>
      <point x="419" y="999" type="curve" smooth="yes"/>
      <point x="419" y="935"/>
      <point x="462" y="876"/>
      <point x="625" y="877" type="curve"/>
    </contour>
    <contour>
      <point x="-66" y="1065" type="line"/>
      <point x="-66" y="1293" type="line"/>
      <point x="1525" y="1293" type="line"/>
      <point x="1525" y="1065" type="line"/>
    </contour>
    <contour>
      <point x="1033" y="662" type="curve"/>
      <point x="1036" y="191" type="line"/>
      <point x="950" y="154"/>
      <point x="849" y="134"/>
      <point x="733" y="134" type="curve" smooth="yes"/>
      <point x="451" y="134"/>
      <point x="281" y="338"/>
      <point x="281" y="540" type="curve" smooth="yes"/>
      <point x="281" y="715"/>
      <point x="406" y="910"/>
      <point x="732" y="910" type="curve" smooth="yes"/>
      <point x="739" y="910" type="line"/>
      <point x="826" y="637" type="line"/>
      <point x="814" y="636" type="line"/>
      <point x="653" y="623"/>
      <point x="596" y="562"/>
      <point x="596" y="502" type="curve" smooth="yes"/>
      <point x="596" y="450"/>
      <point x="638" y="412"/>
      <point x="708" y="414" type="curve" smooth="yes"/>
      <point x="843" y="417"/>
      <point x="978" y="533"/>
    </contour>
    <contour>
      <point x="962" y="1104" type="line"/>
      <point x="1311" y="1104" type="line"/>
      <point x="1311" y="0" type="line"/>
      <point x="962" y="0" type="line"/>
    </contour>
  </outline>
</glyph>
<glyph name="ngadeva" format="1">
  <advance width="1284"/>
  <unicode hex="0919"/>
  <outline>
    <contour>
      <point x="1178" y="1065" type="line"/>
      <point x="1178" y="1293" type="line"/>
      <point x="1314" y="1293" type="line"/>
      <point x="1314" y="1065" type="line"/>
    </contour>
    <contour>
      <point x="1251" y="812" type="curve" smooth="yes"/>
      <point x="1383" y="812"/>
      <point x="1426" y="732"/>
      <point x="1426" y="668" type="curve" smooth="yes"/>
      <point x="1426" y="604"/>
      <point x="1375" y="524"/>
      <point x="1251" y="524" type="curve" smooth="yes"/>
      <point x="1117" y="524"/>
      <point x="1072" y="605"/>
      <point x="1072" y="668" type="curve" smooth="yes"/>
      <point x="1072" y="731"/>
      <point x="1121" y="812"/>
    </contour>
    <component base="ddadeva"/>
    <contour>
      <point x="511" y="-14" type="move" name="btm"/>
    </contour>
    <contour>
      <point x="691" y="1293" type="move" name="top"/>
    </contour>
  </outline>
</glyph>
<glyph name="cadeva" format="1">
  <advance width="1433"/>
  <unicode hex="091A"/>
  <outline>
    <contour>
      <point x="23" y="633" type="line"/>
      <point x="23" y="896" type="line"/>
      <point x="774" y="896" type="line"/>
      <point x="774" y="633" type="line"/>
    </contour>
    <contour>
      <point x="941" y="645" type="curve"/>
      <point x="941" y="174" type="line"/>
      <point x="866" y="146"/>
      <point x="802" y="133"/>
      <point x="704" y="133" type="curve" smooth="yes"/>
      <point x="415" y="133"/>
      <point x="228" y="300"/>
      <point x="228" y="524" type="curve" smooth="yes"/>
      <point x="228" y="723"/>
      <point x="359" y="884"/>
      <point x="682" y="884" type="curve"/>
      <point x="713" y="636" type="line"/>
      <point x="600" y="638"/>
      <point x="547" y="556"/>
      <point x="547" y="495" type="curve" smooth="yes"/>
      <point x="547" y="440"/>
      <point x="595" y="403"/>
      <point x="652" y="403" type="curve" smooth="yes"/>
      <point x="754" y="403"/>
      <point x="897" y="473"/>
    </contour>
    <contour>
      <point x="-21" y="1065" type="line"/>
      <point x="-21" y="1293" type="line"/>
      <point x="1459" y="1293" type="line"/>
      <point x="1459" y="1065" type="line"/>
    </contour>
    <contour>
      <point x="897" y="1104" type="line"/>
      <point x="1245" y="1104" type="line"/>
      <point x="1245" y="0" type="line"/>
      <point x="897" y="0" type="line"/>
    </contour>
  </outline>
</glyph>
<glyph name="chadeva" format="1">
  <advance width="1628"/>
  <unicode hex="091B"/>
  <outline>
    <contour>
      <point x="684" y="806" type="curve"/>
      <point x="772" y="536" type="line"/>
      <point x="771" y="536"/>
      <point x="768" y="536"/>
      <point x="767" y="536" type="curve" smooth="yes"/>
      <point x="598" y="521"/>
      <point x="544" y="455"/>
      <point x="544" y="389" type="curve" smooth="yes"/>
      <point x="544" y="315"/>
      <point x="609" y="255"/>
      <point x="743" y="255" type="curve" smooth="yes"/>
      <point x="997" y="255"/>
      <point x="1263" y="480"/>
      <point x="1263" y="664" type="curve" smooth="yes"/>
      <point x="1263" y="729"/>
      <point x="1225" y="767"/>
      <point x="1177" y="767" type="curve" smooth="yes"/>
      <point x="1129" y="767"/>
      <point x="1094" y="728"/>
      <point x="1094" y="667" type="curve" smooth="yes"/>
      <point x="1094" y="581"/>
      <point x="1143" y="502"/>
      <point x="1325" y="360" type="curve"/>
      <point x="1164" y="218" type="line"/>
      <point x="898" y="405"/>
      <point x="809" y="548"/>
      <point x="809" y="731" type="curve" smooth="yes"/>
      <point x="809" y="858"/>
      <point x="904" y="1004"/>
      <point x="1139" y="1004" type="curve" smooth="yes"/>
      <point x="1389" y="1004"/>
      <point x="1548" y="846"/>
      <point x="1548" y="620" type="curve" smooth="yes"/>
      <point x="1548" y="349"/>
      <point x="1238" y="-2"/>
      <point x="749" y="-2" type="curve" smooth="yes"/>
      <point x="392" y="-2"/>
      <point x="197" y="212"/>
      <point x="197" y="437" type="curve" smooth="yes"/>
      <point x="197" y="633"/>
      <point x="353" y="799"/>
      <point x="679" y="806" type="curve" smooth="yes"/>
      <point x="681" y="806"/>
      <point x="682" y="806"/>
    </contour>
    <contour>
      <point x="603" y="765" type="curve"/>
      <point x="381" y="590" type="line"/>
      <point x="148" y="663"/>
      <point x="62" y="791"/>
      <point x="62" y="956" type="curve" smooth="yes"/>
      <point x="62" y="1094"/>
      <point x="206" y="1259"/>
      <point x="516" y="1264" type="curve"/>
      <point x="615" y="1085" type="line"/>
      <point x="471" y="1074"/>
      <point x="406" y="992"/>
      <point x="406" y="920" type="curve" smooth="yes"/>
      <point x="406" y="844"/>
      <point x="457" y="789"/>
    </contour>
    <contour>
      <point x="1652" y="1065" type="line"/>
      <point x="-57" y="1065" type="line"/>
      <point x="-57" y="1293" type="line"/>
      <point x="1652" y="1293" type="line"/>
    </contour>
    <contour>
      <point x="981" y="1105" type="line"/>
      <point x="1329" y="1105" type="line"/>
      <point x="1329" y="876" type="line"/>
      <point x="981" y="876" type="line"/>
    </contour>
    <contour>
      <point x="881" y="8" type="move" name="mark0"/>
    </contour>
    <contour>
      <point x="-21" y="8" type="move" name="x65"/>
    </contour>
    <contour>
      <point x="1656" y="8" type="move" name="x66"/>
    </contour>
  </outline>
</glyph>
<glyph name="jadeva" format="1">
  <advance width="1607"/>
  <unicode hex="091C"/>
  <outline>
    <contour>
      <point x="-65" y="1065" type="line"/>
      <point x="-65" y="1293" type="line"/>
      <point x="1631" y="1293" type="line"/>
      <point x="1631" y="1065" type="line"/>
    </contour>
    <contour>
      <point x="697" y="632" type="line"/>
      <point x="741" y="698" type="line"/>
      <point x="848" y="618"/>
      <point x="912" y="512"/>
      <point x="912" y="387" type="curve" smooth="yes"/>
      <point x="912" y="195"/>
      <point x="785" y="59"/>
      <point x="571" y="59" type="curve" smooth="yes"/>
      <point x="376" y="59"/>
      <point x="180" y="172"/>
      <point x="-22" y="421" type="curve"/>
      <point x="138" y="656" type="line"/>
      <point x="335" y="424"/>
      <point x="414" y="367"/>
      <point x="491" y="367" type="curve" smooth="yes"/>
      <point x="556" y="367"/>
      <point x="600" y="409"/>
      <point x="600" y="468" type="curve" smooth="yes"/>
      <point x="600" y="535"/>
      <point x="538" y="628"/>
      <point x="363" y="666" type="curve"/>
      <point x="363" y="906" type="line"/>
      <point x="1121" y="906" type="line"/>
      <point x="1121" y="632" type="line"/>
    </contour>
    <contour>
      <point x="1070" y="1104" type="line"/>
      <point x="1419" y="1104" type="line"/>
      <point x="1419" y="0" type="line"/>
      <point x="1070" y="0" type="line"/>
    </contour>
  </outline>
</glyph>
<glyph name="jhadeva" format="1">
  <advance width="1770"/>
  <unicode hex="091D"/>
  <outline>
    <contour>
      <point x="1280" y="292" type="line"/>
      <point x="1254" y="286"/>
      <point x="1194" y="280"/>
      <point x="1150" y="280" type="curve" smooth="yes"/>
      <point x="1067" y="283"/>
      <point x="969" y="295"/>
      <point x="931" y="302" type="curve"/>
      <point x="931" y="372"/>
      <point x="923" y="438"/>
      <point x="923" y="555" type="curve"/>
      <point x="957" y="541"/>
      <point x="999" y="533"/>
      <point x="1044" y="533" type="curve" smooth="yes"/>
      <point x="1117" y="533"/>
      <point x="1213" y="565"/>
      <point x="1280" y="627" type="curve"/>
    </contour>
    <contour>
      <point x="1233" y="1104" type="line"/>
      <point x="1581" y="1104" type="line"/>
      <point x="1581" y="0" type="line"/>
      <point x="1233" y="0" type="line"/>
    </contour>
    <contour>
      <point x="1794" y="1065" type="line"/>
      <point x="1066" y="1065" type="line"/>
      <point x="1066" y="1293" type="line"/>
      <point x="1794" y="1293" type="line"/>
    </contour>
    <component base="ideva"/>
  </outline>
</glyph>
<glyph name="nyadeva" format="1">
  <advance width="1679"/>
  <unicode hex="091E"/>
  <outline>
    <contour>
      <point x="850" y="418" type="curve"/>
      <point x="850" y="689" type="line"/>
      <point x="884" y="678"/>
      <point x="964" y="673"/>
      <point x="1009" y="673" type="curve" smooth="yes"/>
      <point x="1080" y="673"/>
      <point x="1138" y="688"/>
      <point x="1222" y="729" type="curve"/>
      <point x="1222" y="413" type="line"/>
      <point x="1194" y="405"/>
      <point x="1136" y="393"/>
      <point x="1082" y="393" type="curve" smooth="yes"/>
      <point x="1011" y="393"/>
      <point x="902" y="406"/>
    </contour>
    <contour>
      <point x="964" y="514" type="curve" smooth="yes"/>
      <point x="964" y="248"/>
      <point x="785" y="96"/>
      <point x="555" y="96" type="curve" smooth="yes"/>
      <point x="343" y="96"/>
      <point x="171" y="187"/>
      <point x="-33" y="365" type="curve"/>
      <point x="65" y="602" type="line"/>
      <point x="245" y="443"/>
      <point x="374" y="389"/>
      <point x="478" y="389" type="curve" smooth="yes"/>
      <point x="598" y="389"/>
      <point x="664" y="451"/>
      <point x="663" y="536" type="curve" smooth="yes"/>
      <point x="662" y="615"/>
      <point x="594" y="673"/>
      <point x="496" y="673" type="curve" smooth="yes"/>
      <point x="430" y="673"/>
      <point x="354" y="646"/>
      <point x="286" y="604" type="curve"/>
      <point x="170" y="847" type="line"/>
      <point x="242" y="900"/>
      <point x="360" y="947"/>
      <point x="478" y="947" type="curve" smooth="yes"/>
      <point x="726" y="947"/>
      <point x="964" y="778"/>
    </contour>
    <contour>
      <point x="-51" y="1065" type="line"/>
      <point x="-51" y="1293" type="line"/>
      <point x="1705" y="1293" type="line"/>
      <point x="1705" y="1065" type="line"/>
    </contour>
    <contour>
      <point x="1142" y="1104" type="line"/>
      <point x="1491" y="1104" type="line"/>
      <point x="1491" y="0" type="line"/>
      <point x="1142" y="0" type="line"/>
    </contour>
  </outline>
</glyph>
<glyph name="ttadeva" format="1">
  <advance width="1189"/>
  <unicode hex="091F"/>
  <outline>
    <contour>
      <point x="656" y="1102" type="line"/>
      <point x="986" y="1102" type="line"/>
      <point x="986" y="654" type="line"/>
      <point x="693" y="654" type="line"/>
      <point x="497" y="654"/>
      <point x="429" y="565"/>
      <point x="429" y="471" type="curve" smooth="yes"/>
      <point x="429" y="370"/>
      <point x="536" y="297"/>
      <point x="654" y="297" type="curve" smooth="yes"/>
      <point x="773" y="297"/>
      <point x="873" y="320"/>
      <point x="1041" y="379" type="curve"/>
      <point x="1104" y="93" type="line"/>
      <point x="940" y="48"/>
      <point x="842" y="36"/>
      <point x="694" y="36" type="curve" smooth="yes"/>
      <point x="326" y="36"/>
      <point x="86" y="257"/>
      <point x="86" y="512" type="curve" smooth="yes"/>
      <point x="86" y="721"/>
      <point x="232" y="894"/>
      <point x="584" y="894" type="curve" smooth="yes"/>
      <point x="696" y="894" type="line"/>
      <point x="656" y="854" type="line"/>
    </contour>
    <contour>
      <point x="1211" y="1065" type="line"/>
      <point x="-43" y="1065" type="line"/>
      <point x="-43" y="1293" type="line"/>
      <point x="1211" y="1293" type="line"/>
    </contour>
    <contour>
      <point x="570" y="8" type="move" name="mark0"/>
    </contour>
    <contour>
      <point x="1145" y="8" type="move" name="x29"/>
    </contour>
    <contour>
      <point x="-47" y="8" type="move" name="x28"/>
    </contour>
  </outline>
</glyph>
<glyph name="tthadeva" format="1">
  <advance width="1326"/>
  <unicode hex="0920"/>
  <outline>
    <contour>
      <point x="934" y="485" type="curve" smooth="yes"/>
      <point x="934" y="548"/>
      <point x="905" y="601"/>
      <point x="850" y="648" type="curve"/>
      <point x="677" y="648" type="line"/>
      <point x="462" y="648"/>
      <point x="392" y="557"/>
      <point x="392" y="461" type="curve" smooth="yes"/>
      <point x="392" y="349"/>
      <point x="491" y="271"/>
      <point x="643" y="271" type="curve" smooth="yes"/>
      <point x="837" y="271"/>
      <point x="934" y="365"/>
    </contour>
    <contour>
      <point x="1347" y="1065" type="line"/>
      <point x="-14" y="1065" type="line"/>
      <point x="-14" y="1293" type="line"/>
      <point x="1347" y="1293" type="line"/>
    </contour>
    <contour>
      <point x="615" y="1086" type="line"/>
      <point x="945" y="1086" type="line"/>
      <point x="945" y="824" type="line"/>
      <point x="910" y="879" type="line"/>
      <point x="1131" y="790"/>
      <point x="1258" y="627"/>
      <point x="1258" y="435" type="curve" smooth="yes"/>
      <point x="1258" y="218"/>
      <point x="1068" y="23"/>
      <point x="713" y="22" type="curve" smooth="yes"/>
      <point x="287" y="21"/>
      <point x="60" y="261"/>
      <point x="60" y="509" type="curve" smooth="yes"/>
      <point x="60" y="740"/>
      <point x="238" y="893"/>
      <point x="533" y="893" type="curve" smooth="yes"/>
      <point x="658" y="893" type="line"/>
      <point x="615" y="852" type="line"/>
    </contour>
    <contour>
      <point x="569" y="8" type="move" name="mark0"/>
    </contour>
    <contour>
      <point x="-49" y="8" type="move" name="x34"/>
    </contour>
    <contour>
      <point x="1315" y="8" type="move" name="x35"/>
    </contour>
  </outline>
</glyph>
<glyph name="ddhadeva" format="1">
  <advance width="1306"/>
  <unicode hex="0922"/>
  <outline>
    <contour>
      <point x="1336" y="1065" type="line"/>
      <point x="-30" y="1065" type="line"/>
      <point x="-30" y="1293" type="line"/>
      <point x="1336" y="1293" type="line"/>
    </contour>
    <contour>
      <point x="742" y="1095" type="line"/>
      <point x="1089" y="1095" type="line"/>
      <point x="1089" y="666" type="line"/>
      <point x="693" y="666" type="line"/>
      <point x="447" y="666"/>
      <point x="382" y="557"/>
      <point x="382" y="427" type="curve" smooth="yes"/>
      <point x="382" y="297"/>
      <point x="532" y="191"/>
      <point x="747" y="191" type="curve" smooth="yes"/>
      <point x="901" y="191"/>
      <point x="970" y="249"/>
      <point x="970" y="315" type="curve" smooth="yes"/>
      <point x="970" y="354"/>
      <point x="936" y="381"/>
      <point x="874" y="381" type="curve" smooth="yes"/>
      <point x="796" y="381"/>
      <point x="744" y="322"/>
      <point x="744" y="248" type="curve" smooth="yes"/>
      <point x="744" y="203"/>
      <point x="755" y="160"/>
      <point x="779" y="114" type="curve"/>
      <point x="533" y="86" type="line"/>
      <point x="492" y="150"/>
      <point x="479" y="209"/>
      <point x="479" y="280" type="curve" smooth="yes"/>
      <point x="479" y="435"/>
      <point x="610" y="574"/>
      <point x="867" y="574" type="curve" smooth="yes"/>
      <point x="1090" y="574"/>
      <point x="1224" y="449"/>
      <point x="1224" y="303" type="curve" smooth="yes"/>
      <point x="1224" y="117"/>
      <point x="1072" y="-4"/>
      <point x="750" y="-4" type="curve" smooth="yes"/>
      <point x="315" y="-4"/>
      <point x="67" y="239"/>
      <point x="67" y="496" type="curve" smooth="yes"/>
      <point x="67" y="714"/>
      <point x="199" y="908"/>
      <point x="585" y="908" type="curve" smooth="yes"/>
      <point x="783" y="908" type="line"/>
      <point x="742" y="874" type="line"/>
    </contour>
    <contour>
      <point x="553" y="15" type="move" name="btm"/>
    </contour>
    <contour>
      <point x="705" y="1293" type="move" name="top"/>
    </contour>
  </outline>
</glyph>
<glyph name="nnadeva" format="1">
  <advance width="1827"/>
  <unicode hex="0923"/>
  <outline>
    <contour>
      <point x="730" y="1086" type="line"/>
      <point x="1078" y="1086" type="line"/>
      <point x="1078" y="716" type="line"/>
      <point x="1078" y="444"/>
      <point x="948" y="265"/>
      <point x="631" y="265" type="curve" smooth="yes"/>
      <point x="308" y="265"/>
      <point x="131" y="466"/>
      <point x="131" y="728" type="curve" smooth="yes"/>
      <point x="131" y="1086" type="line"/>
      <point x="479" y="1086" type="line"/>
      <point x="479" y="652" type="line"/>
      <point x="479" y="563"/>
      <point x="522" y="515"/>
      <point x="591" y="515" type="curve" smooth="yes"/>
      <point x="679" y="515"/>
      <point x="730" y="587"/>
      <point x="730" y="703" type="curve" smooth="yes"/>
    </contour>
    <contour>
      <point x="-52" y="1065" type="line"/>
      <point x="-52" y="1293" type="line"/>
      <point x="1851" y="1293" type="line"/>
      <point x="1851" y="1065" type="line"/>
    </contour>
    <contour>
      <point x="1291" y="1104" type="line"/>
      <point x="1639" y="1104" type="line"/>
      <point x="1639" y="0" type="line"/>
      <point x="1291" y="0" type="line"/>
    </contour>
  </outline>
</glyph>
<glyph name="dadeva" format="1">
  <advance width="1248"/>
  <unicode hex="0926"/>
  <outline>
    <contour>
      <point x="-30" y="1065" type="line"/>
      <point x="-30" y="1293" type="line"/>
      <point x="1278" y="1293" type="line"/>
      <point x="1278" y="1065" type="line"/>
    </contour>
    <contour>
      <point x="675" y="166" type="line"/>
      <point x="939" y="247" type="line"/>
      <point x="1170" y="-188" type="line"/>
      <point x="918" y="-294" type="line"/>
    </contour>
    <contour>
      <point x="669" y="51" type="curve" smooth="yes"/>
      <point x="316" y="51"/>
      <point x="68" y="240"/>
      <point x="68" y="511" type="curve" smooth="yes"/>
      <point x="68" y="737"/>
      <point x="221" y="908"/>
      <point x="577" y="908" type="curve" smooth="yes"/>
      <point x="771" y="908" type="line"/>
      <point x="701" y="852" type="line"/>
      <point x="701" y="1096" type="line"/>
      <point x="1050" y="1096" type="line"/>
      <point x="1050" y="665" type="line"/>
      <point x="672" y="665" type="line"/>
      <point x="472" y="665"/>
      <point x="389" y="587"/>
      <point x="389" y="470" type="curve" smooth="yes"/>
      <point x="389" y="365"/>
      <point x="483" y="292"/>
      <point x="607" y="292" type="curve" smooth="yes"/>
      <point x="700" y="292"/>
      <point x="755" y="296"/>
      <point x="862" y="319" type="curve"/>
      <point x="657" y="204" type="line"/>
      <point x="628" y="259"/>
      <point x="615" y="313"/>
      <point x="615" y="369" type="curve" smooth="yes"/>
      <point x="615" y="435"/>
      <point x="656" y="510"/>
      <point x="802" y="510" type="curve" smooth="yes"/>
      <point x="999" y="510"/>
      <point x="1150" y="411"/>
      <point x="1150" y="291" type="curve" smooth="yes"/>
      <point x="1150" y="169"/>
      <point x="988" y="51"/>
    </contour>
    <contour>
      <point x="864" y="-191" type="move" name="btm"/>
    </contour>
    <contour>
      <point x="652" y="1293" type="move" name="top"/>
    </contour>
  </outline>
</glyph>
<glyph name="dhadeva" format="1">
  <advance width="1486"/>
  <unicode hex="0927"/>
  <outline>
    <contour>
      <point x="801" y="637" type="line"/>
      <point x="790" y="636" type="line"/>
      <point x="628" y="623"/>
      <point x="571" y="561"/>
      <point x="571" y="502" type="curve" smooth="yes"/>
      <point x="571" y="451"/>
      <point x="620" y="412"/>
      <point x="691" y="414" type="curve" smooth="yes"/>
      <point x="834" y="417"/>
      <point x="977" y="533"/>
      <point x="1023" y="662" type="curve"/>
      <point x="1023" y="195" type="line"/>
      <point x="938" y="156"/>
      <point x="842" y="134"/>
      <point x="724" y="134" type="curve" smooth="yes"/>
      <point x="430" y="134"/>
      <point x="256" y="324"/>
      <point x="256" y="540" type="curve" smooth="yes"/>
      <point x="256" y="715"/>
      <point x="381" y="910"/>
      <point x="707" y="910" type="curve" smooth="yes"/>
      <point x="714" y="910" type="line"/>
    </contour>
    <contour>
      <point x="332" y="680" type="line"/>
      <point x="116" y="742"/>
      <point x="-4" y="878"/>
      <point x="-4" y="1048" type="curve" smooth="yes"/>
      <point x="-4" y="1207"/>
      <point x="134" y="1342"/>
      <point x="398" y="1342" type="curve" smooth="yes"/>
      <point x="498" y="1342"/>
      <point x="564" y="1332"/>
      <point x="624" y="1315" type="curve"/>
      <point x="605" y="1107" type="line"/>
      <point x="561" y="1115"/>
      <point x="535" y="1119"/>
      <point x="485" y="1119" type="curve" smooth="yes"/>
      <point x="400" y="1119"/>
      <point x="345" y="1067"/>
      <point x="345" y="1007" type="curve" smooth="yes"/>
      <point x="345" y="931"/>
      <point x="418" y="858"/>
      <point x="575" y="857" type="curve"/>
    </contour>
    <contour>
      <point x="950" y="1103" type="line"/>
      <point x="1298" y="1103" type="line"/>
      <point x="1298" y="0" type="line"/>
      <point x="950" y="0" type="line"/>
    </contour>
    <contour>
      <point x="1516" y="1065" type="line"/>
      <point x="875" y="1065" type="line"/>
      <point x="875" y="1293" type="line"/>
      <point x="1516" y="1293" type="line"/>
    </contour>
    <contour>
      <point x="950" y="1293" type="move" name="top"/>
    </contour>
  </outline>
</glyph>
<glyph name="nadeva" format="1">
  <advance width="1316"/>
  <unicode hex="0928"/>
  <outline>
    <contour>
      <point x="816" y="849" type="line"/>
      <point x="816" y="566" type="line"/>
      <point x="439" y="566" type="line"/>
      <point x="489" y="617" type="line"/>
      <point x="489" y="381" type="line"/>
      <point x="489" y="292"/>
      <point x="447" y="238"/>
      <point x="365" y="238" type="curve" smooth="yes"/>
      <point x="244" y="238"/>
      <point x="60" y="473"/>
      <point x="60" y="676" type="curve" smooth="yes"/>
      <point x="60" y="788"/>
      <point x="117" y="849"/>
      <point x="252" y="849" type="curve" smooth="yes"/>
    </contour>
    <contour>
      <point x="-27" y="1065" type="line"/>
      <point x="-27" y="1293" type="line"/>
      <point x="1340" y="1293" type="line"/>
      <point x="1340" y="1065" type="line"/>
    </contour>
    <contour>
      <point x="779" y="1104" type="line"/>
      <point x="1128" y="1104" type="line"/>
      <point x="1128" y="0" type="line"/>
      <point x="779" y="0" type="line"/>
    </contour>
  </outline>
</glyph>
<glyph name="padeva" format="1">
  <advance width="1306"/>
  <unicode hex="092A"/>
  <outline>
    <contour>
      <point x="1336" y="1065" type="line"/>
      <point x="-30" y="1065" type="line"/>
      <point x="-30" y="1293" type="line"/>
      <point x="1336" y="1293" type="line"/>
    </contour>
    <contour>
      <point x="461" y="1105" type="line"/>
      <point x="461" y="688" type="line"/>
      <point x="461" y="599"/>
      <point x="501" y="549"/>
      <point x="575" y="549" type="curve" smooth="yes"/>
      <point x="661" y="549"/>
      <point x="733" y="588"/>
      <point x="795" y="677" type="curve"/>
      <point x="795" y="294" type="line"/>
      <point x="747" y="282"/>
      <point x="683" y="273"/>
      <point x="613" y="273" type="curve" smooth="yes"/>
      <point x="314" y="273"/>
      <point x="113" y="453"/>
      <point x="113" y="756" type="curve" smooth="yes"/>
      <point x="113" y="1105" type="line"/>
    </contour>
    <contour>
      <point x="769" y="1104" type="line"/>
      <point x="1118" y="1104" type="line"/>
      <point x="1118" y="0" type="line"/>
      <point x="769" y="0" type="line"/>
    </contour>
    <contour>
      <point x="769" y="1293" type="move" name="top"/>
    </contour>
  </outline>
</glyph>
<glyph name="phadeva" format="1">
  <advance width="1761"/>
  <unicode hex="092B"/>
  <outline>
    <contour>
      <point x="471" y="1171" type="line"/>
      <point x="471" y="708" type="line"/>
      <point x="471" y="619"/>
      <point x="511" y="570"/>
      <point x="586" y="570" type="curve" smooth="yes"/>
      <point x="662" y="570"/>
      <point x="720" y="603"/>
      <point x="793" y="670" type="curve"/>
      <point x="793" y="324" type="line"/>
      <point x="745" y="310"/>
      <point x="694" y="304"/>
      <point x="634" y="304" type="curve" smooth="yes"/>
      <point x="324" y="304"/>
      <point x="122" y="495"/>
      <point x="122" y="787" type="curve" smooth="yes"/>
      <point x="122" y="1171" type="line"/>
    </contour>
    <contour>
      <point x="1066" y="400" type="curve"/>
      <point x="1056" y="821" type="line"/>
      <point x="1124" y="829"/>
      <point x="1179" y="835"/>
      <point x="1274" y="835" type="curve" smooth="yes"/>
      <point x="1554" y="835"/>
      <point x="1728" y="656"/>
      <point x="1728" y="434" type="curve" smooth="yes"/>
      <point x="1728" y="305"/>
      <point x="1674" y="156"/>
      <point x="1588" y="62" type="curve"/>
      <point x="1312" y="168" type="line"/>
      <point x="1387" y="275"/>
      <point x="1432" y="367"/>
      <point x="1432" y="468" type="curve" smooth="yes"/>
      <point x="1432" y="524"/>
      <point x="1395" y="554"/>
      <point x="1330" y="554" type="curve" smooth="yes"/>
      <point x="1250" y="554"/>
      <point x="1147" y="504"/>
    </contour>
    <contour>
      <point x="-39" y="1065" type="line"/>
      <point x="-39" y="1293" type="line"/>
      <point x="1785" y="1293" type="line"/>
      <point x="1785" y="1065" type="line"/>
    </contour>
    <contour>
      <point x="763" y="1104" type="line"/>
      <point x="1112" y="1104" type="line"/>
      <point x="1112" y="0" type="line"/>
      <point x="763" y="0" type="line"/>
    </contour>
    <contour>
      <point x="862" y="8" type="move" name="x2"/>
    </contour>
    <contour>
      <point x="862" y="8" type="move" name="mark0"/>
    </contour>
    <contour>
      <point x="24" y="8" type="move" name="x43"/>
    </contour>
  </outline>
</glyph>
<glyph name="badeva" format="1">
  <advance width="1284"/>
  <unicode hex="092C"/>
  <outline>
    <contour>
      <point x="771" y="436" type="line"/>
      <point x="647" y="344" type="line"/>
      <point x="340" y="694" type="line"/>
      <point x="465" y="786" type="line"/>
    </contour>
    <component base="vadeva"/>
  </outline>
</glyph>
<glyph name="bhadeva" format="1">
  <advance width="1528"/>
  <unicode hex="092D"/>
  <outline>
    <contour>
      <point x="377" y="995" type="line"/>
      <point x="377" y="1082"/>
      <point x="338" y="1141"/>
      <point x="283" y="1141" type="curve" smooth="yes"/>
      <point x="230" y="1141"/>
      <point x="206" y="1107"/>
      <point x="206" y="1060" type="curve" smooth="yes"/>
      <point x="206" y="994"/>
      <point x="267" y="938"/>
      <point x="434" y="932" type="curve"/>
      <point x="420" y="755" type="line"/>
      <point x="129" y="756"/>
      <point x="-95" y="885"/>
      <point x="-95" y="1123" type="curve" smooth="yes"/>
      <point x="-95" y="1255"/>
      <point x="6" y="1379"/>
      <point x="255" y="1379" type="curve" smooth="yes"/>
      <point x="545" y="1379"/>
      <point x="726" y="1206"/>
      <point x="726" y="949" type="curve" smooth="yes"/>
      <point x="726" y="649" type="line"/>
      <point x="693" y="692" type="line"/>
      <point x="1020" y="692" type="line"/>
      <point x="1020" y="422" type="line"/>
      <point x="675" y="422" type="line"/>
      <point x="726" y="472" type="line"/>
      <point x="726" y="328" type="line"/>
      <point x="726" y="239"/>
      <point x="692" y="186"/>
      <point x="603" y="186" type="curve" smooth="yes"/>
      <point x="424" y="186"/>
      <point x="211" y="412"/>
      <point x="211" y="557" type="curve" smooth="yes"/>
      <point x="211" y="649"/>
      <point x="259" y="691"/>
      <point x="329" y="691" type="curve" smooth="yes"/>
      <point x="414" y="691" type="line"/>
      <point x="377" y="662" type="line"/>
    </contour>
    <contour>
      <point x="992" y="1104" type="line"/>
      <point x="1340" y="1104" type="line"/>
      <point x="1340" y="0" type="line"/>
      <point x="992" y="0" type="line"/>
    </contour>
    <contour>
      <point x="1553" y="1065" type="line"/>
      <point x="867" y="1065" type="line"/>
      <point x="867" y="1293" type="line"/>
      <point x="1553" y="1293" type="line"/>
    </contour>
  </outline>
</glyph>
<glyph name="madeva" format="1">
  <advance width="1395"/>
  <unicode hex="092E"/>
  <outline>
    <contour>
      <point x="-26" y="1065" type="line"/>
      <point x="-26" y="1293" type="line"/>
      <point x="1419" y="1293" type="line"/>
      <point x="1419" y="1065" type="line"/>
    </contour>
    <contour>
      <point x="214" y="1104" type="line"/>
      <point x="562" y="1104" type="line"/>
      <point x="562" y="649" type="line"/>
      <point x="530" y="692" type="line"/>
      <point x="907" y="692" type="line"/>
      <point x="907" y="422" type="line"/>
      <point x="512" y="422" type="line"/>
      <point x="562" y="472" type="line"/>
      <point x="562" y="328" type="line"/>
      <point x="562" y="239"/>
      <point x="528" y="186"/>
      <point x="440" y="186" type="curve" smooth="yes"/>
      <point x="261" y="186"/>
      <point x="48" y="412"/>
      <point x="48" y="557" type="curve" smooth="yes"/>
      <point x="48" y="649"/>
      <point x="96" y="691"/>
      <point x="166" y="691" type="curve" smooth="yes"/>
      <point x="250" y="691" type="line"/>
      <point x="214" y="662" type="line"/>
    </contour>
    <contour>
      <point x="859" y="1104" type="line"/>
      <point x="1207" y="1104" type="line"/>
      <point x="1207" y="0" type="line"/>
      <point x="859" y="0" type="line"/>
    </contour>
  </outline>
</glyph>
<glyph name="yadeva" format="1">
  <advance width="1419"/>
  <unicode hex="092F"/>
  <outline>
    <contour>
      <point x="-12" y="1065" type="line"/>
      <point x="-12" y="1293" type="line"/>
      <point x="1443" y="1293" type="line"/>
      <point x="1443" y="1065" type="line"/>
    </contour>
    <contour>
      <point x="318" y="1104" type="line"/>
      <point x="667" y="1104" type="line"/>
      <point x="667" y="931" type="line"/>
      <point x="667" y="712"/>
      <point x="574" y="578"/>
      <point x="340" y="508" type="curve"/>
      <point x="340" y="600" type="line"/>
      <point x="406" y="523"/>
      <point x="497" y="467"/>
      <point x="602" y="467" type="curve" smooth="yes"/>
      <point x="746" y="467"/>
      <point x="873" y="553"/>
      <point x="928" y="684" type="curve"/>
      <point x="928" y="224" type="line"/>
      <point x="871" y="200"/>
      <point x="821" y="190"/>
      <point x="708" y="190" type="curve" smooth="yes"/>
      <point x="400" y="190"/>
      <point x="119" y="386"/>
      <point x="10" y="647" type="curve"/>
      <point x="10" y="653" type="line"/>
      <point x="226" y="725"/>
      <point x="318" y="822"/>
      <point x="318" y="954" type="curve" smooth="yes"/>
    </contour>
    <contour>
      <point x="882" y="1104" type="line"/>
      <point x="1230" y="1104" type="line"/>
      <point x="1230" y="0" type="line"/>
      <point x="882" y="0" type="line"/>
    </contour>
  </outline>
</glyph>
<glyph name="radeva" format="1">
  <advance width="1027"/>
  <unicode hex="0930"/>
  <outline>
    <contour>
      <point x="834" y="95" type="line"/>
      <point x="598" y="-61" type="line"/>
      <point x="161" y="499" type="line"/>
      <point x="65" y="622"/>
      <point x="33" y="671"/>
      <point x="33" y="742" type="curve" smooth="yes"/>
      <point x="33" y="812"/>
      <point x="94" y="878"/>
      <point x="181" y="878" type="curve" smooth="yes"/>
      <point x="266" y="878"/>
      <point x="320" y="822"/>
      <point x="401" y="714" type="curve" smooth="yes"/>
      <point x="446" y="652" type="line"/>
      <point x="425" y="634" type="line"/>
    </contour>
    <contour>
      <point x="338" y="712" type="line"/>
      <point x="484" y="756"/>
      <point x="529" y="823"/>
      <point x="529" y="946" type="curve" smooth="yes"/>
      <point x="529" y="1123" type="line"/>
      <point x="878" y="1123" type="line"/>
      <point x="878" y="892" type="line"/>
      <point x="878" y="701"/>
      <point x="753" y="515"/>
      <point x="541" y="431" type="curve"/>
    </contour>
    <contour>
      <point x="-12" y="1065" type="line"/>
      <point x="-12" y="1293" type="line"/>
      <point x="1085" y="1293" type="line"/>
      <point x="1085" y="1065" type="line"/>
    </contour>
    <contour>
      <point x="51" y="8" type="move" name="x27"/>
    </contour>
    <contour>
      <point x="565" y="8" type="move" name="mark0"/>
    </contour>
  </outline>
</glyph>
<glyph name="ladeva" format="1">
  <advance width="1605"/>
  <unicode hex="0932"/>
  <outline>
    <contour>
      <point x="1185" y="981" type="line"/>
      <point x="1185" y="583" type="line"/>
      <point x="753" y="182" type="line"/>
      <point x="537" y="390" type="line"/>
    </contour>
    <contour>
      <point x="1016" y="635" type="curve"/>
      <point x="813" y="456" type="line"/>
      <point x="712" y="564"/>
      <point x="643" y="602"/>
      <point x="550" y="602" type="curve" smooth="yes"/>
      <point x="450" y="602"/>
      <point x="366" y="518"/>
      <point x="366" y="428" type="curve" smooth="yes"/>
      <point x="366" y="337"/>
      <point x="410" y="245"/>
      <point x="546" y="104" type="curve"/>
      <point x="314" y="-26" type="line"/>
      <point x="171" y="119"/>
      <point x="58" y="298"/>
      <point x="58" y="509" type="curve" smooth="yes"/>
      <point x="58" y="725"/>
      <point x="212" y="901"/>
      <point x="481" y="901" type="curve" smooth="yes"/>
      <point x="671" y="901"/>
      <point x="848" y="799"/>
    </contour>
    <contour>
      <point x="-22" y="1065" type="line"/>
      <point x="-22" y="1293" type="line"/>
      <point x="1629" y="1293" type="line"/>
      <point x="1629" y="1065" type="line"/>
    </contour>
    <contour>
      <point x="1068" y="1104" type="line"/>
      <point x="1417" y="1104" type="line"/>
      <point x="1417" y="0" type="line"/>
      <point x="1068" y="0" type="line"/>
    </contour>
  </outline>
</glyph>
<glyph name="lladeva" format="1">
  <advance width="1657"/>
  <unicode hex="0933"/>
  <outline>
    <contour>
      <point x="1688" y="1065" type="line"/>
      <point x="-2" y="1065" type="line"/>
      <point x="-2" y="1293" type="line"/>
      <point x="1688" y="1293" type="line"/>
    </contour>
    <contour>
      <point x="700" y="558" type="curve" smooth="yes"/>
      <point x="758" y="707"/>
      <point x="884" y="921"/>
      <point x="1180" y="921" type="curve" smooth="yes"/>
      <point x="1490" y="921"/>
      <point x="1613" y="686"/>
      <point x="1613" y="482" type="curve" smooth="yes"/>
      <point x="1613" y="265"/>
      <point x="1458" y="70"/>
      <point x="1197" y="70" type="curve" smooth="yes"/>
      <point x="1014" y="70"/>
      <point x="870" y="145"/>
      <point x="717" y="270" type="curve"/>
      <point x="835" y="466" type="line"/>
      <point x="933" y="393"/>
      <point x="1029" y="336"/>
      <point x="1120" y="336" type="curve" smooth="yes"/>
      <point x="1217" y="336"/>
      <point x="1307" y="413"/>
      <point x="1307" y="516" type="curve" smooth="yes"/>
      <point x="1307" y="596"/>
      <point x="1263" y="634"/>
      <point x="1205" y="634" type="curve" smooth="yes"/>
      <point x="1140" y="634"/>
      <point x="1069" y="571"/>
      <point x="1022" y="462" type="curve" smooth="yes"/>
      <point x="926" y="240"/>
      <point x="798" y="61"/>
      <point x="541" y="61" type="curve" smooth="yes"/>
      <point x="239" y="61"/>
      <point x="83" y="272"/>
      <point x="83" y="510" type="curve" smooth="yes"/>
      <point x="83" y="731"/>
      <point x="250" y="901"/>
      <point x="501" y="901" type="curve" smooth="yes"/>
      <point x="691" y="901"/>
      <point x="797" y="838"/>
      <point x="948" y="734" type="curve"/>
      <point x="854" y="529" type="line"/>
      <point x="748" y="602"/>
      <point x="656" y="639"/>
      <point x="562" y="639" type="curve" smooth="yes"/>
      <point x="460" y="639"/>
      <point x="395" y="567"/>
      <point x="395" y="461" type="curve" smooth="yes"/>
      <point x="395" y="373"/>
      <point x="442" y="333"/>
      <point x="507" y="333" type="curve" smooth="yes"/>
      <point x="582" y="333"/>
      <point x="643" y="412"/>
    </contour>
    <contour>
      <point x="1348" y="823" type="line"/>
      <point x="1018" y="829" type="line"/>
      <point x="1018" y="1085" type="line"/>
      <point x="1348" y="1085" type="line"/>
    </contour>
    <contour>
      <point x="1002" y="6" type="move" name="mark0"/>
    </contour>
  </outline>
</glyph>
<glyph name="llladeva" format="1">
  <advance width="1657"/>
  <unicode hex="0934"/>
  <outline>
    <component base="nuktadeva" xOffset="1131" yOffset="87"/>
    <component base="lladeva"/>
    <contour>
      <point x="1184" y="0" type="move" name="mark0"/>
    </contour>
  </outline>
</glyph>
<glyph name="vadeva" format="1">
  <advance width="1284"/>
  <unicode hex="0935"/>
  <outline>
    <contour>
      <point x="1309" y="1065" type="line"/>
      <point x="-45" y="1065" type="line"/>
      <point x="-45" y="1293" type="line"/>
      <point x="1309" y="1293" type="line"/>
    </contour>
    <contour>
      <point x="786" y="588" type="curve"/>
      <point x="786" y="223" type="line"/>
      <point x="720" y="184"/>
      <point x="634" y="168"/>
      <point x="540" y="168" type="curve" smooth="yes"/>
      <point x="253" y="168"/>
      <point x="51" y="392"/>
      <point x="51" y="616" type="curve" smooth="yes"/>
      <point x="51" y="802"/>
      <point x="207" y="951"/>
      <point x="435" y="951" type="curve" smooth="yes"/>
      <point x="621" y="951"/>
      <point x="725" y="919"/>
      <point x="842" y="850" type="curve"/>
      <point x="840" y="594" type="line"/>
      <point x="724" y="675"/>
      <point x="648" y="700"/>
      <point x="533" y="700" type="curve" smooth="yes"/>
      <point x="432" y="700"/>
      <point x="369" y="630"/>
      <point x="369" y="554" type="curve" smooth="yes"/>
      <point x="369" y="481"/>
      <point x="423" y="433"/>
      <point x="498" y="433" type="curve" smooth="yes"/>
      <point x="599" y="433"/>
      <point x="693" y="481"/>
    </contour>
    <contour>
      <point x="748" y="1104" type="line"/>
      <point x="1096" y="1104" type="line"/>
      <point x="1096" y="0" type="line"/>
      <point x="748" y="0" type="line"/>
    </contour>
  </outline>
</glyph>
<glyph name="shadeva" format="1">
  <advance width="1691"/>
  <unicode hex="0936"/>
  <outline>
    <contour>
      <point x="628" y="393" type="line"/>
      <point x="948" y="119" type="line"/>
      <point x="749" y="-63" type="line"/>
      <point x="372" y="269" type="line"/>
    </contour>
    <contour>
      <point x="290" y="192" type="curve" smooth="yes"/>
      <point x="150" y="192"/>
      <point x="93" y="279"/>
      <point x="93" y="385" type="curve" smooth="yes"/>
      <point x="93" y="496"/>
      <point x="179" y="618"/>
      <point x="295" y="618" type="curve" smooth="yes"/>
      <point x="379" y="618"/>
      <point x="443" y="575"/>
      <point x="526" y="497" type="curve"/>
      <point x="414" y="515" type="line"/>
      <point x="573" y="569"/>
      <point x="707" y="729"/>
      <point x="707" y="891" type="curve" smooth="yes"/>
      <point x="707" y="996"/>
      <point x="625" y="1079"/>
      <point x="543" y="1079" type="curve" smooth="yes"/>
      <point x="492" y="1079"/>
      <point x="466" y="1049"/>
      <point x="468" y="993" type="curve" smooth="yes"/>
      <point x="469" y="931"/>
      <point x="514" y="855"/>
      <point x="786" y="823" type="curve"/>
      <point x="706" y="620" type="line"/>
      <point x="308" y="678"/>
      <point x="152" y="861"/>
      <point x="152" y="1039" type="curve" smooth="yes"/>
      <point x="152" y="1182"/>
      <point x="254" y="1326"/>
      <point x="501" y="1326" type="curve" smooth="yes"/>
      <point x="800" y="1326"/>
      <point x="995" y="1124"/>
      <point x="995" y="845" type="curve" smooth="yes"/>
      <point x="995" y="509"/>
      <point x="558" y="192"/>
    </contour>
    <contour>
      <point x="1154" y="1104" type="line"/>
      <point x="1503" y="1104" type="line"/>
      <point x="1503" y="0" type="line"/>
      <point x="1154" y="0" type="line"/>
    </contour>
    <contour>
      <point x="1716" y="1065" type="line"/>
      <point x="1054" y="1065" type="line"/>
      <point x="1054" y="1293" type="line"/>
      <point x="1716" y="1293" type="line"/>
    </contour>
  </outline>
</glyph>
<glyph name="hadeva" format="1">
  <advance width="1216"/>
  <unicode hex="0939"/>
  <outline>
    <contour>
      <point x="675" y="577" type="curve" smooth="yes"/>
      <point x="987" y="577"/>
      <point x="1153" y="412"/>
      <point x="1153" y="238" type="curve" smooth="yes"/>
      <point x="1153" y="156"/>
      <point x="1124" y="87"/>
      <point x="1082" y="13" type="curve"/>
      <point x="804" y="70" type="line"/>
      <point x="838" y="118"/>
      <point x="851" y="151"/>
      <point x="851" y="212" type="curve" smooth="yes"/>
      <point x="851" y="274"/>
      <point x="794" y="324"/>
      <point x="703" y="324" type="curve" smooth="yes"/>
      <point x="582" y="324"/>
      <point x="503" y="254"/>
      <point x="503" y="159" type="curve" smooth="yes"/>
      <point x="503" y="23"/>
      <point x="598" y="-58"/>
      <point x="1052" y="-116" type="curve"/>
      <point x="963" y="-343" type="line"/>
      <point x="420" y="-277"/>
      <point x="166" y="-101"/>
      <point x="166" y="182" type="curve" smooth="yes"/>
      <point x="166" y="384"/>
      <point x="327" y="577"/>
    </contour>
    <contour>
      <point x="1248" y="1065" type="line"/>
      <point x="-21" y="1065" type="line"/>
      <point x="-21" y="1293" type="line"/>
      <point x="1248" y="1293" type="line"/>
    </contour>
    <contour>
      <point x="680" y="1075" type="line"/>
      <point x="1028" y="1075" type="line"/>
      <point x="1028" y="708" type="line"/>
      <point x="532" y="708" type="line"/>
      <point x="434" y="708"/>
      <point x="394" y="668"/>
      <point x="394" y="616" type="curve" smooth="yes"/>
      <point x="394" y="564"/>
      <point x="439" y="532"/>
      <point x="536" y="508" type="curve"/>
      <point x="304" y="341" type="line"/>
      <point x="137" y="442"/>
      <point x="57" y="553"/>
      <point x="57" y="688" type="curve" smooth="yes"/>
      <point x="57" y="826"/>
      <point x="167" y="936"/>
      <point x="388" y="936" type="curve" smooth="yes"/>
      <point x="719" y="936" type="line"/>
      <point x="680" y="883" type="line"/>
    </contour>
  </outline>
</glyph>
<glyph name="iivowelsigndeva" format="1">
  <advance width="676"/>
  <unicode hex="0940"/>
  <outline>
    <contour>
      <point x="130" y="1239" type="line"/>
      <point x="24" y="1435"/>
      <point x="-82" y="1538"/>
      <point x="-201" y="1538" type="curve" smooth="yes"/>
      <point x="-279" y="1538"/>
      <point x="-317" y="1492"/>
      <point x="-317" y="1431" type="curve" smooth="yes"/>
      <point x="-317" y="1364"/>
      <point x="-284" y="1313"/>
      <point x="-229" y="1251" type="curve"/>
      <point x="-547" y="1251" type="line"/>
      <point x="-599" y="1314"/>
      <point x="-648" y="1414"/>
      <point x="-648" y="1521" type="curve" smooth="yes"/>
      <point x="-648" y="1683"/>
      <point x="-536" y="1831"/>
      <point x="-286" y="1831" type="curve" smooth="yes"/>
      <point x="52" y="1831"/>
      <point x="295" y="1638"/>
      <point x="465" y="1239" type="curve"/>
    </contour>
    <component base="aavowelsigndeva"/>
  </outline>
</glyph>
<glyph name="uvowelsigndeva" format="1">
  <advance width="0"/>
  <unicode hex="0941"/>
  <outline>
    <contour>
      <point x="-721" y="-62" type="line"/>
      <point x="-618" y="-7"/>
      <point x="-522" y="28"/>
      <point x="-350" y="28" type="curve" smooth="yes"/>
      <point x="-140" y="28"/>
      <point x="23" y="-134"/>
      <point x="23" y="-332" type="curve" smooth="yes"/>
      <point x="23" y="-530"/>
      <point x="-137" y="-662"/>
      <point x="-372" y="-662" type="curve" smooth="yes"/>
      <point x="-585" y="-662"/>
      <point x="-787" y="-574"/>
      <point x="-1019" y="-396" type="curve"/>
      <point x="-915" y="-175" type="line"/>
      <point x="-709" y="-350"/>
      <point x="-569" y="-406"/>
      <point x="-453" y="-406" type="curve" smooth="yes"/>
      <point x="-343" y="-406"/>
      <point x="-272" y="-355"/>
      <point x="-272" y="-299" type="curve" smooth="yes"/>
      <point x="-272" y="-251"/>
      <point x="-308" y="-215"/>
      <point x="-370" y="-215" type="curve" smooth="yes"/>
      <point x="-435" y="-215"/>
      <point x="-512" y="-250"/>
      <point x="-595" y="-304" type="curve"/>
    </contour>
    <contour>
      <point x="49" y="8" type="move" name="x24"/>
    </contour>
    <contour>
      <point x="-424" y="8" type="move" name="_mark0"/>
    </contour>
  </outline>
</glyph>
<glyph name="uuvowelsigndeva" format="1">
  <unicode hex="0942"/>
  <outline>
    <contour>
      <point x="-132" y="-623" type="line"/>
      <point x="-212" y="-651"/>
      <point x="-284" y="-659"/>
      <point x="-385" y="-659" type="curve" smooth="yes"/>
      <point x="-613" y="-659"/>
      <point x="-834" y="-518"/>
      <point x="-834" y="-282" type="curve" smooth="yes"/>
      <point x="-834" y="-121"/>
      <point x="-669" y="39"/>
      <point x="-415" y="39" type="curve" smooth="yes"/>
      <point x="-135" y="39"/>
      <point x="55" y="-108"/>
      <point x="301" y="-396" type="curve"/>
      <point x="139" y="-580" type="line"/>
      <point x="-103" y="-302"/>
      <point x="-235" y="-237"/>
      <point x="-382" y="-237" type="curve" smooth="yes"/>
      <point x="-484" y="-237"/>
      <point x="-531" y="-287"/>
      <point x="-531" y="-346" type="curve" smooth="yes"/>
      <point x="-531" y="-400"/>
      <point x="-490" y="-437"/>
      <point x="-403" y="-437" type="curve" smooth="yes"/>
      <point x="-346" y="-437"/>
      <point x="-293" y="-430"/>
      <point x="-206" y="-399" type="curve"/>
    </contour>
    <contour>
      <point x="-539" y="0" type="move" name="_btm"/>
    </contour>
  </outline>
</glyph>
<glyph name="rrvocalicvowelsigndeva" format="1">
  <unicode hex="0944"/>
  <outline>
    <contour>
      <point x="-40" y="-767" type="line"/>
      <point x="-110" y="-792"/>
      <point x="-203" y="-811"/>
      <point x="-296" y="-811" type="curve" smooth="yes"/>
      <point x="-541" y="-811"/>
      <point x="-632" y="-689"/>
      <point x="-632" y="-570" type="curve" smooth="yes"/>
      <point x="-632" y="-419"/>
      <point x="-476" y="-316"/>
      <point x="-237" y="-316" type="curve"/>
      <point x="-188" y="-446" type="line"/>
      <point x="-300" y="-447"/>
      <point x="-372" y="-499"/>
      <point x="-372" y="-556" type="curve" smooth="yes"/>
      <point x="-372" y="-600"/>
      <point x="-338" y="-633"/>
      <point x="-258" y="-633" type="curve" smooth="yes"/>
      <point x="-202" y="-633"/>
      <point x="-158" y="-622"/>
      <point x="-76" y="-592" type="curve"/>
    </contour>
    <contour>
      <point x="-117" y="-459" type="line"/>
      <point x="-216" y="-481"/>
      <point x="-275" y="-486"/>
      <point x="-357" y="-486" type="curve" smooth="yes"/>
      <point x="-612" y="-486"/>
      <point x="-759" y="-364"/>
      <point x="-759" y="-205" type="curve" smooth="yes"/>
      <point x="-759" y="-63"/>
      <point x="-604" y="50"/>
      <point x="-362" y="50" type="curve" smooth="yes"/>
      <point x="-285" y="50"/>
      <point x="-225" y="42"/>
      <point x="-189" y="34" type="curve"/>
      <point x="-189" y="-137" type="line"/>
      <point x="-227" y="-137"/>
      <point x="-272" y="-137"/>
      <point x="-312" y="-137" type="curve" smooth="yes"/>
      <point x="-419" y="-137"/>
      <point x="-459" y="-174"/>
      <point x="-459" y="-220" type="curve" smooth="yes"/>
      <point x="-459" y="-266"/>
      <point x="-417" y="-299"/>
      <point x="-348" y="-299" type="curve" smooth="yes"/>
      <point x="-291" y="-299"/>
      <point x="-243" y="-293"/>
      <point x="-156" y="-272" type="curve"/>
    </contour>
    <contour>
      <point x="-539" y="0" type="move" name="_btm"/>
    </contour>
  </outline>
</glyph>
<glyph name="ecandravowelsigndeva" format="1">
  <advance width="0"/>
  <unicode hex="0945"/>
  <outline>
    <contour>
      <point x="163" y="1539" type="line"/>
      <point x="18" y="1404"/>
      <point x="-155" y="1363"/>
      <point x="-348" y="1363" type="curve" smooth="yes"/>
      <point x="-536" y="1363"/>
      <point x="-707" y="1405"/>
      <point x="-876" y="1538" type="curve"/>
      <point x="-795" y="1782" type="line"/>
      <point x="-662" y="1679"/>
      <point x="-506" y="1627"/>
      <point x="-347" y="1627" type="curve" smooth="yes"/>
      <point x="-204" y="1627"/>
      <point x="-49" y="1680"/>
      <point x="69" y="1780" type="curve"/>
    </contour>
    <contour>
      <point x="46" y="6" type="move" name="x14"/>
    </contour>
    <contour>
      <point x="-419" y="1280" type="move" name="_mark0"/>
    </contour>
  </outline>
</glyph>
<glyph name="eshortvowelsigndeva" format="1">
  <advance width="0"/>
  <unicode hex="0946"/>
  <outline>
    <contour>
      <point x="-535" y="1244" type="line"/>
      <point x="-535" y="1324" type="line"/>
      <point x="-535" y="1393"/>
      <point x="-568" y="1432"/>
      <point x="-646" y="1432" type="curve" smooth="yes"/>
      <point x="-714" y="1432"/>
      <point x="-771" y="1397"/>
      <point x="-902" y="1397" type="curve" smooth="yes"/>
      <point x="-1057" y="1397"/>
      <point x="-1161" y="1467"/>
      <point x="-1257" y="1592" type="curve"/>
      <point x="-1133" y="1788" type="line"/>
      <point x="-1038" y="1692"/>
      <point x="-978" y="1663"/>
      <point x="-910" y="1663" type="curve" smooth="yes"/>
      <point x="-803" y="1663"/>
      <point x="-706" y="1720"/>
      <point x="-539" y="1720" type="curve" smooth="yes"/>
      <point x="-347" y="1720"/>
      <point x="-231" y="1586"/>
      <point x="-231" y="1370" type="curve" smooth="yes"/>
      <point x="-231" y="1244" type="line"/>
    </contour>
    <contour>
      <point x="-419" y="1280" type="move" name="_mark0"/>
    </contour>
  </outline>
</glyph>
<glyph name="aivowelsigndeva" format="1">
  <advance width="0"/>
  <unicode hex="0948"/>
  <outline>
    <contour>
      <point x="-855" y="1244" type="line"/>
      <point x="-1266" y="1553" type="line"/>
      <point x="-1013" y="1750" type="line"/>
      <point x="-439" y="1244" type="line"/>
    </contour>
    <contour>
      <point x="-484" y="1244" type="line"/>
      <point x="-708" y="1760" type="line"/>
      <point x="-394" y="1835" type="line"/>
      <point x="-178" y="1244" type="line"/>
    </contour>
    <contour>
      <point x="49" y="8" type="move" name="x27"/>
    </contour>
    <contour>
      <point x="-424" y="1282" type="move" name="_mark0"/>
    </contour>
  </outline>
</glyph>
<glyph name="viramadeva" format="1">
  <advance width="-1"/>
  <unicode hex="094D"/>
  <outline>
    <contour>
      <point x="-487" y="-50" type="line"/>
      <point x="123" y="-285" type="line"/>
      <point x="22" y="-534" type="line"/>
      <point x="-595" y="-301" type="line"/>
    </contour>
    <contour>
      <point x="49" y="8" type="move" name="x12"/>
    </contour>
    <contour>
      <point x="-424" y="8" type="move" name="_mark0"/>
    </contour>
  </outline>
</glyph>
<glyph name="awvowelsigndevaKSH" format="1">
  <advance width="676"/>
  <unicode hex="094F"/>
  <outline>
    <contour>
      <point x="239" y="1208" type="line"/>
      <point x="239" y="1499" type="line"/>
      <point x="239" y="1554"/>
      <point x="213" y="1588"/>
      <point x="118" y="1588" type="curve" smooth="yes"/>
      <point x="61" y="1588"/>
      <point x="13" y="1558"/>
      <point x="-98" y="1558" type="curve" smooth="yes"/>
      <point x="-229" y="1558"/>
      <point x="-319" y="1616"/>
      <point x="-399" y="1717" type="curve"/>
      <point x="-294" y="1876" type="line"/>
      <point x="-214" y="1799"/>
      <point x="-162" y="1775"/>
      <point x="-105" y="1775" type="curve" smooth="yes"/>
      <point x="-14" y="1775"/>
      <point x="67" y="1820"/>
      <point x="209" y="1820" type="curve" smooth="yes"/>
      <point x="372" y="1820"/>
      <point x="487" y="1712"/>
      <point x="487" y="1536" type="curve" smooth="yes"/>
      <point x="487" y="1208" type="line"/>
    </contour>
    <contour>
      <point x="60" y="1160" type="line"/>
      <point x="9" y="1283" type="line"/>
      <point x="-17" y="1346"/>
      <point x="-55" y="1383"/>
      <point x="-134" y="1383" type="curve" smooth="yes"/>
      <point x="-201" y="1383"/>
      <point x="-250" y="1355"/>
      <point x="-371" y="1355" type="curve" smooth="yes"/>
      <point x="-516" y="1355"/>
      <point x="-622" y="1421"/>
      <point x="-717" y="1523" type="curve"/>
      <point x="-605" y="1671" type="line"/>
      <point x="-518" y="1593"/>
      <point x="-451" y="1566"/>
      <point x="-379" y="1566" type="curve" smooth="yes"/>
      <point x="-272" y="1566"/>
      <point x="-194" y="1608"/>
      <point x="-92" y="1608" type="curve" smooth="yes"/>
      <point x="116" y="1608"/>
      <point x="181" y="1543"/>
      <point x="257" y="1330" type="curve" smooth="yes"/>
      <point x="319" y="1160" type="line"/>
    </contour>
    <component base="aavowelsigndeva"/>
  </outline>
</glyph>
<glyph name="omdeva" format="1">
  <advance width="2081"/>
  <unicode hex="0950"/>
  <outline>
    <contour>
      <point x="363" y="564" type="line"/>
      <point x="302" y="821" type="line"/>
      <point x="315" y="822" type="line"/>
      <point x="595" y="842"/>
      <point x="648" y="893"/>
      <point x="648" y="971" type="curve" smooth="yes"/>
      <point x="648" y="1016"/>
      <point x="615" y="1049"/>
      <point x="536" y="1049" type="curve" smooth="yes"/>
      <point x="450" y="1049"/>
      <point x="363" y="1022"/>
      <point x="242" y="962" type="curve"/>
      <point x="165" y="1223" type="line"/>
      <point x="289" y="1277"/>
      <point x="405" y="1302"/>
      <point x="549" y="1302" type="curve" smooth="yes"/>
      <point x="827" y="1302"/>
      <point x="960" y="1143"/>
      <point x="960" y="939" type="curve" smooth="yes"/>
      <point x="960" y="716"/>
      <point x="760" y="593"/>
      <point x="388" y="566" type="curve" smooth="yes"/>
    </contour>
    <contour>
      <point x="750" y="772" type="line"/>
      <point x="889" y="718"/>
      <point x="1014" y="587"/>
      <point x="1014" y="419" type="curve" smooth="yes"/>
      <point x="1014" y="229"/>
      <point x="869" y="77"/>
      <point x="616" y="77" type="curve" smooth="yes"/>
      <point x="454" y="77"/>
      <point x="316" y="122"/>
      <point x="122" y="231" type="curve"/>
      <point x="187" y="482" type="line"/>
      <point x="341" y="381"/>
      <point x="420" y="353"/>
      <point x="521" y="353" type="curve" smooth="yes"/>
      <point x="629" y="353"/>
      <point x="694" y="408"/>
      <point x="694" y="489" type="curve" smooth="yes"/>
      <point x="694" y="551"/>
      <point x="644" y="614"/>
      <point x="570" y="637" type="curve"/>
    </contour>
    <contour>
      <point x="1164" y="803" type="curve" smooth="yes"/>
      <point x="1210" y="937"/>
      <point x="1322" y="1139"/>
      <point x="1585" y="1126" type="curve" smooth="yes"/>
      <point x="1868" y="1117"/>
      <point x="2005" y="904"/>
      <point x="1996" y="692" type="curve" smooth="yes"/>
      <point x="1993" y="488"/>
      <point x="1845" y="303"/>
      <point x="1594" y="303" type="curve"/>
      <point x="1419" y="303"/>
      <point x="1283" y="378"/>
      <point x="1140" y="494" type="curve"/>
      <point x="1140" y="494"/>
      <point x="1258" y="685"/>
      <point x="1260" y="685" type="curve" smooth="yes"/>
      <point x="1355" y="620"/>
      <point x="1448" y="572"/>
      <point x="1538" y="582" type="curve" smooth="yes"/>
      <point x="1633" y="597"/>
      <point x="1722" y="674"/>
      <point x="1731" y="766" type="curve" smooth="yes"/>
      <point x="1743" y="836"/>
      <point x="1715" y="858"/>
      <point x="1665" y="844" type="curve" smooth="yes"/>
      <point x="1608" y="830"/>
      <point x="1534" y="765"/>
      <point x="1481" y="668" type="curve" smooth="yes"/>
      <point x="1371" y="434"/>
      <point x="1259" y="307"/>
      <point x="1097" y="316" type="curve"/>
      <point x="999" y="316"/>
      <point x="946" y="326"/>
      <point x="880" y="343" type="curve"/>
      <point x="889" y="335"/>
      <point x="856" y="585"/>
      <point x="861" y="585" type="curve" smooth="yes"/>
      <point x="940" y="565"/>
      <point x="988" y="553"/>
      <point x="1032" y="570" type="curve" smooth="yes"/>
      <point x="1089" y="585"/>
      <point x="1118" y="668"/>
    </contour>
    <component base="candrabindudeva" xOffset="1544" yOffset="-12"/>
  </outline>
</glyph>
<glyph name="udattadeva" format="1">
  <advance width="92"/>
  <unicode hex="0951"/>
  <outline>
    <contour>
      <point x="-92" y="1780" type="line"/>
      <point x="-92" y="1382" type="line"/>
      <point x="-456" y="1382" type="line"/>
      <point x="-456" y="1780" type="line"/>
    </contour>
    <contour>
      <point x="-419" y="1280" type="move" name="_mark0"/>
    </contour>
    <contour>
      <point x="46" y="6" type="move" name="x4"/>
    </contour>
  </outline>
</glyph>
<glyph name="uni0953" format="1">
  <advance width="92"/>
  <unicode hex="0953"/>
  <outline>
    <contour>
      <point x="-97" y="1386" type="line"/>
      <point x="-400" y="1386" type="line"/>
      <point x="-404" y="1394"/>
      <point x="-656" y="1795"/>
      <point x="-661" y="1802" type="curve"/>
      <point x="-260" y="1802" type="line"/>
    </contour>
    <contour>
      <point x="-419" y="1280" type="move" name="_mark0"/>
    </contour>
    <contour>
      <point x="46" y="6" type="move" name="x4"/>
    </contour>
  </outline>
</glyph>
<glyph name="uni0954" format="1">
  <advance width="92"/>
  <unicode hex="0954"/>
  <outline>
    <contour>
      <point x="-289" y="1802" type="line"/>
      <point x="111" y="1802" type="line"/>
      <point x="-148" y="1386" type="line"/>
      <point x="-452" y="1386" type="line"/>
    </contour>
    <contour>
      <point x="-419" y="1280" type="move" name="_mark0"/>
    </contour>
    <contour>
      <point x="46" y="6" type="move" name="x4"/>
    </contour>
  </outline>
</glyph>
<glyph name="candralongevowelsigndeva" format="1">
  <unicode hex="0955"/>
  <outline>
    <component base="ecandravowelsigndeva" yScale="0.885318888592" xOffset="-299" yOffset="408"/>
    <component base="anudattadeva" xOffset="-20" yOffset="1686"/>
    <contour>
      <point x="-539" y="1293" type="move" name="_top"/>
    </contour>
  </outline>
</glyph>
<glyph name="fadeva" format="1">
  <advance width="1737"/>
  <unicode hex="095E"/>
  <outline>
    <component base="phadeva"/>
    <component base="nuktadeva" xOffset="1216" yOffset="266"/>
    <contour>
      <point x="911" y="0" type="move" name="mark0"/>
    </contour>
  </outline>
</glyph>
<glyph name="rrvocalicdeva" format="1">
  <advance width="1712"/>
  <unicode hex="0960"/>
  <outline>
    <contour>
      <point x="944" y="764" type="line"/>
      <point x="986" y="710"/>
      <point x="1031" y="687"/>
      <point x="1104" y="687" type="curve" smooth="yes"/>
      <point x="1151" y="687"/>
      <point x="1210" y="696"/>
      <point x="1283" y="731" type="curve"/>
      <point x="1177" y="655" type="line"/>
      <point x="1149" y="709"/>
      <point x="1132" y="751"/>
      <point x="1132" y="796" type="curve" smooth="yes"/>
      <point x="1132" y="863"/>
      <point x="1183" y="931"/>
      <point x="1300" y="931" type="curve" smooth="yes"/>
      <point x="1482" y="931"/>
      <point x="1621" y="832"/>
      <point x="1621" y="726" type="curve" smooth="yes"/>
      <point x="1621" y="600"/>
      <point x="1440" y="445"/>
      <point x="1134" y="446" type="curve" smooth="yes"/>
      <point x="1025" y="446"/>
      <point x="920" y="475"/>
      <point x="821" y="531" type="curve"/>
    </contour>
    <contour>
      <point x="870" y="381" type="line"/>
      <point x="291" y="82" type="line"/>
      <point x="122" y="325" type="line"/>
      <point x="712" y="615" type="line"/>
    </contour>
    <contour>
      <point x="-49" y="1065" type="line"/>
      <point x="-49" y="1293" type="line"/>
      <point x="1711" y="1293" type="line"/>
      <point x="1711" y="1065" type="line"/>
    </contour>
    <contour>
      <point x="17" y="862" type="line"/>
      <point x="99" y="903"/>
      <point x="198" y="930"/>
      <point x="287" y="930" type="curve" smooth="yes"/>
      <point x="409" y="930"/>
      <point x="548" y="878"/>
      <point x="710" y="775" type="curve"/>
      <point x="710" y="471" type="line"/>
      <point x="555" y="585"/>
      <point x="448" y="647"/>
      <point x="362" y="647" type="curve" smooth="yes"/>
      <point x="281" y="647"/>
      <point x="175" y="606"/>
      <point x="100" y="572" type="curve"/>
    </contour>
    <contour>
      <point x="674" y="1104" type="line"/>
      <point x="1022" y="1104" type="line"/>
      <point x="1022" y="0" type="line"/>
      <point x="674" y="0" type="line"/>
    </contour>
    <contour>
      <point x="1453" y="197" type="curve" smooth="yes"/>
      <point x="1453" y="155"/>
      <point x="1492" y="122"/>
      <point x="1561" y="122" type="curve" smooth="yes"/>
      <point x="1618" y="122"/>
      <point x="1666" y="137"/>
      <point x="1744" y="171" type="curve"/>
      <point x="1780" y="-50" type="line"/>
      <point x="1694" y="-81"/>
      <point x="1627" y="-89"/>
      <point x="1543" y="-89" type="curve" smooth="yes"/>
      <point x="1315" y="-89"/>
      <point x="1154" y="28"/>
      <point x="1154" y="199" type="curve" smooth="yes"/>
      <point x="1154" y="334"/>
      <point x="1260" y="433"/>
      <point x="1463" y="482" type="curve"/>
      <point x="1323" y="401" type="line"/>
      <point x="1235" y="525" type="line"/>
      <point x="1467" y="639" type="line"/>
      <point x="1650" y="407" type="line"/>
      <point x="1629" y="329" type="line"/>
      <point x="1504" y="296"/>
      <point x="1453" y="251"/>
    </contour>
    <contour>
      <point x="924" y="1280" type="move" name="mark0"/>
    </contour>
  </outline>
</glyph>
<glyph name="llvocalicdeva" format="1">
  <advance width="1625"/>
  <unicode hex="0961"/>
  <outline>
    <contour>
      <point x="1016" y="629" type="curve"/>
      <point x="812" y="468" type="line"/>
      <point x="724" y="595"/>
      <point x="652" y="642"/>
      <point x="550" y="642" type="curve" smooth="yes"/>
      <point x="459" y="642"/>
      <point x="405" y="572"/>
      <point x="405" y="486" type="curve" smooth="yes"/>
      <point x="405" y="383"/>
      <point x="463" y="295"/>
      <point x="600" y="167" type="curve"/>
      <point x="363" y="38" type="line"/>
      <point x="184" y="196"/>
      <point x="75" y="386"/>
      <point x="75" y="566" type="curve" smooth="yes"/>
      <point x="75" y="773"/>
      <point x="206" y="931"/>
      <point x="456" y="931" type="curve" smooth="yes"/>
      <point x="673" y="931"/>
      <point x="850" y="820"/>
    </contour>
    <contour>
      <point x="1648" y="1065" type="line"/>
      <point x="-19" y="1065" type="line"/>
      <point x="-19" y="1293" type="line"/>
      <point x="1648" y="1293" type="line"/>
    </contour>
    <contour>
      <point x="977" y="1104" type="line"/>
      <point x="1326" y="1104" type="line"/>
      <point x="1326" y="810" type="line"/>
      <point x="977" y="810" type="line"/>
    </contour>
    <contour>
      <point x="1313" y="400" type="curve"/>
      <point x="1169" y="282" type="line"/>
      <point x="1213" y="345"/>
      <point x="1234" y="448"/>
      <point x="1234" y="513" type="curve" smooth="yes"/>
      <point x="1234" y="570"/>
      <point x="1197" y="601"/>
      <point x="1130" y="601" type="curve" smooth="yes"/>
      <point x="1043" y="601"/>
      <point x="955" y="510"/>
      <point x="907" y="294" type="curve"/>
      <point x="610" y="398" type="line"/>
      <point x="674" y="668"/>
      <point x="806" y="886"/>
      <point x="1107" y="889" type="curve" smooth="yes"/>
      <point x="1353" y="892"/>
      <point x="1537" y="708"/>
      <point x="1537" y="487" type="curve" smooth="yes"/>
      <point x="1537" y="403"/>
      <point x="1521" y="307"/>
      <point x="1484" y="218" type="curve"/>
      <point x="1476" y="218"/>
      <point x="1462" y="218"/>
      <point x="1453" y="218" type="curve" smooth="yes"/>
      <point x="1345" y="218"/>
      <point x="1305" y="172"/>
      <point x="1305" y="133" type="curve" smooth="yes"/>
      <point x="1305" y="91"/>
      <point x="1337" y="56"/>
      <point x="1408" y="56" type="curve" smooth="yes"/>
      <point x="1464" y="56"/>
      <point x="1502" y="61"/>
      <point x="1600" y="88" type="curve"/>
      <point x="1639" y="-106" type="line"/>
      <point x="1540" y="-129"/>
      <point x="1481" y="-133"/>
      <point x="1399" y="-133" type="curve" smooth="yes"/>
      <point x="1143" y="-133"/>
      <point x="996" y="-11"/>
      <point x="996" y="148" type="curve" smooth="yes"/>
      <point x="996" y="275"/>
      <point x="1116" y="376"/>
    </contour>
    <contour>
      <point x="1716" y="-416" type="line"/>
      <point x="1646" y="-439"/>
      <point x="1544" y="-460"/>
      <point x="1460" y="-460" type="curve" smooth="yes"/>
      <point x="1215" y="-460"/>
      <point x="1124" y="-337"/>
      <point x="1124" y="-217" type="curve" smooth="yes"/>
      <point x="1124" y="-66"/>
      <point x="1280" y="37"/>
      <point x="1519" y="37" type="curve"/>
      <point x="1568" y="-93" type="line"/>
      <point x="1456" y="-93"/>
      <point x="1394" y="-146"/>
      <point x="1394" y="-203" type="curve" smooth="yes"/>
      <point x="1394" y="-245"/>
      <point x="1418" y="-279"/>
      <point x="1498" y="-279" type="curve" smooth="yes"/>
      <point x="1554" y="-279"/>
      <point x="1598" y="-270"/>
      <point x="1680" y="-240" type="curve"/>
    </contour>
    <contour>
      <point x="1119" y="1280" type="move" name="mark0"/>
    </contour>
  </outline>
</glyph>
<glyph name="lvocalicvowelsigndeva" format="1">
  <advance width="-3"/>
  <unicode hex="0962"/>
  <outline>
    <contour>
      <point x="-286" y="-104" type="curve"/>
      <point x="-416" y="-214" type="line"/>
      <point x="-464" y="-148"/>
      <point x="-511" y="-114"/>
      <point x="-562" y="-114" type="curve" smooth="yes"/>
      <point x="-612" y="-114"/>
      <point x="-649" y="-150"/>
      <point x="-649" y="-196" type="curve" smooth="yes"/>
      <point x="-649" y="-247"/>
      <point x="-619" y="-295"/>
      <point x="-525" y="-366" type="curve"/>
      <point x="-671" y="-464" type="line"/>
      <point x="-797" y="-369"/>
      <point x="-856" y="-262"/>
      <point x="-856" y="-157" type="curve" smooth="yes"/>
      <point x="-856" y="-33"/>
      <point x="-767" y="72"/>
      <point x="-609" y="72" type="curve" smooth="yes"/>
      <point x="-478" y="72"/>
      <point x="-384" y="15"/>
    </contour>
    <contour>
      <point x="-109" y="-241" type="curve"/>
      <point x="-182" y="-305" type="line"/>
      <point x="-144" y="-259"/>
      <point x="-123" y="-219"/>
      <point x="-123" y="-181" type="curve" smooth="yes"/>
      <point x="-123" y="-143"/>
      <point x="-148" y="-115"/>
      <point x="-192" y="-115" type="curve" smooth="yes"/>
      <point x="-254" y="-115"/>
      <point x="-307" y="-181"/>
      <point x="-332" y="-301" type="curve"/>
      <point x="-517" y="-237" type="line"/>
      <point x="-478" y="-37"/>
      <point x="-365" y="70"/>
      <point x="-200" y="70" type="curve" smooth="yes"/>
      <point x="-44" y="70"/>
      <point x="54" y="-39"/>
      <point x="54" y="-167" type="curve" smooth="yes"/>
      <point x="54" y="-238"/>
      <point x="41" y="-291"/>
      <point x="16" y="-346" type="curve"/>
      <point x="-78" y="-347"/>
      <point x="-113" y="-377"/>
      <point x="-113" y="-408" type="curve" smooth="yes"/>
      <point x="-113" y="-438"/>
      <point x="-97" y="-456"/>
      <point x="-51" y="-456" type="curve" smooth="yes"/>
      <point x="-17" y="-456"/>
      <point x="12" y="-447"/>
      <point x="58" y="-425" type="curve"/>
      <point x="80" y="-563" type="line"/>
      <point x="28" y="-582"/>
      <point x="-10" y="-587"/>
      <point x="-62" y="-587" type="curve" smooth="yes"/>
      <point x="-198" y="-587"/>
      <point x="-291" y="-508"/>
      <point x="-291" y="-416" type="curve" smooth="yes"/>
      <point x="-291" y="-327"/>
      <point x="-224" y="-259"/>
    </contour>
    <contour>
      <point x="-539" y="0" type="move" name="_btm"/>
    </contour>
  </outline>
</glyph>
<glyph name="dandadeva" format="1">
  <advance width="706"/>
  <unicode hex="0964"/>
  <outline>
    <contour>
      <point x="289" y="-140" type="line"/>
      <point x="289" y="1383" type="line"/>
      <point x="614" y="1383" type="line"/>
      <point x="614" y="-140" type="line"/>
    </contour>
  </outline>
</glyph>
<glyph name="zerodeva" format="1">
  <advance width="1244"/>
  <unicode hex="0966"/>
  <outline>
    <contour>
      <point x="614" y="1144" type="curve" smooth="yes"/>
      <point x="958" y="1144"/>
      <point x="1167" y="917"/>
      <point x="1167" y="621" type="curve" smooth="yes"/>
      <point x="1167" y="363"/>
      <point x="988" y="132"/>
      <point x="639" y="132" type="curve" smooth="yes"/>
      <point x="300" y="132"/>
      <point x="78" y="370"/>
      <point x="78" y="657" type="curve" smooth="yes"/>
      <point x="78" y="912"/>
      <point x="278" y="1144"/>
    </contour>
    <contour>
      <point x="612" y="420" type="curve" smooth="yes"/>
      <point x="740" y="420"/>
      <point x="839" y="523"/>
      <point x="839" y="652" type="curve" smooth="yes"/>
      <point x="839" y="768"/>
      <point x="767" y="864"/>
      <point x="636" y="864" type="curve" smooth="yes"/>
      <point x="500" y="864"/>
      <point x="415" y="748"/>
      <point x="415" y="623" type="curve" smooth="yes"/>
      <point x="415" y="500"/>
      <point x="497" y="420"/>
    </contour>
  </outline>
</glyph>
<glyph name="onedeva" format="1">
  <advance width="1038"/>
  <unicode hex="0967"/>
  <outline>
    <contour>
      <point x="236" y="354" type="line"/>
      <point x="500" y="652" type="line"/>
      <point x="597" y="762"/>
      <point x="642" y="828"/>
      <point x="642" y="912" type="curve" smooth="yes"/>
      <point x="642" y="982"/>
      <point x="588" y="1048"/>
      <point x="497" y="1048" type="curve" smooth="yes"/>
      <point x="416" y="1048"/>
      <point x="370" y="978"/>
      <point x="370" y="913" type="curve" smooth="yes"/>
      <point x="370" y="827"/>
      <point x="415" y="768"/>
      <point x="583" y="696" type="curve"/>
      <point x="441" y="519" type="line"/>
      <point x="198" y="620"/>
      <point x="49" y="760"/>
      <point x="49" y="951" type="curve" smooth="yes"/>
      <point x="49" y="1122"/>
      <point x="190" y="1294"/>
      <point x="473" y="1294" type="curve" smooth="yes"/>
      <point x="765" y="1294"/>
      <point x="948" y="1090"/>
      <point x="948" y="894" type="curve" smooth="yes"/>
      <point x="948" y="757"/>
      <point x="905" y="682"/>
      <point x="823" y="576" type="curve" smooth="yes"/>
      <point x="595" y="309" type="line"/>
      <point x="558" y="413" type="line"/>
      <point x="798" y="247" type="line"/>
      <point x="903" y="174"/>
      <point x="944" y="98"/>
      <point x="944" y="31" type="curve" smooth="yes"/>
      <point x="945" y="-36"/>
      <point x="919" y="-98"/>
      <point x="874" y="-160" type="curve"/>
      <point x="580" y="-72" type="line"/>
      <point x="599" y="-37"/>
      <point x="609" y="-19"/>
      <point x="609" y="18" type="curve" smooth="yes"/>
      <point x="609" y="59"/>
      <point x="585" y="92"/>
      <point x="544" y="119" type="curve" smooth="yes"/>
      <point x="236" y="323" type="line"/>
    </contour>
  </outline>
</glyph>
<glyph name="twodeva" format="1">
  <advance width="1040"/>
  <unicode hex="0968"/>
  <outline>
    <contour>
      <point x="307" y="437" type="line"/>
      <point x="559" y="540" type="line"/>
      <point x="883" y="65" type="line"/>
      <point x="635" y="-55" type="line"/>
    </contour>
    <contour>
      <point x="331" y="316" type="curve" smooth="yes"/>
      <point x="168" y="316"/>
      <point x="72" y="402"/>
      <point x="72" y="493" type="curve" smooth="yes"/>
      <point x="72" y="610"/>
      <point x="196" y="742"/>
      <point x="322" y="742" type="curve" smooth="yes"/>
      <point x="416" y="742"/>
      <point x="484" y="690"/>
      <point x="541" y="575" type="curve"/>
      <point x="315" y="573" type="line"/>
      <point x="575" y="635"/>
      <point x="656" y="759"/>
      <point x="656" y="881" type="curve" smooth="yes"/>
      <point x="656" y="972"/>
      <point x="590" y="1038"/>
      <point x="478" y="1038" type="curve" smooth="yes"/>
      <point x="372" y="1038"/>
      <point x="266" y="1003"/>
      <point x="142" y="938" type="curve"/>
      <point x="51" y="1215" type="line"/>
      <point x="168" y="1265"/>
      <point x="300" y="1294"/>
      <point x="456" y="1293" type="curve" smooth="yes"/>
      <point x="778" y="1291"/>
      <point x="963" y="1117"/>
      <point x="963" y="863" type="curve" smooth="yes"/>
      <point x="963" y="571"/>
      <point x="668" y="316"/>
    </contour>
  </outline>
</glyph>
<glyph name="threedeva" format="1">
  <advance width="1049"/>
  <unicode hex="0969"/>
  <outline>
    <contour>
      <point x="310" y="114" type="line"/>
      <point x="575" y="198" type="line"/>
      <point x="745" y="-147" type="line"/>
      <point x="485" y="-251" type="line"/>
    </contour>
    <contour>
      <point x="758" y="637" type="curve"/>
      <point x="484" y="749" type="line"/>
      <point x="550" y="817"/>
      <point x="574" y="863"/>
      <point x="574" y="932" type="curve" smooth="yes"/>
      <point x="574" y="993"/>
      <point x="527" y="1043"/>
      <point x="439" y="1043" type="curve" smooth="yes"/>
      <point x="343" y="1043"/>
      <point x="247" y="1009"/>
      <point x="164" y="965" type="curve"/>
      <point x="61" y="1234" type="line"/>
      <point x="176" y="1283"/>
      <point x="285" y="1312"/>
      <point x="455" y="1312" type="curve" smooth="yes"/>
      <point x="751" y="1312"/>
      <point x="889" y="1154"/>
      <point x="889" y="950" type="curve" smooth="yes"/>
      <point x="889" y="838"/>
      <point x="846" y="723"/>
    </contour>
    <contour>
      <point x="493" y="842" type="curve" smooth="yes"/>
      <point x="798" y="842"/>
      <point x="968" y="631"/>
      <point x="968" y="404" type="curve" smooth="yes"/>
      <point x="968" y="175"/>
      <point x="798" y="5"/>
      <point x="457" y="5" type="curve" smooth="yes"/>
      <point x="212" y="5"/>
      <point x="98" y="69"/>
      <point x="98" y="164" type="curve" smooth="yes"/>
      <point x="98" y="287"/>
      <point x="240" y="407"/>
      <point x="377" y="407" type="curve" smooth="yes"/>
      <point x="456" y="407"/>
      <point x="531" y="361"/>
      <point x="571" y="228" type="curve"/>
      <point x="281" y="283" type="line"/>
      <point x="352" y="272"/>
      <point x="419" y="275"/>
      <point x="462" y="275" type="curve" smooth="yes"/>
      <point x="574" y="275"/>
      <point x="650" y="341"/>
      <point x="650" y="417" type="curve" smooth="yes"/>
      <point x="650" y="492"/>
      <point x="603" y="556"/>
      <point x="488" y="556" type="curve" smooth="yes"/>
      <point x="400" y="556"/>
      <point x="327" y="537"/>
      <point x="257" y="510" type="curve"/>
      <point x="179" y="789" type="line"/>
      <point x="267" y="818"/>
      <point x="386" y="842"/>
    </contour>
  </outline>
</glyph>
<glyph name="fourdeva" format="1">
  <advance width="1045"/>
  <unicode hex="096A"/>
  <outline>
    <contour>
      <point x="-71" y="1090" type="line"/>
      <point x="120" y="1298" type="line"/>
      <point x="522" y="1002" type="line"/>
      <point x="851" y="759"/>
      <point x="999" y="581"/>
      <point x="999" y="373" type="curve" smooth="yes"/>
      <point x="999" y="195"/>
      <point x="867" y="22"/>
      <point x="567" y="22" type="curve" smooth="yes"/>
      <point x="302" y="22"/>
      <point x="58" y="213"/>
      <point x="58" y="438" type="curve" smooth="yes"/>
      <point x="58" y="601"/>
      <point x="122" y="753"/>
      <point x="635" y="1107" type="curve" smooth="yes"/>
      <point x="899" y="1294" type="line"/>
      <point x="1114" y="1075" type="line"/>
      <point x="818" y="854" type="line"/>
      <point x="462" y="589"/>
      <point x="376" y="497"/>
      <point x="376" y="395" type="curve" smooth="yes"/>
      <point x="376" y="316"/>
      <point x="433" y="265"/>
      <point x="518" y="265" type="curve" smooth="yes"/>
      <point x="626" y="265"/>
      <point x="701" y="346"/>
      <point x="701" y="438" type="curve" smooth="yes"/>
      <point x="701" y="536"/>
      <point x="647" y="594"/>
      <point x="336" y="808" type="curve" smooth="yes"/>
    </contour>
  </outline>
</glyph>
<glyph name="fivedeva" format="1">
  <advance width="1172"/>
  <unicode hex="096B"/>
  <outline>
    <contour>
      <point x="387" y="651" type="curve" smooth="yes"/>
      <point x="387" y="531"/>
      <point x="466" y="444"/>
      <point x="587" y="443" type="curve" smooth="yes"/>
      <point x="681" y="442"/>
      <point x="743" y="488"/>
      <point x="872" y="591" type="curve"/>
      <point x="693" y="419" type="line"/>
      <point x="644" y="497"/>
      <point x="624" y="535"/>
      <point x="624" y="587" type="curve" smooth="yes"/>
      <point x="624" y="673"/>
      <point x="708" y="746"/>
      <point x="853" y="746" type="curve" smooth="yes"/>
      <point x="1027" y="746"/>
      <point x="1134" y="654"/>
      <point x="1134" y="569" type="curve" smooth="yes"/>
      <point x="1134" y="420"/>
      <point x="970" y="227"/>
      <point x="621" y="227" type="curve" smooth="yes"/>
      <point x="298" y="227"/>
      <point x="59" y="425"/>
      <point x="59" y="713" type="curve" smooth="yes"/>
      <point x="59" y="910"/>
      <point x="163" y="1129"/>
      <point x="395" y="1296" type="curve"/>
      <point x="667" y="1108" type="line"/>
      <point x="480" y="965"/>
      <point x="387" y="788"/>
    </contour>
    <contour>
      <point x="672" y="457" type="line"/>
      <point x="935" y="542" type="line"/>
      <point x="1223" y="9" type="line"/>
      <point x="968" y="-84" type="line"/>
    </contour>
  </outline>
</glyph>
<glyph name="sevendeva" format="1">
  <advance width="1332"/>
  <unicode hex="096D"/>
  <outline>
    <contour>
      <point x="1070" y="477" type="curve"/>
      <point x="1069" y="476"/>
      <point x="986" y="265"/>
      <point x="986" y="265" type="curve"/>
      <point x="642" y="351"/>
      <point x="471" y="511"/>
      <point x="471" y="736" type="curve" smooth="yes"/>
      <point x="471" y="912"/>
      <point x="583" y="1056"/>
      <point x="810" y="1056" type="curve" smooth="yes"/>
      <point x="1059" y="1056"/>
      <point x="1269" y="864"/>
      <point x="1269" y="584" type="curve" smooth="yes"/>
      <point x="1269" y="265"/>
      <point x="1064" y="23"/>
      <point x="709" y="23" type="curve" smooth="yes"/>
      <point x="367" y="23"/>
      <point x="81" y="283"/>
      <point x="81" y="740" type="curve" smooth="yes"/>
      <point x="81" y="930"/>
      <point x="122" y="1135"/>
      <point x="185" y="1291" type="curve"/>
      <point x="497" y="1201" type="line"/>
      <point x="420" y="1020"/>
      <point x="383" y="825"/>
      <point x="383" y="652" type="curve" smooth="yes"/>
      <point x="383" y="430"/>
      <point x="505" y="295"/>
      <point x="686" y="295" type="curve" smooth="yes"/>
      <point x="854" y="295"/>
      <point x="965" y="462"/>
      <point x="965" y="629" type="curve" smooth="yes"/>
      <point x="965" y="715"/>
      <point x="911" y="777"/>
      <point x="855" y="777" type="curve" smooth="yes"/>
      <point x="804" y="777"/>
      <point x="774" y="741"/>
      <point x="774" y="685" type="curve" smooth="yes"/>
      <point x="774" y="597"/>
      <point x="842" y="512"/>
    </contour>
  </outline>
</glyph>
<glyph name="eightdeva" format="1">
  <advance width="1045"/>
  <unicode hex="096E"/>
  <outline>
    <contour>
      <point x="623" y="1299" type="line"/>
      <point x="875" y="1094" type="line"/>
      <point x="465" y="626" type="line"/>
      <point x="379" y="528"/>
      <point x="355" y="469"/>
      <point x="355" y="406" type="curve" smooth="yes"/>
      <point x="355" y="329"/>
      <point x="436" y="277"/>
      <point x="547" y="277" type="curve" smooth="yes"/>
      <point x="673" y="277"/>
      <point x="782" y="346"/>
      <point x="955" y="475" type="curve"/>
      <point x="1119" y="210" type="line"/>
      <point x="936" y="67"/>
      <point x="778" y="6"/>
      <point x="597" y="6" type="curve" smooth="yes"/>
      <point x="328" y="6"/>
      <point x="57" y="216"/>
      <point x="57" y="464" type="curve" smooth="yes"/>
      <point x="57" y="593"/>
      <point x="87" y="688"/>
      <point x="203" y="822" type="curve" smooth="yes"/>
    </contour>
  </outline>
</glyph>
<glyph name="ninedeva" format="1">
  <advance width="1067"/>
  <unicode hex="096F"/>
  <outline>
    <contour>
      <point x="480" y="700" type="curve" smooth="yes"/>
      <point x="926" y="284" type="line"/>
      <point x="1005" y="210"/>
      <point x="1051" y="122"/>
      <point x="1051" y="48" type="curve" smooth="yes"/>
      <point x="1051" y="-27"/>
      <point x="1027" y="-97"/>
      <point x="996" y="-155" type="curve"/>
      <point x="654" y="-84" type="line"/>
      <point x="680" y="-39"/>
      <point x="693" y="-4"/>
      <point x="693" y="34" type="curve" smooth="yes"/>
      <point x="693" y="77"/>
      <point x="681" y="111"/>
      <point x="630" y="159" type="curve" smooth="yes"/>
      <point x="291" y="480" type="line"/>
      <point x="132" y="630"/>
      <point x="60" y="752"/>
      <point x="60" y="928" type="curve" smooth="yes"/>
      <point x="60" y="1117"/>
      <point x="213" y="1312"/>
      <point x="498" y="1312" type="curve" smooth="yes"/>
      <point x="803" y="1312"/>
      <point x="974" y="1107"/>
      <point x="974" y="877" type="curve" smooth="yes"/>
      <point x="974" y="674"/>
      <point x="820" y="503"/>
      <point x="582" y="467" type="curve"/>
      <point x="405" y="680" type="line"/>
      <point x="587" y="715"/>
      <point x="664" y="802"/>
      <point x="664" y="891" type="curve" smooth="yes"/>
      <point x="664" y="971"/>
      <point x="606" y="1038"/>
      <point x="521" y="1038" type="curve" smooth="yes"/>
      <point x="436" y="1038"/>
      <point x="382" y="968"/>
      <point x="382" y="891" type="curve" smooth="yes"/>
      <point x="382" y="820"/>
      <point x="410" y="765"/>
    </contour>
  </outline>
</glyph>
<glyph name="abbreviationsigndeva" format="1">
  <advance width="1054"/>
  <unicode hex="0970"/>
  <outline>
    <contour>
      <point x="536" y="430" type="curve" smooth="yes"/>
      <point x="295" y="430"/>
      <point x="141" y="595"/>
      <point x="141" y="794" type="curve" smooth="yes"/>
      <point x="141" y="988"/>
      <point x="294" y="1155"/>
      <point x="535" y="1155" type="curve" smooth="yes"/>
      <point x="777" y="1155"/>
      <point x="926" y="988"/>
      <point x="926" y="793" type="curve" smooth="yes"/>
      <point x="926" y="599"/>
      <point x="777" y="430"/>
    </contour>
    <contour>
      <point x="535" y="937" type="curve" smooth="yes"/>
      <point x="462" y="937"/>
      <point x="398" y="885"/>
      <point x="398" y="793" type="curve" smooth="yes"/>
      <point x="398" y="693"/>
      <point x="463" y="648"/>
      <point x="535" y="648" type="curve" smooth="yes"/>
      <point x="605" y="648"/>
      <point x="668" y="694"/>
      <point x="668" y="793" type="curve" smooth="yes"/>
      <point x="668" y="885"/>
      <point x="605" y="937"/>
    </contour>
  </outline>
</glyph>
<glyph name="ddadevaMAW" format="1">
  <advance width="1309"/>
  <unicode hex="0978"/>
  <outline>
    <contour>
      <point x="-30" y="1065" type="line"/>
      <point x="-30" y="1293" type="line"/>
      <point x="1339" y="1293" type="line"/>
      <point x="1339" y="1065" type="line"/>
    </contour>
    <contour>
      <point x="538" y="785" type="line"/>
      <point x="592" y="801"/>
      <point x="667" y="809"/>
      <point x="745" y="809" type="curve" smooth="yes"/>
      <point x="1018" y="809"/>
      <point x="1197" y="652"/>
      <point x="1197" y="412" type="curve" smooth="yes"/>
      <point x="1197" y="292"/>
      <point x="1148" y="164"/>
      <point x="1081" y="76" type="curve"/>
      <point x="796" y="176" type="line"/>
      <point x="861" y="270"/>
      <point x="898" y="352"/>
      <point x="898" y="432" type="curve" smooth="yes"/>
      <point x="898" y="490"/>
      <point x="859" y="529"/>
      <point x="794" y="529" type="curve" smooth="yes"/>
      <point x="706" y="529"/>
      <point x="610" y="480"/>
      <point x="512" y="376" type="curve"/>
      <point x="562" y="480" type="line"/>
      <point x="562" y="332" type="line"/>
      <point x="562" y="243"/>
      <point x="520" y="191"/>
      <point x="442" y="191" type="curve" smooth="yes"/>
      <point x="360" y="191"/>
      <point x="227" y="248"/>
      <point x="126" y="349" type="curve" smooth="yes"/>
      <point x="63" y="412"/>
      <point x="26" y="487"/>
      <point x="26" y="544" type="curve" smooth="yes"/>
      <point x="26" y="606"/>
      <point x="61" y="647"/>
      <point x="153" y="675" type="curve" smooth="yes"/>
      <point x="251" y="704" type="line"/>
      <point x="215" y="675" type="line"/>
      <point x="215" y="1104" type="line"/>
      <point x="562" y="1104" type="line"/>
      <point x="562" y="671" type="line"/>
    </contour>
    <contour>
      <point x="459" y="3" type="move" name="btm"/>
    </contour>
    <contour>
      <point x="214" y="1293" type="move" name="top"/>
    </contour>
  </outline>
</glyph>
<glyph name="jjyadeva" format="1">
  <advance width="1422"/>
  <unicode hex="097A"/>
  <outline>
    <contour>
      <point x="1021" y="536" type="line"/>
      <point x="846" y="402" type="line"/>
      <point x="381" y="1092" type="line"/>
      <point x="564" y="1228" type="line"/>
    </contour>
    <contour>
      <point x="-30" y="1065" type="line"/>
      <point x="-30" y="1293" type="line"/>
      <point x="1452" y="1293" type="line"/>
      <point x="1452" y="1065" type="line"/>
    </contour>
    <contour>
      <point x="320" y="1104" type="line"/>
      <point x="650" y="1104" type="line"/>
      <point x="650" y="933" type="line"/>
      <point x="650" y="713"/>
      <point x="559" y="588"/>
      <point x="334" y="518" type="curve"/>
      <point x="343" y="622" type="line"/>
      <point x="408" y="539"/>
      <point x="502" y="481"/>
      <point x="616" y="481" type="curve" smooth="yes"/>
      <point x="771" y="481"/>
      <point x="874" y="552"/>
      <point x="931" y="684" type="curve"/>
      <point x="931" y="245" type="line"/>
      <point x="875" y="223"/>
      <point x="805" y="212"/>
      <point x="711" y="212" type="curve" smooth="yes"/>
      <point x="404" y="212"/>
      <point x="142" y="397"/>
      <point x="12" y="668" type="curve"/>
      <point x="12" y="674" type="line"/>
      <point x="229" y="745"/>
      <point x="320" y="823"/>
      <point x="320" y="956" type="curve" smooth="yes"/>
    </contour>
    <contour>
      <point x="885" y="1104" type="line"/>
      <point x="1233" y="1104" type="line"/>
      <point x="1233" y="0" type="line"/>
      <point x="885" y="0" type="line"/>
    </contour>
    <contour>
      <point x="885" y="1293" type="move" name="top"/>
    </contour>
  </outline>
</glyph>
<glyph name="uni097D" format="1">
  <advance width="1123"/>
  <unicode hex="097D"/>
  <outline>
    <contour>
      <point x="654" y="521" type="line"/>
      <point x="654" y="0" type="line"/>
      <point x="306" y="0" type="line"/>
      <point x="306" y="692" type="line"/>
      <point x="318" y="693" type="line"/>
      <point x="591" y="713"/>
      <point x="679" y="833"/>
      <point x="679" y="920" type="curve" smooth="yes"/>
      <point x="679" y="996"/>
      <point x="626" y="1048"/>
      <point x="534" y="1048" type="curve" smooth="yes"/>
      <point x="450" y="1048"/>
      <point x="363" y="1021"/>
      <point x="242" y="963" type="curve"/>
      <point x="165" y="1224" type="line"/>
      <point x="289" y="1278"/>
      <point x="406" y="1302"/>
      <point x="547" y="1302" type="curve" smooth="yes"/>
      <point x="830" y="1302"/>
      <point x="991" y="1122"/>
      <point x="991" y="889" type="curve" smooth="yes"/>
      <point x="991" y="668"/>
      <point x="796" y="505"/>
      <point x="616" y="479" type="curve"/>
    </contour>
  </outline>
</glyph>
<glyph name="ddabardeva" format="1">
  <advance width="1241"/>
  <unicode hex="097E"/>
  <outline>
    <contour>
      <point x="1124" y="-281" type="line"/>
      <point x="113" y="-281" type="line"/>
      <point x="113" y="-81" type="line"/>
      <point x="1124" y="-81" type="line"/>
    </contour>
    <component base="ddadeva"/>
    <contour>
      <point x="849" y="6" type="move" name="mark0"/>
    </contour>
  </outline>
</glyph>
<glyph name="endash.deva" format="1">
  <advance width="1029"/>
  <unicode hex="2013"/>
  <outline>
    <contour>
      <point x="98" y="377" type="line"/>
      <point x="98" y="616" type="line"/>
      <point x="885" y="616" type="line"/>
      <point x="885" y="377" type="line"/>
    </contour>
  </outline>
</glyph>
<glyph name="emdash.deva" format="1">
  <advance width="1947"/>
  <unicode hex="2014"/>
  <outline>
    <contour>
      <point x="98" y="377" type="line"/>
      <point x="98" y="616" type="line"/>
      <point x="1803" y="616" type="line"/>
      <point x="1803" y="377" type="line"/>
    </contour>
  </outline>
</glyph>
<glyph name="quoteright.deva" format="1">
  <advance width="-698"/>
  <unicode hex="2019"/>
  <outline>
    <contour>
      <point x="-152" y="1316" type="line"/>
      <point x="-129" y="1290" type="line"/>
      <point x="-57" y="1530"/>
      <point x="8" y="1686"/>
      <point x="70" y="1755" type="curve" smooth="yes"/>
      <point x="-47" y="1437"/>
      <point x="7" y="1139"/>
      <point x="-122" y="865" type="curve"/>
      <point x="-174" y="693"/>
      <point x="-674" y="472"/>
      <point x="-731" y="208" type="curve"/>
      <point x="-620" y="634"/>
      <point x="-540" y="1001"/>
      <point x="-494" y="1316" type="curve"/>
    </contour>
  </outline>
</glyph>
<glyph name="uni20B9.deva" format="1">
  <advance width="1138"/>
  <unicode hex="20B9"/>
  <outline>
    <contour>
      <point x="98" y="742" type="line"/>
      <point x="98" y="951" type="line"/>
      <point x="1048" y="951" type="line"/>
      <point x="1048" y="742" type="line"/>
    </contour>
    <contour>
      <point x="98" y="1084" type="line"/>
      <point x="98" y="1293" type="line"/>
      <point x="1048" y="1293" type="line"/>
      <point x="1048" y="1084" type="line"/>
    </contour>
    <contour>
      <point x="136" y="479" type="line"/>
      <point x="139" y="565" type="line"/>
      <point x="419" y="579"/>
      <point x="540" y="707"/>
      <point x="540" y="854" type="curve" smooth="yes"/>
      <point x="540" y="992"/>
      <point x="435" y="1085"/>
      <point x="300" y="1085" type="curve" smooth="yes"/>
      <point x="280" y="1085" type="line"/>
      <point x="283" y="1255" type="line"/>
      <point x="371" y="1255" type="line"/>
      <point x="679" y="1255"/>
      <point x="866" y="1060"/>
      <point x="866" y="836" type="curve" smooth="yes"/>
      <point x="866" y="612"/>
      <point x="718" y="469"/>
      <point x="481" y="389" type="curve"/>
      <point x="481" y="484" type="line"/>
      <point x="889" y="16" type="line"/>
      <point x="890" y="0" type="line"/>
      <point x="543" y="0" type="line"/>
    </contour>
  </outline>
</glyph>
<glyph name="uni25CC" format="1">
  <advance width="1211"/>
  <unicode hex="25CC"/>
  <outline>
    <contour>
      <point x="705" y="991" type="curve" smooth="yes"/>
      <point x="705" y="949"/>
      <point x="671" y="929"/>
      <point x="601" y="929" type="curve" smooth="yes"/>
      <point x="533" y="929"/>
      <point x="500" y="950"/>
      <point x="500" y="991" type="curve" smooth="yes"/>
      <point x="500" y="1033"/>
      <point x="531" y="1055"/>
      <point x="601" y="1055" type="curve" smooth="yes"/>
      <point x="671" y="1055"/>
      <point x="705" y="1033"/>
    </contour>
    <contour>
      <point x="425" y="891" type="curve" smooth="yes"/>
      <point x="425" y="849"/>
      <point x="390" y="827"/>
      <point x="322" y="827" type="curve" smooth="yes"/>
      <point x="254" y="827"/>
      <point x="219" y="849"/>
      <point x="219" y="891" type="curve" smooth="yes"/>
      <point x="219" y="932"/>
      <point x="254" y="955"/>
      <point x="322" y="955" type="curve" smooth="yes"/>
      <point x="390" y="955"/>
      <point x="425" y="932"/>
    </contour>
    <contour>
      <point x="988" y="891" type="curve" smooth="yes"/>
      <point x="988" y="849"/>
      <point x="953" y="827"/>
      <point x="885" y="827" type="curve" smooth="yes"/>
      <point x="817" y="827"/>
      <point x="782" y="849"/>
      <point x="782" y="891" type="curve" smooth="yes"/>
      <point x="782" y="932"/>
      <point x="817" y="955"/>
      <point x="885" y="955" type="curve" smooth="yes"/>
      <point x="953" y="955"/>
      <point x="988" y="932"/>
    </contour>
    <contour>
      <point x="1085" y="638" type="curve" smooth="yes"/>
      <point x="1085" y="597"/>
      <point x="1052" y="574"/>
      <point x="981" y="574" type="curve" smooth="yes"/>
      <point x="914" y="574"/>
      <point x="880" y="597"/>
      <point x="880" y="638" type="curve" smooth="yes"/>
      <point x="880" y="679"/>
      <point x="914" y="702"/>
      <point x="981" y="702" type="curve" smooth="yes"/>
      <point x="1052" y="702"/>
      <point x="1085" y="679"/>
    </contour>
    <contour>
      <point x="327" y="638" type="curve" smooth="yes"/>
      <point x="327" y="597"/>
      <point x="290" y="574"/>
      <point x="225" y="574" type="curve" smooth="yes"/>
      <point x="156" y="574"/>
      <point x="122" y="597"/>
      <point x="122" y="638" type="curve" smooth="yes"/>
      <point x="122" y="679"/>
      <point x="156" y="702"/>
      <point x="225" y="702" type="curve" smooth="yes"/>
      <point x="290" y="702"/>
      <point x="327" y="679"/>
    </contour>
    <contour>
      <point x="425" y="385" type="curve" smooth="yes"/>
      <point x="425" y="344"/>
      <point x="390" y="321"/>
      <point x="322" y="321" type="curve" smooth="yes"/>
      <point x="254" y="321"/>
      <point x="219" y="344"/>
      <point x="219" y="385" type="curve" smooth="yes"/>
      <point x="219" y="427"/>
      <point x="254" y="449"/>
      <point x="322" y="449" type="curve" smooth="yes"/>
      <point x="390" y="449"/>
      <point x="425" y="427"/>
    </contour>
    <contour>
      <point x="988" y="385" type="curve" smooth="yes"/>
      <point x="988" y="344"/>
      <point x="953" y="321"/>
      <point x="885" y="321" type="curve" smooth="yes"/>
      <point x="817" y="321"/>
      <point x="782" y="344"/>
      <point x="782" y="385" type="curve" smooth="yes"/>
      <point x="782" y="427"/>
      <point x="817" y="449"/>
      <point x="885" y="449" type="curve" smooth="yes"/>
      <point x="953" y="449"/>
      <point x="988" y="427"/>
    </contour>
    <contour>
      <point x="705" y="285" type="curve" smooth="yes"/>
      <point x="705" y="241"/>
      <point x="671" y="220"/>
      <point x="601" y="220" type="curve" smooth="yes"/>
      <point x="533" y="220"/>
      <point x="500" y="242"/>
      <point x="500" y="285" type="curve" smooth="yes"/>
      <point x="500" y="326"/>
      <point x="533" y="347"/>
      <point x="601" y="347" type="curve" smooth="yes"/>
      <point x="671" y="347"/>
      <point x="705" y="327"/>
    </contour>
  </outline>
</glyph>
<glyph name="acandraanusvaradeva" format="1">
  <advance width="1738"/>
  <outline>
    <contour>
      <point x="0" y="0" type="line"/>
      <point x="1738" y="0" type="line"/>
      <point x="1738" y="20" type="line"/>
      <point x="0" y="20" type="line"/>
    </contour>
  </outline>
</glyph>
<glyph name="candrabindusmalldeva" format="1">
  <advance width="0"/>
  <outline>
    <contour>
      <point x="-369" y="1834" type="curve" smooth="yes"/>
      <point x="-275" y="1836"/>
      <point x="-233" y="1774"/>
      <point x="-231" y="1721" type="curve" smooth="yes"/>
      <point x="-229" y="1667"/>
      <point x="-268" y="1601"/>
      <point x="-361" y="1598" type="curve" smooth="yes"/>
      <point x="-449" y="1596"/>
      <point x="-497" y="1656"/>
      <point x="-499" y="1712" type="curve" smooth="yes"/>
      <point x="-501" y="1767"/>
      <point x="-459" y="1832"/>
    </contour>
    <contour>
      <point x="42" y="1476" type="line"/>
      <point x="-72" y="1345"/>
      <point x="-194" y="1281"/>
      <point x="-348" y="1281" type="curve" smooth="yes"/>
      <point x="-495" y="1281"/>
      <point x="-625" y="1345"/>
      <point x="-755" y="1475" type="curve"/>
      <point x="-652" y="1689" type="line"/>
      <point x="-541" y="1575"/>
      <point x="-470" y="1526"/>
      <point x="-356" y="1526" type="curve" smooth="yes"/>
      <point x="-241" y="1526"/>
      <point x="-168" y="1577"/>
      <point x="-78" y="1682" type="curve"/>
    </contour>
    <contour>
      <point x="-419" y="1280" type="move" name="_mark0"/>
    </contour>
  </outline>
</glyph>
<glyph name="chanuktaprehalfdeva" format="1">
  <advance width="1608"/>
  <outline>
    <contour>
      <point x="0" y="0" type="line"/>
      <point x="1608" y="0" type="line"/>
      <point x="1608" y="20" type="line"/>
      <point x="0" y="20" type="line"/>
    </contour>
  </outline>
</glyph>
<glyph name="chanuktaradeva" format="1">
  <advance width="1573"/>
  <outline>
    <contour>
      <point x="0" y="0" type="line"/>
      <point x="1573" y="0" type="line"/>
      <point x="1573" y="20" type="line"/>
      <point x="0" y="20" type="line"/>
    </contour>
  </outline>
</glyph>
<glyph name="chaprehalfdeva" format="1">
  <advance width="1629"/>
  <outline>
    <contour>
      <point x="603" y="765" type="curve"/>
      <point x="381" y="590" type="line"/>
      <point x="147" y="663"/>
      <point x="61" y="791"/>
      <point x="61" y="955" type="curve" smooth="yes"/>
      <point x="61" y="1095"/>
      <point x="207" y="1260"/>
      <point x="516" y="1264" type="curve"/>
      <point x="615" y="1085" type="line"/>
      <point x="471" y="1074"/>
      <point x="406" y="991"/>
      <point x="406" y="920" type="curve" smooth="yes"/>
      <point x="406" y="843"/>
      <point x="459" y="788"/>
    </contour>
    <contour>
      <point x="1659" y="1065" type="line"/>
      <point x="-30" y="1065" type="line"/>
      <point x="-30" y="1293" type="line"/>
      <point x="1659" y="1293" type="line"/>
    </contour>
    <contour>
      <point x="684" y="806" type="curve"/>
      <point x="772" y="536" type="line"/>
      <point x="770" y="536"/>
      <point x="768" y="536"/>
      <point x="767" y="536" type="curve" smooth="yes"/>
      <point x="597" y="521"/>
      <point x="541" y="451"/>
      <point x="541" y="376" type="curve" smooth="yes"/>
      <point x="541" y="296"/>
      <point x="609" y="236"/>
      <point x="743" y="236" type="curve" smooth="yes"/>
      <point x="1025" y="236"/>
      <point x="1285" y="457"/>
      <point x="1285" y="652" type="curve" smooth="yes"/>
      <point x="1285" y="715"/>
      <point x="1242" y="759"/>
      <point x="1187" y="759" type="curve" smooth="yes"/>
      <point x="1131" y="759"/>
      <point x="1094" y="710"/>
      <point x="1094" y="658" type="curve" smooth="yes"/>
      <point x="1094" y="562"/>
      <point x="1152" y="482"/>
      <point x="1335" y="360" type="curve"/>
      <point x="1164" y="199" type="line"/>
      <point x="913" y="367"/>
      <point x="809" y="540"/>
      <point x="809" y="700" type="curve" smooth="yes"/>
      <point x="809" y="858"/>
      <point x="940" y="997"/>
      <point x="1159" y="997" type="curve" smooth="yes"/>
      <point x="1418" y="997"/>
      <point x="1566" y="855"/>
      <point x="1566" y="625" type="curve" smooth="yes"/>
      <point x="1566" y="349"/>
      <point x="1258" y="-33"/>
      <point x="740" y="-33" type="curve" smooth="yes"/>
      <point x="374" y="-33"/>
      <point x="194" y="183"/>
      <point x="194" y="418" type="curve" smooth="yes"/>
      <point x="194" y="614"/>
      <point x="361" y="791"/>
      <point x="679" y="806" type="curve" smooth="yes"/>
      <point x="681" y="806"/>
      <point x="682" y="806"/>
    </contour>
  </outline>
</glyph>
<glyph name="chayadeva" format="1">
  <advance width="2985"/>
  <outline>
    <contour>
      <point x="1256" y="726" type="line"/>
      <point x="1072" y="949" type="line"/>
      <point x="1845" y="949" type="line"/>
      <point x="2065" y="949"/>
      <point x="2197" y="816"/>
      <point x="2197" y="676" type="curve" smooth="yes"/>
      <point x="2197" y="518"/>
      <point x="2076" y="427"/>
      <point x="1868" y="396" type="curve"/>
      <point x="1868" y="488" type="line"/>
      <point x="1933" y="411"/>
      <point x="2024" y="355"/>
      <point x="2128" y="355" type="curve" smooth="yes"/>
      <point x="2273" y="355"/>
      <point x="2399" y="441"/>
      <point x="2454" y="572" type="curve"/>
      <point x="2454" y="112" type="line"/>
      <point x="2398" y="89"/>
      <point x="2347" y="78"/>
      <point x="2234" y="78" type="curve" smooth="yes"/>
      <point x="1926" y="78"/>
      <point x="1674" y="274"/>
      <point x="1566" y="535" type="curve"/>
      <point x="1566" y="541" type="line"/>
      <point x="1761" y="567"/>
      <point x="1867" y="606"/>
      <point x="1867" y="668" type="curve" smooth="yes"/>
      <point x="1867" y="710"/>
      <point x="1826" y="726"/>
      <point x="1730" y="726" type="curve" smooth="yes"/>
    </contour>
    <contour>
      <point x="2408" y="1104" type="line"/>
      <point x="2757" y="1104" type="line"/>
      <point x="2757" y="0" type="line"/>
      <point x="2408" y="0" type="line"/>
    </contour>
    <contour>
      <point x="1514" y="1065" type="line"/>
      <point x="1514" y="1293" type="line"/>
      <point x="2969" y="1293" type="line"/>
      <point x="2969" y="1065" type="line"/>
    </contour>
    <contour>
      <point x="634" y="805" type="curve"/>
      <point x="723" y="535" type="line"/>
      <point x="721" y="535"/>
      <point x="722" y="535"/>
      <point x="720" y="535" type="curve" smooth="yes"/>
      <point x="566" y="534"/>
      <point x="496" y="460"/>
      <point x="496" y="389" type="curve" smooth="yes"/>
      <point x="496" y="315"/>
      <point x="553" y="255"/>
      <point x="687" y="255" type="curve" smooth="yes"/>
      <point x="941" y="255"/>
      <point x="1207" y="472"/>
      <point x="1207" y="646" type="curve" smooth="yes"/>
      <point x="1207" y="706"/>
      <point x="1170" y="746"/>
      <point x="1122" y="746" type="curve" smooth="yes"/>
      <point x="1074" y="746"/>
      <point x="1038" y="706"/>
      <point x="1038" y="653" type="curve" smooth="yes"/>
      <point x="1038" y="568"/>
      <point x="1086" y="502"/>
      <point x="1269" y="369" type="curve"/>
      <point x="1101" y="228" type="line"/>
      <point x="844" y="395"/>
      <point x="754" y="540"/>
      <point x="754" y="695" type="curve" smooth="yes"/>
      <point x="754" y="830"/>
      <point x="848" y="949"/>
      <point x="1073" y="949" type="curve" smooth="yes"/>
      <point x="1324" y="949"/>
      <point x="1491" y="828"/>
      <point x="1491" y="602" type="curve" smooth="yes"/>
      <point x="1491" y="331"/>
      <point x="1182" y="-2"/>
      <point x="693" y="-2" type="curve" smooth="yes"/>
      <point x="336" y="-2"/>
      <point x="147" y="212"/>
      <point x="147" y="437" type="curve" smooth="yes"/>
      <point x="147" y="642"/>
      <point x="321" y="805"/>
      <point x="631" y="805" type="curve" smooth="yes"/>
      <point x="633" y="805"/>
      <point x="632" y="805"/>
    </contour>
    <contour>
      <point x="562" y="765" type="curve"/>
      <point x="341" y="590" type="line"/>
      <point x="107" y="663"/>
      <point x="21" y="791"/>
      <point x="21" y="956" type="curve" smooth="yes"/>
      <point x="21" y="1094"/>
      <point x="166" y="1259"/>
      <point x="476" y="1264" type="curve"/>
      <point x="575" y="1085" type="line"/>
      <point x="431" y="1074"/>
      <point x="366" y="992"/>
      <point x="366" y="920" type="curve" smooth="yes"/>
      <point x="366" y="844"/>
      <point x="417" y="789"/>
    </contour>
    <contour>
      <point x="1587" y="1065" type="line"/>
      <point x="-104" y="1065" type="line"/>
      <point x="-104" y="1293" type="line"/>
      <point x="1587" y="1293" type="line"/>
    </contour>
  </outline>
</glyph>
<glyph name="dabhadeva" format="1">
  <advance width="1723"/>
  <outline>
    <contour>
      <point x="-49" y="1065" type="line"/>
      <point x="-49" y="1293" type="line"/>
      <point x="1743" y="1293" type="line"/>
      <point x="1743" y="1065" type="line"/>
    </contour>
    <contour>
      <point x="1207" y="152" type="line"/>
      <point x="1462" y="229" type="line"/>
      <point x="1756" y="-318" type="line"/>
      <point x="1515" y="-420" type="line"/>
    </contour>
    <contour>
      <point x="1176" y="40" type="curve" smooth="yes"/>
      <point x="834" y="40"/>
      <point x="575" y="248"/>
      <point x="575" y="507" type="curve" smooth="yes"/>
      <point x="575" y="733"/>
      <point x="737" y="893"/>
      <point x="1076" y="893" type="curve" smooth="yes"/>
      <point x="1228" y="893" type="line"/>
      <point x="1178" y="838" type="line"/>
      <point x="1178" y="1096" type="line"/>
      <point x="1508" y="1096" type="line"/>
      <point x="1508" y="642" type="line"/>
      <point x="1203" y="642" type="line"/>
      <point x="986" y="642"/>
      <point x="909" y="559"/>
      <point x="909" y="450" type="curve" smooth="yes"/>
      <point x="909" y="339"/>
      <point x="1017" y="263"/>
      <point x="1136" y="263" type="curve" smooth="yes"/>
      <point x="1181" y="263"/>
      <point x="1235" y="271"/>
      <point x="1310" y="294" type="curve"/>
      <point x="1191" y="191" type="line"/>
      <point x="1155" y="245"/>
      <point x="1137" y="307"/>
      <point x="1137" y="352" type="curve" smooth="yes"/>
      <point x="1137" y="418"/>
      <point x="1188" y="495"/>
      <point x="1323" y="495" type="curve" smooth="yes"/>
      <point x="1509" y="495"/>
      <point x="1649" y="394"/>
      <point x="1649" y="289" type="curve" smooth="yes"/>
      <point x="1649" y="173"/>
      <point x="1480" y="40"/>
    </contour>
    <contour>
      <point x="387" y="41" type="line"/>
      <point x="350" y="108"/>
      <point x="316" y="132"/>
      <point x="269" y="132" type="curve" smooth="yes"/>
      <point x="216" y="132"/>
      <point x="180" y="98"/>
      <point x="180" y="52" type="curve" smooth="yes"/>
      <point x="180" y="-1"/>
      <point x="221" y="-33"/>
      <point x="279" y="-35" type="curve" smooth="yes"/>
      <point x="330" y="-37"/>
      <point x="393" y="-25"/>
      <point x="453" y="15" type="curve"/>
      <point x="534" y="-150" type="line"/>
      <point x="451" y="-198"/>
      <point x="386" y="-220"/>
      <point x="278" y="-220" type="curve" smooth="yes"/>
      <point x="74" y="-220"/>
      <point x="-81" y="-106"/>
      <point x="-81" y="77" type="curve" smooth="yes"/>
      <point x="-81" y="227"/>
      <point x="57" y="362"/>
      <point x="266" y="362" type="curve" smooth="yes"/>
      <point x="463" y="362"/>
      <point x="587" y="256"/>
      <point x="658" y="125" type="curve" smooth="yes"/>
      <point x="808" y="-156" type="line"/>
      <point x="759" y="-134" type="line"/>
      <point x="1273" y="133" type="line"/>
      <point x="1396" y="-95" type="line"/>
      <point x="867" y="-370" type="line"/>
      <point x="888" y="-303" type="line"/>
      <point x="937" y="-392" type="line"/>
      <point x="955" y="-427"/>
      <point x="964" y="-457"/>
      <point x="963" y="-485" type="curve" smooth="yes"/>
      <point x="959" y="-542"/>
      <point x="903" y="-579"/>
      <point x="799" y="-579" type="curve" smooth="yes"/>
      <point x="587" y="-579"/>
      <point x="408" y="-470"/>
      <point x="408" y="-380" type="curve" smooth="yes"/>
      <point x="408" y="-344"/>
      <point x="429" y="-309"/>
      <point x="467" y="-288" type="curve" smooth="yes"/>
      <point x="582" y="-225" type="line"/>
      <point x="553" y="-268" type="line"/>
    </contour>
    <contour>
      <point x="1768" y="6" type="move" name="mark0"/>
    </contour>
  </outline>
</glyph>
<glyph name="dadhadeva" format="1">
  <advance width="1570"/>
  <outline>
    <contour>
      <point x="1053" y="152" type="line"/>
      <point x="1308" y="229" type="line"/>
      <point x="1602" y="-318" type="line"/>
      <point x="1361" y="-420" type="line"/>
    </contour>
    <contour>
      <point x="911" y="66" type="line"/>
      <point x="784" y="20"/>
      <point x="738" y="-65"/>
      <point x="737" y="-115" type="curve" smooth="yes"/>
      <point x="736" y="-163"/>
      <point x="771" y="-201"/>
      <point x="821" y="-200" type="curve" smooth="yes"/>
      <point x="958" y="-198"/>
      <point x="1078" y="-39"/>
      <point x="1055" y="187" type="curve"/>
      <point x="1261" y="-197" type="line"/>
      <point x="1161" y="-352"/>
      <point x="1009" y="-443"/>
      <point x="838" y="-443" type="curve" smooth="yes"/>
      <point x="592" y="-443"/>
      <point x="454" y="-302"/>
      <point x="454" y="-120" type="curve" smooth="yes"/>
      <point x="454" y="6"/>
      <point x="523" y="130"/>
      <point x="715" y="245" type="curve"/>
    </contour>
    <contour>
      <point x="-25" y="1065" type="line"/>
      <point x="-25" y="1293" type="line"/>
      <point x="1589" y="1293" type="line"/>
      <point x="1589" y="1065" type="line"/>
    </contour>
    <contour>
      <point x="1022" y="40" type="curve" smooth="yes"/>
      <point x="681" y="40"/>
      <point x="421" y="248"/>
      <point x="421" y="507" type="curve" smooth="yes"/>
      <point x="421" y="733"/>
      <point x="583" y="893"/>
      <point x="922" y="893" type="curve" smooth="yes"/>
      <point x="1074" y="893" type="line"/>
      <point x="1024" y="838" type="line"/>
      <point x="1024" y="1096" type="line"/>
      <point x="1354" y="1096" type="line"/>
      <point x="1354" y="642" type="line"/>
      <point x="1049" y="642" type="line"/>
      <point x="832" y="642"/>
      <point x="755" y="559"/>
      <point x="755" y="450" type="curve" smooth="yes"/>
      <point x="755" y="339"/>
      <point x="863" y="263"/>
      <point x="982" y="263" type="curve" smooth="yes"/>
      <point x="1027" y="263"/>
      <point x="1081" y="271"/>
      <point x="1156" y="294" type="curve"/>
      <point x="1037" y="191" type="line"/>
      <point x="1001" y="245"/>
      <point x="983" y="307"/>
      <point x="983" y="352" type="curve" smooth="yes"/>
      <point x="983" y="418"/>
      <point x="1034" y="495"/>
      <point x="1169" y="495" type="curve" smooth="yes"/>
      <point x="1356" y="495"/>
      <point x="1495" y="394"/>
      <point x="1495" y="289" type="curve" smooth="yes"/>
      <point x="1495" y="173"/>
      <point x="1326" y="40"/>
    </contour>
    <contour>
      <point x="539" y="-35" type="line"/>
      <point x="470" y="-63"/>
      <point x="413" y="-70"/>
      <point x="347" y="-70" type="curve" smooth="yes"/>
      <point x="119" y="-70"/>
      <point x="-20" y="67"/>
      <point x="-20" y="236" type="curve" smooth="yes"/>
      <point x="-20" y="368"/>
      <point x="40" y="484"/>
      <point x="144" y="566" type="curve"/>
      <point x="343" y="422" type="line"/>
      <point x="302" y="353"/>
      <point x="286" y="315"/>
      <point x="286" y="258" type="curve" smooth="yes"/>
      <point x="286" y="185"/>
      <point x="343" y="142"/>
      <point x="435" y="144" type="curve" smooth="yes"/>
      <point x="517" y="145"/>
      <point x="585" y="165"/>
      <point x="644" y="190" type="curve"/>
    </contour>
    <contour>
      <point x="1669" y="6" type="move" name="mark0"/>
    </contour>
  </outline>
</glyph>
<glyph name="dadhayadeva" format="1">
  <advance width="2254"/>
  <outline>
    <contour>
      <point x="1714" y="1104" type="line"/>
      <point x="2063" y="1104" type="line"/>
      <point x="2063" y="-492" type="line"/>
      <point x="1714" y="-492" type="line"/>
    </contour>
    <contour>
      <point x="1198" y="171" type="line"/>
      <point x="1269" y="30"/>
      <point x="1356" y="-20"/>
      <point x="1465" y="-20" type="curve" smooth="yes"/>
      <point x="1583" y="-20"/>
      <point x="1704" y="44"/>
      <point x="1761" y="184" type="curve"/>
      <point x="1761" y="-276" type="line"/>
      <point x="1704" y="-296"/>
      <point x="1644" y="-308"/>
      <point x="1567" y="-308" type="curve" smooth="yes"/>
      <point x="1362" y="-308"/>
      <point x="1124" y="-233"/>
      <point x="981" y="135" type="curve"/>
    </contour>
    <contour>
      <point x="-30" y="1065" type="line"/>
      <point x="-30" y="1293" type="line"/>
      <point x="2284" y="1293" type="line"/>
      <point x="2284" y="1065" type="line"/>
    </contour>
    <contour>
      <point x="567" y="-47" type="line"/>
      <point x="509" y="-71"/>
      <point x="447" y="-84"/>
      <point x="336" y="-84" type="curve" smooth="yes"/>
      <point x="108" y="-84"/>
      <point x="-37" y="53"/>
      <point x="-37" y="243" type="curve" smooth="yes"/>
      <point x="-37" y="348"/>
      <point x="3" y="453"/>
      <point x="74" y="551" type="curve"/>
      <point x="310" y="406" type="line"/>
      <point x="272" y="356"/>
      <point x="252" y="295"/>
      <point x="252" y="242" type="curve" smooth="yes"/>
      <point x="252" y="179"/>
      <point x="298" y="128"/>
      <point x="387" y="128" type="curve" smooth="yes"/>
      <point x="464" y="128"/>
      <point x="533" y="148"/>
      <point x="599" y="192" type="curve"/>
    </contour>
    <contour>
      <point x="975" y="51" type="curve" smooth="yes"/>
      <point x="622" y="51"/>
      <point x="374" y="240"/>
      <point x="374" y="511" type="curve" smooth="yes"/>
      <point x="374" y="737"/>
      <point x="527" y="908"/>
      <point x="883" y="908" type="curve" smooth="yes"/>
      <point x="1076" y="908" type="line"/>
      <point x="1007" y="852" type="line"/>
      <point x="1007" y="1096" type="line"/>
      <point x="1356" y="1096" type="line"/>
      <point x="1356" y="665" type="line"/>
      <point x="978" y="665" type="line"/>
      <point x="778" y="665"/>
      <point x="698" y="588"/>
      <point x="698" y="471" type="curve" smooth="yes"/>
      <point x="698" y="366"/>
      <point x="789" y="292"/>
      <point x="913" y="292" type="curve" smooth="yes"/>
      <point x="1006" y="292"/>
      <point x="1052" y="294"/>
      <point x="1168" y="319" type="curve"/>
      <point x="974" y="209" type="line"/>
      <point x="938" y="263"/>
      <point x="921" y="320"/>
      <point x="921" y="369" type="curve" smooth="yes"/>
      <point x="921" y="435"/>
      <point x="962" y="510"/>
      <point x="1108" y="510" type="curve" smooth="yes"/>
      <point x="1305" y="510"/>
      <point x="1456" y="411"/>
      <point x="1456" y="291" type="curve" smooth="yes"/>
      <point x="1456" y="169"/>
      <point x="1294" y="51"/>
    </contour>
    <contour>
      <point x="865" y="65" type="line"/>
      <point x="739" y="20"/>
      <point x="696" y="-67"/>
      <point x="695" y="-117" type="curve" smooth="yes"/>
      <point x="695" y="-165"/>
      <point x="725" y="-200"/>
      <point x="784" y="-200" type="curve" smooth="yes"/>
      <point x="911" y="-200"/>
      <point x="1033" y="-39"/>
      <point x="1010" y="188" type="curve"/>
      <point x="1216" y="-197" type="line"/>
      <point x="1116" y="-352"/>
      <point x="973" y="-443"/>
      <point x="783" y="-443" type="curve" smooth="yes"/>
      <point x="556" y="-443"/>
      <point x="433" y="-283"/>
      <point x="433" y="-126" type="curve" smooth="yes"/>
      <point x="433" y="-13"/>
      <point x="478" y="130"/>
      <point x="670" y="245" type="curve"/>
    </contour>
    <contour>
      <point x="1714" y="-492" type="move" name="btm"/>
    </contour>
    <contour>
      <point x="1714" y="1293" type="move" name="top"/>
    </contour>
  </outline>
</glyph>
<glyph name="dagadeva" format="1">
  <advance width="1217"/>
  <outline>
    <contour>
      <point x="498" y="248" type="line"/>
      <point x="560" y="-304" type="line"/>
      <point x="571" y="-398"/>
      <point x="549" y="-448"/>
      <point x="451" y="-448" type="curve" smooth="yes"/>
      <point x="294" y="-448"/>
      <point x="64" y="-315"/>
      <point x="64" y="-193" type="curve" smooth="yes"/>
      <point x="64" y="-143"/>
      <point x="98" y="-104"/>
      <point x="171" y="-96" type="curve" smooth="yes"/>
      <point x="282" y="-83" type="line"/>
      <point x="248" y="-122" type="line"/>
      <point x="210" y="216" type="line"/>
    </contour>
    <contour>
      <point x="-56" y="1065" type="line"/>
      <point x="-56" y="1293" type="line"/>
      <point x="1237" y="1293" type="line"/>
      <point x="1237" y="1065" type="line"/>
    </contour>
    <contour>
      <point x="701" y="152" type="line"/>
      <point x="956" y="229" type="line"/>
      <point x="1134" y="-348" type="line"/>
      <point x="881" y="-426" type="line"/>
    </contour>
    <contour>
      <point x="670" y="40" type="curve" smooth="yes"/>
      <point x="329" y="40"/>
      <point x="69" y="248"/>
      <point x="69" y="507" type="curve" smooth="yes"/>
      <point x="69" y="733"/>
      <point x="231" y="893"/>
      <point x="570" y="893" type="curve" smooth="yes"/>
      <point x="722" y="893" type="line"/>
      <point x="672" y="838" type="line"/>
      <point x="672" y="1096" type="line"/>
      <point x="1002" y="1096" type="line"/>
      <point x="1002" y="642" type="line"/>
      <point x="697" y="642" type="line"/>
      <point x="480" y="642"/>
      <point x="403" y="559"/>
      <point x="403" y="450" type="curve" smooth="yes"/>
      <point x="403" y="339"/>
      <point x="511" y="263"/>
      <point x="630" y="263" type="curve" smooth="yes"/>
      <point x="675" y="263"/>
      <point x="729" y="271"/>
      <point x="804" y="294" type="curve"/>
      <point x="685" y="191" type="line"/>
      <point x="649" y="245"/>
      <point x="632" y="307"/>
      <point x="632" y="352" type="curve" smooth="yes"/>
      <point x="632" y="418"/>
      <point x="683" y="495"/>
      <point x="818" y="495" type="curve" smooth="yes"/>
      <point x="1004" y="495"/>
      <point x="1143" y="394"/>
      <point x="1143" y="289" type="curve" smooth="yes"/>
      <point x="1143" y="173"/>
      <point x="974" y="40"/>
    </contour>
    <contour>
      <point x="979" y="6" type="move" name="mark0"/>
    </contour>
  </outline>
</glyph>
<glyph name="daghadeva" format="1">
  <advance width="1559"/>
  <outline>
    <contour>
      <point x="1043" y="152" type="line"/>
      <point x="1297" y="229" type="line"/>
      <point x="1592" y="-318" type="line"/>
      <point x="1351" y="-420" type="line"/>
    </contour>
    <contour>
      <point x="901" y="66" type="line"/>
      <point x="773" y="20"/>
      <point x="727" y="-65"/>
      <point x="727" y="-115" type="curve" smooth="yes"/>
      <point x="726" y="-163"/>
      <point x="761" y="-201"/>
      <point x="810" y="-200" type="curve" smooth="yes"/>
      <point x="948" y="-198"/>
      <point x="1067" y="-39"/>
      <point x="1044" y="187" type="curve"/>
      <point x="1251" y="-197" type="line"/>
      <point x="1150" y="-352"/>
      <point x="999" y="-443"/>
      <point x="828" y="-443" type="curve" smooth="yes"/>
      <point x="582" y="-443"/>
      <point x="443" y="-302"/>
      <point x="443" y="-120" type="curve" smooth="yes"/>
      <point x="443" y="6"/>
      <point x="513" y="130"/>
      <point x="705" y="245" type="curve"/>
    </contour>
    <contour>
      <point x="602" y="-47" type="line"/>
      <point x="544" y="-71"/>
      <point x="482" y="-84"/>
      <point x="381" y="-84" type="curve" smooth="yes"/>
      <point x="172" y="-84"/>
      <point x="26" y="50"/>
      <point x="26" y="231" type="curve" smooth="yes"/>
      <point x="26" y="396"/>
      <point x="171" y="544"/>
      <point x="411" y="544" type="curve" smooth="yes"/>
      <point x="476" y="544"/>
      <point x="513" y="539"/>
      <point x="563" y="530" type="curve"/>
      <point x="566" y="324" type="line"/>
      <point x="547" y="327"/>
      <point x="504" y="332"/>
      <point x="476" y="332" type="curve" smooth="yes"/>
      <point x="374" y="332"/>
      <point x="331" y="277"/>
      <point x="331" y="222" type="curve" smooth="yes"/>
      <point x="331" y="164"/>
      <point x="378" y="127"/>
      <point x="443" y="128" type="curve" smooth="yes"/>
      <point x="533" y="130"/>
      <point x="575" y="152"/>
      <point x="634" y="181" type="curve"/>
    </contour>
    <contour>
      <point x="-91" y="1065" type="line"/>
      <point x="-91" y="1293" type="line"/>
      <point x="1578" y="1293" type="line"/>
      <point x="1578" y="1065" type="line"/>
    </contour>
    <contour>
      <point x="1011" y="40" type="curve" smooth="yes"/>
      <point x="670" y="40"/>
      <point x="411" y="248"/>
      <point x="411" y="507" type="curve" smooth="yes"/>
      <point x="411" y="733"/>
      <point x="572" y="893"/>
      <point x="912" y="893" type="curve" smooth="yes"/>
      <point x="1064" y="893" type="line"/>
      <point x="1013" y="838" type="line"/>
      <point x="1013" y="1096" type="line"/>
      <point x="1343" y="1096" type="line"/>
      <point x="1343" y="642" type="line"/>
      <point x="1039" y="642" type="line"/>
      <point x="821" y="642"/>
      <point x="745" y="559"/>
      <point x="745" y="450" type="curve" smooth="yes"/>
      <point x="745" y="339"/>
      <point x="853" y="263"/>
      <point x="972" y="263" type="curve" smooth="yes"/>
      <point x="1016" y="263"/>
      <point x="1071" y="271"/>
      <point x="1146" y="294" type="curve"/>
      <point x="1027" y="191" type="line"/>
      <point x="990" y="245"/>
      <point x="973" y="307"/>
      <point x="973" y="352" type="curve" smooth="yes"/>
      <point x="973" y="418"/>
      <point x="1024" y="495"/>
      <point x="1159" y="495" type="curve" smooth="yes"/>
      <point x="1345" y="495"/>
      <point x="1485" y="394"/>
      <point x="1485" y="289" type="curve" smooth="yes"/>
      <point x="1485" y="173"/>
      <point x="1316" y="40"/>
    </contour>
    <contour>
      <point x="1764" y="6" type="move" name="mark0"/>
    </contour>
  </outline>
</glyph>
<glyph name="damadeva" format="1">
  <advance width="1845"/>
  <outline>
    <contour>
      <point x="1308" y="1104" type="line"/>
      <point x="1657" y="1104" type="line"/>
      <point x="1657" y="0" type="line"/>
      <point x="1308" y="0" type="line"/>
    </contour>
    <contour>
      <point x="1357" y="439" type="line"/>
      <point x="1357" y="181" type="line"/>
      <point x="1024" y="181" type="line"/>
      <point x="1074" y="230" type="line"/>
      <point x="1074" y="133" type="line"/>
      <point x="1074" y="44"/>
      <point x="1040" y="-9"/>
      <point x="952" y="-9" type="curve" smooth="yes"/>
      <point x="773" y="-9"/>
      <point x="616" y="189"/>
      <point x="616" y="306" type="curve" smooth="yes"/>
      <point x="616" y="398"/>
      <point x="658" y="439"/>
      <point x="734" y="439" type="curve" smooth="yes"/>
    </contour>
    <contour>
      <point x="1868" y="1065" type="line"/>
      <point x="-33" y="1065" type="line"/>
      <point x="-33" y="1293" type="line"/>
      <point x="1868" y="1293" type="line"/>
    </contour>
    <contour>
      <point x="629" y="1086" type="line"/>
      <point x="958" y="1086" type="line"/>
      <point x="958" y="742" type="line"/>
      <point x="557" y="742" type="line"/>
      <point x="479" y="742"/>
      <point x="450" y="717"/>
      <point x="450" y="682" type="curve" smooth="yes"/>
      <point x="450" y="647"/>
      <point x="480" y="629"/>
      <point x="542" y="629" type="curve" smooth="yes"/>
      <point x="695" y="629" type="line"/>
      <point x="967" y="629"/>
      <point x="1067" y="482"/>
      <point x="1072" y="341" type="curve" smooth="yes"/>
      <point x="1075" y="255" type="line"/>
      <point x="753" y="246" type="line"/>
      <point x="753" y="337" type="line"/>
      <point x="753" y="373"/>
      <point x="737" y="394"/>
      <point x="668" y="394" type="curve" smooth="yes"/>
      <point x="489" y="394" type="line"/>
      <point x="264" y="394"/>
      <point x="132" y="544"/>
      <point x="132" y="698" type="curve" smooth="yes"/>
      <point x="132" y="852"/>
      <point x="224" y="965"/>
      <point x="466" y="965" type="curve" smooth="yes"/>
      <point x="696" y="965" type="line"/>
      <point x="629" y="899" type="line"/>
    </contour>
  </outline>
</glyph>
<glyph name="danuktadeva" format="1">
  <advance width="1215"/>
  <outline>
    <component base="nuktadeva" xOffset="1185" yOffset="91"/>
    <component base="dadeva"/>
    <contour>
      <point x="934" y="0" type="move" name="mark0"/>
    </contour>
  </outline>
</glyph>
<glyph name="danuktaradeva" format="1">
  <advance width="1315"/>
  <outline>
    <component base="daradeva"/>
    <component base="nuktadeva" xOffset="1241" yOffset="2"/>
    <contour>
      <point x="933" y="0" type="move" name="mark0"/>
    </contour>
  </outline>
</glyph>
<glyph name="danuktarvocalicdeva" format="1">
  <advance width="1315"/>
  <outline>
    <component base="darvocalicdeva"/>
    <component base="nuktadeva" xOffset="1010" yOffset="137"/>
    <contour>
      <point x="650" y="1274" type="move" name="mark0"/>
    </contour>
  </outline>
</glyph>
<glyph name="darvocalicdeva" format="1">
  <advance width="1215"/>
  <outline>
    <contour>
      <point x="-16" y="1065" type="line"/>
      <point x="-16" y="1293" type="line"/>
      <point x="1234" y="1293" type="line"/>
      <point x="1234" y="1065" type="line"/>
    </contour>
    <contour>
      <point x="668" y="40" type="curve" smooth="yes"/>
      <point x="327" y="40"/>
      <point x="67" y="248"/>
      <point x="67" y="507" type="curve" smooth="yes"/>
      <point x="67" y="733"/>
      <point x="229" y="893"/>
      <point x="569" y="893" type="curve" smooth="yes"/>
      <point x="720" y="893" type="line"/>
      <point x="670" y="838" type="line"/>
      <point x="670" y="1096" type="line"/>
      <point x="1000" y="1096" type="line"/>
      <point x="1000" y="642" type="line"/>
      <point x="695" y="642" type="line"/>
      <point x="478" y="642"/>
      <point x="401" y="559"/>
      <point x="401" y="450" type="curve" smooth="yes"/>
      <point x="401" y="339"/>
      <point x="509" y="263"/>
      <point x="628" y="263" type="curve" smooth="yes"/>
      <point x="673" y="263"/>
      <point x="728" y="271"/>
      <point x="802" y="294" type="curve"/>
      <point x="683" y="191" type="line"/>
      <point x="647" y="245"/>
      <point x="629" y="307"/>
      <point x="629" y="352" type="curve" smooth="yes"/>
      <point x="629" y="418"/>
      <point x="680" y="495"/>
      <point x="815" y="495" type="curve" smooth="yes"/>
      <point x="1002" y="495"/>
      <point x="1141" y="394"/>
      <point x="1141" y="289" type="curve" smooth="yes"/>
      <point x="1141" y="173"/>
      <point x="972" y="40"/>
    </contour>
    <contour>
      <point x="1176" y="-183" type="line"/>
      <point x="1167" y="-211" type="line"/>
      <point x="1130" y="-211"/>
      <point x="1056" y="-211"/>
      <point x="1017" y="-211" type="curve"/>
      <point x="902" y="-211"/>
      <point x="839" y="-275"/>
      <point x="839" y="-342" type="curve" smooth="yes"/>
      <point x="839" y="-392"/>
      <point x="875" y="-434"/>
      <point x="963" y="-434" type="curve" smooth="yes"/>
      <point x="1020" y="-434"/>
      <point x="1088" y="-419"/>
      <point x="1175" y="-385" type="curve"/>
      <point x="1210" y="-606" type="line"/>
      <point x="1095" y="-639"/>
      <point x="1047" y="-645"/>
      <point x="963" y="-645" type="curve" smooth="yes"/>
      <point x="736" y="-645"/>
      <point x="539" y="-524"/>
      <point x="539" y="-314" type="curve" smooth="yes"/>
      <point x="539" y="-141"/>
      <point x="686" y="-33"/>
      <point x="847" y="-18" type="curve"/>
      <point x="811" y="-56" type="line"/>
      <point x="699" y="152" type="line"/>
      <point x="954" y="229" type="line"/>
    </contour>
    <contour>
      <point x="650" y="1280" type="move" name="mark0"/>
    </contour>
  </outline>
</glyph>
<glyph name="davadeva" format="1">
  <advance width="1217"/>
  <outline>
    <contour>
      <point x="701" y="152" type="line"/>
      <point x="956" y="229" type="line"/>
      <point x="1250" y="-318" type="line"/>
      <point x="1009" y="-420" type="line"/>
    </contour>
    <contour>
      <point x="548" y="105" type="line"/>
      <point x="418" y="65"/>
      <point x="359" y="-34"/>
      <point x="358" y="-102" type="curve" smooth="yes"/>
      <point x="357" y="-168"/>
      <point x="408" y="-204"/>
      <point x="468" y="-204" type="curve" smooth="yes"/>
      <point x="596" y="-204"/>
      <point x="745" y="-40"/>
      <point x="731" y="168" type="curve"/>
      <point x="928" y="-225" type="line"/>
      <point x="809" y="-359"/>
      <point x="673" y="-433"/>
      <point x="475" y="-433" type="curve" smooth="yes"/>
      <point x="279" y="-433"/>
      <point x="64" y="-288"/>
      <point x="64" y="-86" type="curve" smooth="yes"/>
      <point x="64" y="60"/>
      <point x="133" y="179"/>
      <point x="305" y="275" type="curve"/>
    </contour>
    <contour>
      <point x="-56" y="1065" type="line"/>
      <point x="-56" y="1293" type="line"/>
      <point x="1237" y="1293" type="line"/>
      <point x="1237" y="1065" type="line"/>
    </contour>
    <contour>
      <point x="670" y="40" type="curve" smooth="yes"/>
      <point x="329" y="40"/>
      <point x="69" y="248"/>
      <point x="69" y="507" type="curve" smooth="yes"/>
      <point x="69" y="733"/>
      <point x="231" y="893"/>
      <point x="570" y="893" type="curve" smooth="yes"/>
      <point x="722" y="893" type="line"/>
      <point x="672" y="838" type="line"/>
      <point x="672" y="1096" type="line"/>
      <point x="1002" y="1096" type="line"/>
      <point x="1002" y="642" type="line"/>
      <point x="697" y="642" type="line"/>
      <point x="480" y="642"/>
      <point x="403" y="559"/>
      <point x="403" y="450" type="curve" smooth="yes"/>
      <point x="403" y="339"/>
      <point x="511" y="263"/>
      <point x="630" y="263" type="curve" smooth="yes"/>
      <point x="675" y="263"/>
      <point x="729" y="271"/>
      <point x="804" y="294" type="curve"/>
      <point x="685" y="191" type="line"/>
      <point x="649" y="245"/>
      <point x="631" y="307"/>
      <point x="631" y="352" type="curve" smooth="yes"/>
      <point x="631" y="418"/>
      <point x="682" y="495"/>
      <point x="817" y="495" type="curve" smooth="yes"/>
      <point x="1004" y="495"/>
      <point x="1143" y="394"/>
      <point x="1143" y="289" type="curve" smooth="yes"/>
      <point x="1143" y="173"/>
      <point x="974" y="40"/>
    </contour>
    <contour>
      <point x="935" y="6" type="move" name="mark0"/>
    </contour>
  </outline>
</glyph>
<glyph name="dayadeva" format="1">
  <advance width="1515"/>
  <outline>
    <contour>
      <point x="360" y="1105" type="line"/>
      <point x="709" y="1105" type="line"/>
      <point x="709" y="854" type="line"/>
      <point x="360" y="854" type="line"/>
    </contour>
    <contour>
      <point x="842" y="468" type="line"/>
      <point x="831" y="467" type="line"/>
      <point x="663" y="453"/>
      <point x="612" y="415"/>
      <point x="612" y="367" type="curve" smooth="yes"/>
      <point x="612" y="325"/>
      <point x="649" y="299"/>
      <point x="722" y="300" type="curve" smooth="yes"/>
      <point x="857" y="301"/>
      <point x="994" y="400"/>
      <point x="1049" y="505" type="curve"/>
      <point x="1052" y="115" type="line"/>
      <point x="966" y="85"/>
      <point x="869" y="68"/>
      <point x="752" y="68" type="curve" smooth="yes"/>
      <point x="470" y="68"/>
      <point x="297" y="234"/>
      <point x="297" y="397" type="curve" smooth="yes"/>
      <point x="297" y="539"/>
      <point x="422" y="688"/>
      <point x="748" y="688" type="curve" smooth="yes"/>
      <point x="755" y="688" type="line"/>
    </contour>
    <contour>
      <point x="362" y="463" type="line"/>
      <point x="148" y="516"/>
      <point x="14" y="625"/>
      <point x="14" y="761" type="curve" smooth="yes"/>
      <point x="14" y="891"/>
      <point x="153" y="975"/>
      <point x="371" y="975" type="curve" smooth="yes"/>
      <point x="494" y="975"/>
      <point x="622" y="975"/>
      <point x="709" y="961" type="curve"/>
      <point x="709" y="793" type="line"/>
      <point x="645" y="793"/>
      <point x="556" y="793"/>
      <point x="507" y="793" type="curve" smooth="yes"/>
      <point x="399" y="793"/>
      <point x="358" y="756"/>
      <point x="358" y="710" type="curve" smooth="yes"/>
      <point x="358" y="655"/>
      <point x="436" y="620"/>
      <point x="590" y="616" type="curve"/>
    </contour>
    <contour>
      <point x="978" y="1103" type="line"/>
      <point x="1327" y="1103" type="line"/>
      <point x="1327" y="-1" type="line"/>
      <point x="978" y="-1" type="line"/>
    </contour>
    <contour>
      <point x="1540" y="1065" type="line"/>
      <point x="-39" y="1065" type="line"/>
      <point x="-39" y="1293" type="line"/>
      <point x="1540" y="1293" type="line"/>
    </contour>
  </outline>
</glyph>
<glyph name="dayaprehalfdeva" format="1">
  <advance width="966"/>
  <outline>
    <contour>
      <point x="359" y="1105" type="line"/>
      <point x="708" y="1105" type="line"/>
      <point x="708" y="854" type="line"/>
      <point x="359" y="854" type="line"/>
    </contour>
    <contour>
      <point x="831" y="468" type="line"/>
      <point x="820" y="467" type="line"/>
      <point x="652" y="453"/>
      <point x="602" y="415"/>
      <point x="602" y="367" type="curve" smooth="yes"/>
      <point x="602" y="325"/>
      <point x="639" y="299"/>
      <point x="712" y="300" type="curve" smooth="yes"/>
      <point x="868" y="301"/>
      <point x="990" y="410"/>
      <point x="1104" y="590" type="curve"/>
      <point x="1325" y="402" type="line"/>
      <point x="1197" y="224"/>
      <point x="1037" y="68"/>
      <point x="742" y="68" type="curve" smooth="yes"/>
      <point x="460" y="68"/>
      <point x="286" y="234"/>
      <point x="286" y="397" type="curve" smooth="yes"/>
      <point x="286" y="539"/>
      <point x="412" y="688"/>
      <point x="738" y="688" type="curve" smooth="yes"/>
      <point x="745" y="688" type="line"/>
    </contour>
    <contour>
      <point x="361" y="463" type="line"/>
      <point x="147" y="516"/>
      <point x="14" y="625"/>
      <point x="14" y="761" type="curve" smooth="yes"/>
      <point x="14" y="891"/>
      <point x="152" y="975"/>
      <point x="370" y="975" type="curve" smooth="yes"/>
      <point x="493" y="975"/>
      <point x="621" y="975"/>
      <point x="708" y="961" type="curve"/>
      <point x="708" y="793" type="line"/>
      <point x="644" y="793"/>
      <point x="555" y="793"/>
      <point x="506" y="793" type="curve" smooth="yes"/>
      <point x="398" y="793"/>
      <point x="357" y="756"/>
      <point x="357" y="710" type="curve" smooth="yes"/>
      <point x="357" y="655"/>
      <point x="435" y="620"/>
      <point x="589" y="616" type="curve"/>
    </contour>
    <contour>
      <point x="1106" y="1065" type="line"/>
      <point x="-39" y="1065" type="line"/>
      <point x="-39" y="1293" type="line"/>
      <point x="1106" y="1293" type="line"/>
    </contour>
  </outline>
</glyph>
<glyph name="ddaddadeva" format="1">
  <advance width="1234"/>
  <outline>
    <contour>
      <point x="681" y="183" type="line"/>
      <point x="986" y="183" type="line"/>
      <point x="986" y="-157" type="line"/>
      <point x="565" y="-157" type="line"/>
      <point x="494" y="-157"/>
      <point x="466" y="-187"/>
      <point x="466" y="-219" type="curve" smooth="yes"/>
      <point x="466" y="-251"/>
      <point x="491" y="-270"/>
      <point x="556" y="-301" type="curve"/>
      <point x="462" y="-285" type="line"/>
      <point x="563" y="-245"/>
      <point x="627" y="-233"/>
      <point x="747" y="-233" type="curve" smooth="yes"/>
      <point x="997" y="-233"/>
      <point x="1112" y="-358"/>
      <point x="1112" y="-503" type="curve" smooth="yes"/>
      <point x="1112" y="-649"/>
      <point x="983" y="-790"/>
      <point x="653" y="-790" type="curve" smooth="yes"/>
      <point x="455" y="-790"/>
      <point x="310" y="-739"/>
      <point x="122" y="-648" type="curve"/>
      <point x="174" y="-436" type="line"/>
      <point x="358" y="-533"/>
      <point x="515" y="-583"/>
      <point x="630" y="-583" type="curve" smooth="yes"/>
      <point x="757" y="-583"/>
      <point x="816" y="-540"/>
      <point x="816" y="-502" type="curve" smooth="yes"/>
      <point x="816" y="-472"/>
      <point x="783" y="-452"/>
      <point x="722" y="-452" type="curve" smooth="yes"/>
      <point x="643" y="-452"/>
      <point x="586" y="-466"/>
      <point x="512" y="-492" type="curve"/>
      <point x="491" y="-493" type="line"/>
      <point x="262" y="-403"/>
      <point x="169" y="-290"/>
      <point x="169" y="-166" type="curve" smooth="yes"/>
      <point x="169" y="-62"/>
      <point x="256" y="37"/>
      <point x="480" y="37" type="curve" smooth="yes"/>
      <point x="743" y="37" type="line"/>
      <point x="681" y="-20" type="line"/>
    </contour>
    <contour>
      <point x="705" y="1158" type="line"/>
      <point x="1019" y="1158" type="line"/>
      <point x="1019" y="740" type="line"/>
      <point x="566" y="740" type="line"/>
      <point x="492" y="740"/>
      <point x="466" y="710"/>
      <point x="466" y="676" type="curve" smooth="yes"/>
      <point x="466" y="643"/>
      <point x="492" y="622"/>
      <point x="558" y="591" type="curve"/>
      <point x="461" y="607" type="line"/>
      <point x="565" y="647"/>
      <point x="631" y="660"/>
      <point x="753" y="660" type="curve" smooth="yes"/>
      <point x="1011" y="660"/>
      <point x="1130" y="531"/>
      <point x="1130" y="380" type="curve" smooth="yes"/>
      <point x="1130" y="230"/>
      <point x="997" y="85"/>
      <point x="657" y="85" type="curve" smooth="yes"/>
      <point x="453" y="85"/>
      <point x="305" y="138"/>
      <point x="111" y="232" type="curve"/>
      <point x="165" y="449" type="line"/>
      <point x="353" y="350"/>
      <point x="516" y="299"/>
      <point x="635" y="299" type="curve" smooth="yes"/>
      <point x="764" y="299"/>
      <point x="826" y="342"/>
      <point x="826" y="381" type="curve" smooth="yes"/>
      <point x="826" y="414"/>
      <point x="792" y="435"/>
      <point x="728" y="435" type="curve" smooth="yes"/>
      <point x="647" y="435"/>
      <point x="589" y="420"/>
      <point x="513" y="394" type="curve"/>
      <point x="490" y="393" type="line"/>
      <point x="256" y="485"/>
      <point x="161" y="603"/>
      <point x="161" y="730" type="curve" smooth="yes"/>
      <point x="161" y="837"/>
      <point x="249" y="938"/>
      <point x="479" y="938" type="curve" smooth="yes"/>
      <point x="769" y="938" type="line"/>
      <point x="705" y="880" type="line"/>
    </contour>
    <contour>
      <point x="1268" y="1065" type="line"/>
      <point x="-39" y="1065" type="line"/>
      <point x="-39" y="1293" type="line"/>
      <point x="1268" y="1293" type="line"/>
    </contour>
    <contour>
      <point x="989" y="1280" type="move" name="mark0"/>
    </contour>
  </outline>
</glyph>
<glyph name="ddaddauudeva" format="1">
  <advance width="1234"/>
  <outline>
    <component base="ddaddadeva"/>
    <component base="uuvowelsignlowdeva" xOffset="925" yOffset="-646"/>
    <contour>
      <point x="1038" y="1280" type="move" name="mark0"/>
    </contour>
    <contour>
      <point x="19" y="6" type="move" name="x102"/>
    </contour>
  </outline>
</glyph>
<glyph name="ddaddhadeva" format="1">
  <advance width="1261"/>
  <outline>
    <contour>
      <point x="592" y="195" type="line"/>
      <point x="930" y="195" type="line"/>
      <point x="930" y="-176" type="line"/>
      <point x="625" y="-176" type="line"/>
      <point x="400" y="-176"/>
      <point x="331" y="-257"/>
      <point x="331" y="-354" type="curve" smooth="yes"/>
      <point x="331" y="-463"/>
      <point x="465" y="-537"/>
      <point x="680" y="-537" type="curve" smooth="yes"/>
      <point x="861" y="-537"/>
      <point x="907" y="-505"/>
      <point x="907" y="-469" type="curve" smooth="yes"/>
      <point x="907" y="-435"/>
      <point x="873" y="-416"/>
      <point x="810" y="-416" type="curve" smooth="yes"/>
      <point x="734" y="-416"/>
      <point x="672" y="-456"/>
      <point x="672" y="-511" type="curve" smooth="yes"/>
      <point x="672" y="-556"/>
      <point x="687" y="-597"/>
      <point x="709" y="-634" type="curve"/>
      <point x="457" y="-653" type="line"/>
      <point x="425" y="-589"/>
      <point x="414" y="-540"/>
      <point x="414" y="-469" type="curve" smooth="yes"/>
      <point x="414" y="-372"/>
      <point x="535" y="-255"/>
      <point x="797" y="-255" type="curve" smooth="yes"/>
      <point x="1058" y="-255"/>
      <point x="1147" y="-362"/>
      <point x="1147" y="-470" type="curve" smooth="yes"/>
      <point x="1147" y="-592"/>
      <point x="1001" y="-712"/>
      <point x="679" y="-712" type="curve" smooth="yes"/>
      <point x="254" y="-712"/>
      <point x="12" y="-506"/>
      <point x="12" y="-289" type="curve" smooth="yes"/>
      <point x="12" y="-122"/>
      <point x="133" y="37"/>
      <point x="519" y="37" type="curve" smooth="yes"/>
      <point x="633" y="37" type="line"/>
      <point x="592" y="2" type="line"/>
    </contour>
    <contour>
      <point x="691" y="1086" type="line"/>
      <point x="1039" y="1086" type="line"/>
      <point x="1039" y="747" type="line"/>
      <point x="531" y="747" type="line"/>
      <point x="453" y="747"/>
      <point x="422" y="719"/>
      <point x="422" y="682" type="curve" smooth="yes"/>
      <point x="422" y="647"/>
      <point x="449" y="626"/>
      <point x="514" y="604" type="curve"/>
      <point x="401" y="621" type="line"/>
      <point x="491" y="659"/>
      <point x="602" y="685"/>
      <point x="727" y="685" type="curve" smooth="yes"/>
      <point x="998" y="685"/>
      <point x="1150" y="566"/>
      <point x="1150" y="401" type="curve" smooth="yes"/>
      <point x="1150" y="239"/>
      <point x="1008" y="98"/>
      <point x="659" y="98" type="curve" smooth="yes"/>
      <point x="472" y="98"/>
      <point x="281" y="145"/>
      <point x="78" y="246" type="curve"/>
      <point x="134" y="477" type="line"/>
      <point x="330" y="367"/>
      <point x="490" y="323"/>
      <point x="624" y="323" type="curve" smooth="yes"/>
      <point x="777" y="323"/>
      <point x="834" y="362"/>
      <point x="834" y="402" type="curve" smooth="yes"/>
      <point x="834" y="440"/>
      <point x="792" y="464"/>
      <point x="707" y="464" type="curve" smooth="yes"/>
      <point x="619" y="464"/>
      <point x="535" y="442"/>
      <point x="466" y="411" type="curve"/>
      <point x="458" y="411" type="line"/>
      <point x="232" y="496"/>
      <point x="123" y="612"/>
      <point x="123" y="736" type="curve" smooth="yes"/>
      <point x="123" y="838"/>
      <point x="211" y="952"/>
      <point x="454" y="952" type="curve" smooth="yes"/>
      <point x="758" y="952" type="line"/>
      <point x="691" y="886" type="line"/>
    </contour>
    <contour>
      <point x="1291" y="1065" type="line"/>
      <point x="-30" y="1065" type="line"/>
      <point x="-30" y="1293" type="line"/>
      <point x="1291" y="1293" type="line"/>
    </contour>
    <contour>
      <point x="466" y="-713" type="move" name="btm"/>
    </contour>
    <contour>
      <point x="663" y="1293" type="move" name="top"/>
    </contour>
  </outline>
</glyph>
<glyph name="ddanuktaradeva" format="1">
  <advance width="1318"/>
  <outline>
    <contour>
      <point x="0" y="0" type="line"/>
      <point x="1318" y="0" type="line"/>
      <point x="1318" y="20" type="line"/>
      <point x="0" y="20" type="line"/>
    </contour>
  </outline>
</glyph>
<glyph name="ddhaddhadeva" format="1">
  <advance width="1271"/>
  <outline>
    <contour>
      <point x="612" y="195" type="line"/>
      <point x="950" y="195" type="line"/>
      <point x="950" y="-176" type="line"/>
      <point x="646" y="-176" type="line"/>
      <point x="420" y="-176"/>
      <point x="351" y="-257"/>
      <point x="351" y="-354" type="curve" smooth="yes"/>
      <point x="351" y="-463"/>
      <point x="486" y="-537"/>
      <point x="701" y="-537" type="curve" smooth="yes"/>
      <point x="882" y="-537"/>
      <point x="928" y="-505"/>
      <point x="928" y="-469" type="curve" smooth="yes"/>
      <point x="928" y="-435"/>
      <point x="893" y="-416"/>
      <point x="831" y="-416" type="curve" smooth="yes"/>
      <point x="754" y="-416"/>
      <point x="693" y="-456"/>
      <point x="693" y="-511" type="curve" smooth="yes"/>
      <point x="693" y="-556"/>
      <point x="708" y="-597"/>
      <point x="729" y="-634" type="curve"/>
      <point x="478" y="-653" type="line"/>
      <point x="446" y="-589"/>
      <point x="434" y="-540"/>
      <point x="434" y="-469" type="curve" smooth="yes"/>
      <point x="434" y="-372"/>
      <point x="556" y="-255"/>
      <point x="818" y="-255" type="curve" smooth="yes"/>
      <point x="1079" y="-255"/>
      <point x="1168" y="-362"/>
      <point x="1168" y="-470" type="curve" smooth="yes"/>
      <point x="1168" y="-592"/>
      <point x="1022" y="-712"/>
      <point x="700" y="-712" type="curve" smooth="yes"/>
      <point x="274" y="-712"/>
      <point x="33" y="-506"/>
      <point x="33" y="-289" type="curve" smooth="yes"/>
      <point x="33" y="-122"/>
      <point x="154" y="37"/>
      <point x="540" y="37" type="curve" smooth="yes"/>
      <point x="653" y="37" type="line"/>
      <point x="612" y="2" type="line"/>
    </contour>
    <contour>
      <point x="1301" y="1065" type="line"/>
      <point x="-30" y="1065" type="line"/>
      <point x="-30" y="1293" type="line"/>
      <point x="1301" y="1293" type="line"/>
    </contour>
    <contour>
      <point x="708" y="1095" type="line"/>
      <point x="1055" y="1095" type="line"/>
      <point x="1055" y="719" type="line"/>
      <point x="676" y="719" type="line"/>
      <point x="432" y="719"/>
      <point x="367" y="620"/>
      <point x="367" y="520" type="curve" smooth="yes"/>
      <point x="367" y="410"/>
      <point x="515" y="308"/>
      <point x="730" y="308" type="curve" smooth="yes"/>
      <point x="885" y="308"/>
      <point x="959" y="356"/>
      <point x="959" y="401" type="curve" smooth="yes"/>
      <point x="959" y="439"/>
      <point x="923" y="457"/>
      <point x="861" y="457" type="curve" smooth="yes"/>
      <point x="784" y="457"/>
      <point x="731" y="408"/>
      <point x="731" y="353" type="curve" smooth="yes"/>
      <point x="731" y="308"/>
      <point x="749" y="267"/>
      <point x="763" y="230" type="curve"/>
      <point x="517" y="202" type="line"/>
      <point x="475" y="265"/>
      <point x="463" y="315"/>
      <point x="463" y="386" type="curve" smooth="yes"/>
      <point x="463" y="513"/>
      <point x="604" y="646"/>
      <point x="852" y="646" type="curve" smooth="yes"/>
      <point x="1102" y="646"/>
      <point x="1230" y="527"/>
      <point x="1230" y="394" type="curve" smooth="yes"/>
      <point x="1230" y="245"/>
      <point x="1056" y="124"/>
      <point x="734" y="124" type="curve" smooth="yes"/>
      <point x="297" y="124"/>
      <point x="51" y="360"/>
      <point x="51" y="588" type="curve" smooth="yes"/>
      <point x="51" y="775"/>
      <point x="183" y="951"/>
      <point x="569" y="951" type="curve" smooth="yes"/>
      <point x="749" y="951" type="line"/>
      <point x="708" y="917" type="line"/>
    </contour>
    <contour>
      <point x="466" y="-713" type="move" name="btm"/>
    </contour>
    <contour>
      <point x="670" y="1293" type="move" name="top"/>
    </contour>
  </outline>
</glyph>
<glyph name="ddhayadeva" format="1">
  <advance width="2611"/>
  <outline>
    <contour>
      <point x="2074" y="1104" type="line"/>
      <point x="2423" y="1104" type="line"/>
      <point x="2423" y="0" type="line"/>
      <point x="2074" y="0" type="line"/>
    </contour>
    <contour>
      <point x="962" y="694" type="line"/>
      <point x="962" y="922" type="line"/>
      <point x="1512" y="922" type="line"/>
      <point x="1732" y="922"/>
      <point x="1863" y="786"/>
      <point x="1863" y="648" type="curve" smooth="yes"/>
      <point x="1863" y="491"/>
      <point x="1742" y="402"/>
      <point x="1534" y="371" type="curve"/>
      <point x="1534" y="464" type="line"/>
      <point x="1599" y="387"/>
      <point x="1690" y="330"/>
      <point x="1794" y="330" type="curve" smooth="yes"/>
      <point x="1939" y="330"/>
      <point x="2065" y="417"/>
      <point x="2120" y="548" type="curve"/>
      <point x="2120" y="88" type="line"/>
      <point x="2064" y="64"/>
      <point x="2013" y="54"/>
      <point x="1900" y="54" type="curve" smooth="yes"/>
      <point x="1591" y="54"/>
      <point x="1340" y="250"/>
      <point x="1232" y="511" type="curve"/>
      <point x="1232" y="517" type="line"/>
      <point x="1427" y="543"/>
      <point x="1533" y="578"/>
      <point x="1533" y="640" type="curve" smooth="yes"/>
      <point x="1533" y="680"/>
      <point x="1493" y="694"/>
      <point x="1397" y="694" type="curve" smooth="yes"/>
    </contour>
    <contour>
      <point x="2636" y="1065" type="line"/>
      <point x="-51" y="1065" type="line"/>
      <point x="-51" y="1293" type="line"/>
      <point x="2636" y="1293" type="line"/>
    </contour>
    <contour>
      <point x="677" y="1095" type="line"/>
      <point x="1007" y="1095" type="line"/>
      <point x="1007" y="694" type="line"/>
      <point x="667" y="694" type="line"/>
      <point x="440" y="694"/>
      <point x="357" y="557"/>
      <point x="357" y="436" type="curve" smooth="yes"/>
      <point x="357" y="306"/>
      <point x="505" y="198"/>
      <point x="720" y="198" type="curve" smooth="yes"/>
      <point x="858" y="198"/>
      <point x="936" y="255"/>
      <point x="936" y="319" type="curve" smooth="yes"/>
      <point x="936" y="362"/>
      <point x="902" y="382"/>
      <point x="863" y="382" type="curve" smooth="yes"/>
      <point x="785" y="382"/>
      <point x="722" y="323"/>
      <point x="722" y="249" type="curve" smooth="yes"/>
      <point x="722" y="204"/>
      <point x="739" y="163"/>
      <point x="754" y="124" type="curve"/>
      <point x="506" y="96" type="line"/>
      <point x="464" y="161"/>
      <point x="453" y="210"/>
      <point x="453" y="282" type="curve" smooth="yes"/>
      <point x="453" y="436"/>
      <point x="585" y="608"/>
      <point x="841" y="608" type="curve" smooth="yes"/>
      <point x="1079" y="608"/>
      <point x="1214" y="474"/>
      <point x="1214" y="307" type="curve" smooth="yes"/>
      <point x="1214" y="161"/>
      <point x="1073" y="9"/>
      <point x="724" y="9" type="curve" smooth="yes"/>
      <point x="288" y="9"/>
      <point x="40" y="267"/>
      <point x="40" y="502" type="curve" smooth="yes"/>
      <point x="40" y="719"/>
      <point x="174" y="922"/>
      <point x="560" y="922" type="curve" smooth="yes"/>
      <point x="718" y="922" type="line"/>
      <point x="677" y="888" type="line"/>
    </contour>
  </outline>
</glyph>
